<svg width="20" height="13" viewBox="0 0 20 13" fill="none" xmlns="http://www.w3.org/2000/svg">
<path d="M2.13436 1.24117L10.0005 9.10726L17.8666 1.24117C17.9824 1.12394 18.1203 1.03077 18.2723 0.96701C18.4242 0.903255 18.5873 0.870174 18.7521 0.869675C18.9169 0.869174 19.0801 0.901264 19.2325 0.964095C19.3848 1.02693 19.5232 1.11926 19.6397 1.23579C19.7563 1.35231 19.8486 1.49073 19.9114 1.64307C19.9743 1.79541 20.0064 1.95867 20.0059 2.12346C20.0054 2.28825 19.9723 2.45132 19.9085 2.60328C19.8448 2.75523 19.7516 2.89309 19.6344 3.0089L10.8844 11.7589C10.6499 11.9933 10.332 12.125 10.0005 12.125C9.66898 12.125 9.35105 11.9933 9.11663 11.7589L0.366626 3.0089C0.134557 2.774 0.00486279 2.45681 0.00586514 2.12661C0.00686749 1.7964 0.138485 1.48001 0.371976 1.24652C0.605467 1.01303 0.921861 0.88141 1.25206 0.880407C1.58227 0.879405 1.89946 1.0091 2.13436 1.24117Z" fill="#2D4B6E"/>
</svg>
