<svg width="12" height="20" viewBox="0 0 12 20" fill="none" xmlns="http://www.w3.org/2000/svg">
<path d="M11.2589 2.13387L3.39277 10L11.2589 17.8661C11.3761 17.982 11.4693 18.1198 11.533 18.2718C11.5968 18.4237 11.6299 18.5868 11.6304 18.7516C11.6309 18.9164 11.5988 19.0796 11.5359 19.232C11.4731 19.3843 11.3808 19.5227 11.2642 19.6393C11.1477 19.7558 11.0093 19.8481 10.857 19.9109C10.7046 19.9738 10.5414 20.0059 10.3766 20.0054C10.2118 20.0049 10.0487 19.9718 9.89676 19.908C9.7448 19.8443 9.60695 19.7511 9.49113 19.6339L0.741131 10.8839C0.50672 10.6495 0.375031 10.3315 0.375031 10C0.375031 9.66849 0.50672 9.35056 0.741131 9.11614L9.49113 0.366138C9.72604 0.134069 10.0432 0.00437451 10.3734 0.00537686C10.7036 0.00637921 11.02 0.137997 11.2535 0.371488C11.487 0.604978 11.6186 0.921372 11.6196 1.25158C11.6206 1.58178 11.4909 1.89897 11.2589 2.13387Z" fill="#2D4B6E"/>
</svg>
