<svg width="12" height="20" viewBox="0 0 12 20" fill="none" xmlns="http://www.w3.org/2000/svg">
<path d="M0.741163 17.8661L8.60726 10L0.741163 2.13386C0.623934 2.01805 0.530761 1.88019 0.467006 1.72824C0.403251 1.57628 0.370171 1.41321 0.36967 1.24842C0.36917 1.08363 0.401259 0.92037 0.464091 0.768028C0.526923 0.615685 0.619256 0.47727 0.735781 0.360744C0.852305 0.244219 0.990722 0.151886 1.14306 0.0890541C1.29541 0.0262222 1.45867 -0.0058651 1.62346 -0.00536537C1.78825 -0.00486565 1.95131 0.0282135 2.10327 0.0919685C2.25523 0.155725 2.39308 0.248898 2.5089 0.366127L11.2589 9.11613C11.4933 9.35055 11.625 9.66848 11.625 10C11.625 10.3315 11.4933 10.6494 11.2589 10.8839L2.5089 19.6339C2.274 19.8659 1.95681 19.9956 1.6266 19.9946C1.2964 19.9936 0.980004 19.862 0.746513 19.6285C0.513022 19.395 0.381405 19.0786 0.380403 18.7484C0.3794 18.4182 0.509094 18.101 0.741163 17.8661Z" fill="#2D4B6E"/>
</svg>
