<svg width="19" height="15" viewBox="0 0 19 15" fill="none" xmlns="http://www.w3.org/2000/svg">
<path d="M18.4232 6.91083L12.5898 1.07749C12.4326 0.925695 12.2221 0.8417 12.0037 0.843598C11.7852 0.845497 11.5761 0.933138 11.4216 1.08764C11.2671 1.24215 11.1795 1.45116 11.1776 1.66966C11.1757 1.88816 11.2597 2.09866 11.4115 2.25583L15.8223 6.66666H1.16732C0.946304 6.66666 0.734342 6.75446 0.578062 6.91074C0.421782 7.06702 0.333984 7.27898 0.333984 7.49999C0.333984 7.72101 0.421782 7.93297 0.578062 8.08925C0.734342 8.24553 0.946304 8.33333 1.16732 8.33333H15.8223L11.4115 12.7442C11.3319 12.821 11.2684 12.913 11.2247 13.0147C11.1811 13.1163 11.1581 13.2257 11.1571 13.3363C11.1561 13.447 11.1772 13.5567 11.2191 13.6591C11.261 13.7615 11.3229 13.8546 11.4012 13.9328C11.4794 14.0111 11.5724 14.0729 11.6749 14.1148C11.7773 14.1567 11.887 14.1778 11.9977 14.1769C12.1083 14.1759 12.2177 14.1529 12.3193 14.1092C12.421 14.0656 12.5129 14.0021 12.5898 13.9225L18.4232 8.08916C18.5794 7.93289 18.6671 7.72096 18.6671 7.49999C18.6671 7.27902 18.5794 7.0671 18.4232 6.91083Z" fill="white"/>
</svg>
