<svg width="9" height="14" viewBox="0 0 9 14" fill="none" xmlns="http://www.w3.org/2000/svg">
<path d="M0.818816 12.5063L6.32508 7L0.818816 1.49371C0.736755 1.41264 0.671535 1.31614 0.626906 1.20977C0.582277 1.1034 0.559121 0.989257 0.558771 0.873903C0.558421 0.758551 0.580884 0.644266 0.624866 0.537626C0.668848 0.430986 0.733481 0.334096 0.815049 0.252528C0.896616 0.17096 0.993507 0.106327 1.10015 0.0623455C1.20679 0.018363 1.32107 -0.00409889 1.43642 -0.00374889C1.55178 -0.00339794 1.66592 0.0197573 1.77229 0.0643854C1.87866 0.109015 1.97516 0.174234 2.05623 0.256296L8.18123 6.3813C8.34532 6.54539 8.4375 6.76794 8.4375 7C8.4375 7.23206 8.34532 7.45462 8.18123 7.61871L2.05623 13.7437C1.8918 13.9062 1.66977 13.9969 1.43862 13.9962C1.20748 13.9955 0.986005 13.9034 0.822561 13.74C0.659118 13.5765 0.566985 13.355 0.566284 13.1239C0.565582 12.8928 0.656368 12.6707 0.818816 12.5063Z" fill="#BED3CC"/>
</svg>
