<svg width="22" height="18" viewBox="0 0 22 18" fill="none" xmlns="http://www.w3.org/2000/svg">
<path d="M20.3754 7.95834H4.14001L9.65355 2.4448C9.75304 2.3487 9.8324 2.23376 9.88699 2.10667C9.94159 1.97959 9.97032 1.8429 9.97152 1.70459C9.97272 1.56628 9.94637 1.42911 9.89399 1.30109C9.84162 1.17308 9.76427 1.05677 9.66646 0.958967C9.56866 0.861162 9.45236 0.783815 9.32434 0.731439C9.19632 0.679063 9.05916 0.652707 8.92084 0.653909C8.78253 0.655111 8.64584 0.683847 8.51876 0.738439C8.39167 0.793032 8.27673 0.872389 8.18064 0.971878L0.88897 8.26355C0.693688 8.45889 0.583984 8.72379 0.583984 9C0.583984 9.27622 0.693688 9.54112 0.88897 9.73646L8.18064 17.0281C8.3771 17.2179 8.64022 17.3229 8.91335 17.3205C9.18647 17.3181 9.44773 17.2086 9.64086 17.0154C9.834 16.8223 9.94355 16.561 9.94592 16.2879C9.94829 16.0148 9.8433 15.7517 9.65355 15.5552L4.14001 10.0417H20.3754C20.6517 10.0417 20.9166 9.93192 21.112 9.73657C21.3073 9.54122 21.4171 9.27627 21.4171 9C21.4171 8.72374 21.3073 8.45879 21.112 8.26344C20.9166 8.06808 20.6517 7.95834 20.3754 7.95834Z" fill="#2D4B6E"/>
</svg>
