<svg width="18" height="18" viewBox="0 0 18 18" fill="none" xmlns="http://www.w3.org/2000/svg">
<g clip-path="url(#clip0_806_1663)">
<path d="M14.2263 11.1504C13.8577 10.7667 13.4133 10.5615 12.9422 10.5615C12.4749 10.5615 12.0266 10.7629 11.6429 11.1466L10.4424 12.3432C10.3437 12.2901 10.2449 12.2407 10.1499 12.1913C10.0131 12.1229 9.88397 12.0583 9.7738 11.9899C8.64929 11.2757 7.62735 10.345 6.6472 9.14067C6.17233 8.54043 5.85321 8.03515 5.62147 7.52229C5.93299 7.23736 6.22171 6.94104 6.50284 6.65611C6.60921 6.54974 6.71559 6.43956 6.82196 6.33319C7.61975 5.5354 7.61975 4.50206 6.82196 3.70427L5.78482 2.66714C5.66706 2.54937 5.54549 2.4278 5.43152 2.30623C5.20357 2.07069 4.96424 1.82755 4.7173 1.59961C4.34879 1.2349 3.90811 1.04115 3.44463 1.04115C2.98115 1.04115 2.53286 1.2349 2.15296 1.59961L2.14536 1.60721L0.853692 2.91027C0.367417 3.39655 0.0900887 3.9892 0.0293043 4.67682C-0.0618723 5.78613 0.264844 6.81947 0.515579 7.49569C1.13102 9.15587 2.05038 10.6945 3.42183 12.3432C5.0858 14.3301 7.08789 15.8991 9.3749 17.0046C10.2487 17.4187 11.415 17.9088 12.718 17.9924C12.7978 17.9962 12.8814 18 12.9574 18C13.835 18 14.572 17.6847 15.1494 17.0578C15.1532 17.0502 15.1608 17.0464 15.1646 17.0388C15.3622 16.7995 15.5901 16.583 15.8294 16.3512C15.9928 16.1955 16.16 16.0321 16.3233 15.8611C16.6994 15.4698 16.897 15.014 16.897 14.5467C16.897 14.0756 16.6956 13.6235 16.3119 13.2436L14.2263 11.1504ZM15.5863 15.1507C15.5825 15.1507 15.5825 15.1545 15.5863 15.1507C15.4381 15.3103 15.2862 15.4546 15.1228 15.6142C14.8759 15.8497 14.6252 16.0967 14.3896 16.374C14.0059 16.7843 13.5538 16.9781 12.9612 16.9781C12.9042 16.9781 12.8434 16.9781 12.7864 16.9743C11.6581 16.9021 10.6096 16.4614 9.82319 16.0853C7.67294 15.0444 5.78482 13.5665 4.21583 11.6936C2.92036 10.1322 2.05418 8.68859 1.48053 7.13859C1.12722 6.19263 0.998055 5.45562 1.05504 4.7604C1.09303 4.31591 1.26399 3.94741 1.57931 3.63209L2.87477 2.33662C3.06093 2.16186 3.25847 2.06689 3.45222 2.06689C3.69156 2.06689 3.88531 2.21125 4.00688 2.33282L4.01828 2.34422C4.25002 2.56076 4.47036 2.7849 4.7021 3.02424C4.81987 3.14581 4.94144 3.26738 5.06301 3.39275L6.10014 4.42988C6.50284 4.83258 6.50284 5.20488 6.10014 5.60758C5.98997 5.71775 5.8836 5.82792 5.77343 5.93429C5.45431 6.26101 5.15039 6.56493 4.81987 6.86126C4.81227 6.86885 4.80468 6.87265 4.80088 6.88025C4.47416 7.20697 4.53495 7.52609 4.60333 7.74263L4.61473 7.77682C4.88446 8.43025 5.26436 9.0457 5.84181 9.77891L5.84561 9.78271C6.89414 11.0744 7.99966 12.0811 9.21914 12.8523C9.3749 12.9511 9.53446 13.0309 9.68642 13.1069C9.82319 13.1752 9.95235 13.2398 10.0625 13.3082C10.0777 13.3158 10.0929 13.3272 10.1081 13.3348C10.2373 13.3994 10.3588 13.4298 10.4842 13.4298C10.7995 13.4298 10.9971 13.2322 11.0617 13.1676L12.3609 11.8684C12.4901 11.7392 12.6952 11.5834 12.9346 11.5834C13.1701 11.5834 13.3639 11.7316 13.4816 11.8608L13.4892 11.8684L15.5825 13.9616C15.9738 14.3491 15.9738 14.748 15.5863 15.1507ZM9.72821 4.28172C10.7236 4.44888 11.6277 4.91996 12.3495 5.64177C13.0714 6.36358 13.5386 7.26775 13.7096 8.2631C13.7514 8.51383 13.9679 8.68859 14.2149 8.68859C14.2453 8.68859 14.2718 8.68479 14.3022 8.68099C14.5834 8.6354 14.7695 8.36947 14.7239 8.08834C14.5188 6.88405 13.9489 5.78613 13.079 4.91616C12.209 4.04618 11.1111 3.47633 9.90677 3.27118C9.62564 3.22559 9.36351 3.41174 9.31412 3.68907C9.26473 3.9664 9.44708 4.23613 9.72821 4.28172ZM17.9797 7.94018C17.6416 5.95709 16.707 4.15255 15.271 2.71652C13.835 1.28049 12.0304 0.345932 10.0473 0.00781895C9.77 -0.0415683 9.50787 0.148383 9.45848 0.425712C9.41289 0.706839 9.59904 0.968972 9.88017 1.01836C11.6505 1.31848 13.2651 2.15807 14.5492 3.43834C15.8332 4.72241 16.669 6.33699 16.9692 8.10734C17.0109 8.35807 17.2275 8.53283 17.4744 8.53283C17.5048 8.53283 17.5314 8.52903 17.5618 8.52523C17.8391 8.48344 18.0291 8.21751 17.9797 7.94018Z" fill="#2D4B6E"/>
</g>
<defs>
<clipPath id="clip0_806_1663">
<rect width="18" height="18" fill="white"/>
</clipPath>
</defs>
</svg>
