<svg width="25" height="25" viewBox="0 0 25 25" fill="none" xmlns="http://www.w3.org/2000/svg">
<g clip-path="url(#clip0_806_4308)">
<path d="M19.7573 15.4866C19.2455 14.9537 18.6281 14.6688 17.9738 14.6688C17.3248 14.6688 16.7022 14.9484 16.1693 15.4813L14.502 17.1434C14.3648 17.0695 14.2276 17.0009 14.0957 16.9323C13.9057 16.8374 13.7263 16.7477 13.5733 16.6527C12.0115 15.6607 10.5921 14.368 9.23082 12.6954C8.57126 11.8617 8.12804 11.1599 7.80618 10.4476C8.23885 10.0519 8.63986 9.64033 9.03031 9.2446C9.17805 9.09686 9.32579 8.94384 9.47353 8.7961C10.5816 7.68805 10.5816 6.25287 9.47353 5.14482L8.03307 3.70435C7.8695 3.54079 7.70065 3.37194 7.54236 3.20309C7.22578 2.87596 6.89336 2.53827 6.55039 2.22168C6.03858 1.71514 5.42652 1.44605 4.78279 1.44605C4.13907 1.44605 3.51645 1.71514 2.98881 2.22168L2.97826 2.23223L1.18427 4.04205C0.508891 4.71743 0.123713 5.54055 0.0392898 6.49558C-0.0873443 8.0363 0.366428 9.47148 0.714672 10.4107C1.56945 12.7165 2.84635 14.8534 4.75113 17.1434C7.06221 19.903 9.84288 22.0821 13.0193 23.6176C14.2329 24.1927 15.8527 24.8734 17.6625 24.9894C17.7733 24.9947 17.8894 25 17.995 25C19.2138 25 20.2374 24.562 21.0394 23.6914C21.0447 23.6809 21.0553 23.6756 21.0606 23.6651C21.3349 23.3326 21.6515 23.0319 21.9839 22.71C22.2108 22.4937 22.443 22.2668 22.6699 22.0294C23.1922 21.4859 23.4666 20.8527 23.4666 20.2037C23.4666 19.5494 23.187 18.9216 22.654 18.3939L19.7573 15.4866ZM21.6462 21.0427C21.641 21.0427 21.641 21.048 21.6462 21.0427C21.4405 21.2643 21.2294 21.4648 21.0025 21.6864C20.6595 22.0135 20.3113 22.3565 19.9842 22.7417C19.4512 23.3115 18.8234 23.5806 18.0002 23.5806C17.9211 23.5806 17.8367 23.5806 17.7575 23.5754C16.1904 23.4751 14.7341 22.863 13.6419 22.3407C10.6554 20.8949 8.03307 18.8424 5.85391 16.2411C4.05465 14.0725 2.85162 12.0675 2.05488 9.9147C1.56418 8.60087 1.38478 7.57725 1.46392 6.61166C1.51669 5.99432 1.75413 5.48251 2.19207 5.04457L3.99133 3.24531C4.24987 3.00259 4.52425 2.87068 4.79335 2.87068C5.12576 2.87068 5.39486 3.07118 5.5637 3.24003L5.57953 3.25586C5.90139 3.55661 6.20743 3.86792 6.52929 4.20034C6.69286 4.36918 6.8617 4.53803 7.03055 4.71215L8.47101 6.15261C9.03031 6.71192 9.03031 7.229 8.47101 7.78831C8.318 7.94132 8.17025 8.09434 8.01724 8.24208C7.57402 8.69585 7.15191 9.11796 6.69286 9.52952C6.6823 9.54008 6.67175 9.54535 6.66648 9.55591C6.2127 10.0097 6.29713 10.4529 6.3921 10.7537L6.40793 10.8011C6.78256 11.7087 7.3102 12.5635 8.11222 13.5818L8.11749 13.5871C9.57378 15.3811 11.1092 16.7793 12.803 17.8504C13.0193 17.9876 13.2409 18.0984 13.452 18.204C13.6419 18.2989 13.8213 18.3886 13.9743 18.4836C13.9954 18.4942 14.0165 18.51 14.0376 18.5205C14.217 18.6102 14.3859 18.6525 14.56 18.6525C14.9979 18.6525 15.2723 18.3781 15.362 18.2884L17.1666 16.4838C17.346 16.3044 17.6309 16.0881 17.9633 16.0881C18.2904 16.0881 18.5595 16.2939 18.7231 16.4733L18.7337 16.4838L21.641 19.3912C22.1844 19.9294 22.1844 20.4834 21.6462 21.0427ZM13.51 5.94683C14.8924 6.179 16.1482 6.83327 17.1507 7.83579C18.1532 8.83831 18.8022 10.0941 19.0397 11.4765C19.0977 11.8248 19.3985 12.0675 19.7414 12.0675C19.7837 12.0675 19.8206 12.0622 19.8628 12.0569C20.2533 11.9936 20.5118 11.6243 20.4485 11.2338C20.1636 9.56118 19.3721 8.0363 18.1638 6.828C16.9555 5.6197 15.4306 4.82823 13.758 4.54331C13.3675 4.47999 13.0035 4.73853 12.9349 5.12371C12.8663 5.50889 13.1195 5.88352 13.51 5.94683ZM24.9704 11.028C24.5008 8.27374 23.2028 5.76744 21.2083 3.77295C19.2138 1.77846 16.7075 0.480461 13.9532 0.0108597C13.568 -0.0577338 13.204 0.206087 13.1354 0.591266C13.0721 0.981721 13.3306 1.34579 13.7211 1.41439C16.1799 1.83123 18.4223 2.99731 20.2058 4.77547C21.9892 6.5589 23.15 8.80138 23.5669 11.2602C23.6249 11.6084 23.9256 11.8511 24.2686 11.8511C24.3108 11.8511 24.3478 11.8459 24.39 11.8406C24.7752 11.7826 25.039 11.4132 24.9704 11.028Z" fill="white"/>
</g>
<defs>
<clipPath id="clip0_806_4308">
<rect width="25" height="25" fill="white"/>
</clipPath>
</defs>
</svg>
