<svg width="22" height="26" viewBox="0 0 22 26" fill="none" xmlns="http://www.w3.org/2000/svg">
<path fill-rule="evenodd" clip-rule="evenodd" d="M5.07359 6.4375H3.41296C2.85976 6.43752 2.3271 6.64714 1.92226 7.02416C1.51741 7.40117 1.27045 7.91757 1.23109 8.46938L0.15984 23.4694C0.138471 23.769 0.179034 24.0698 0.279002 24.353C0.37897 24.6363 0.5362 24.8959 0.740896 25.1157C0.945592 25.3356 1.19337 25.5109 1.46878 25.6307C1.74419 25.7506 2.04134 25.8125 2.34171 25.8125H19.6567C19.957 25.8123 20.2541 25.7503 20.5294 25.6304C20.8047 25.5104 21.0524 25.3351 21.2571 25.1153C21.4618 24.8956 21.619 24.636 21.719 24.3528C21.8191 24.0697 21.8598 23.7689 21.8386 23.4694L20.7673 8.46938C20.728 7.91757 20.481 7.40117 20.0762 7.02416C19.6713 6.64714 19.1387 6.43752 18.5855 6.4375H16.9367V6.125C16.9367 4.55028 16.3112 3.04005 15.1977 1.92655C14.0842 0.813056 12.5739 0.1875 10.9992 0.1875C7.83984 0.1875 4.91984 2.70375 5.06171 6.125L5.07359 6.4375ZM16.9367 8.3125V13C16.9367 13.2486 16.8379 13.4871 16.6621 13.6629C16.4863 13.8387 16.2479 13.9375 15.9992 13.9375C15.7506 13.9375 15.5121 13.8387 15.3363 13.6629C15.1605 13.4871 15.0617 13.2486 15.0617 13V8.3125H6.93671V13C6.93671 13.2486 6.83794 13.4871 6.66213 13.6629C6.48631 13.8387 6.24785 13.9375 5.99921 13.9375C5.75057 13.9375 5.51212 13.8387 5.3363 13.6629C5.16049 13.4871 5.06171 13.2486 5.06171 13C5.06171 13 5.14296 10.8094 5.11609 8.3125H3.41296C3.33405 8.31261 3.25811 8.34257 3.20038 8.39636C3.14264 8.45015 3.1074 8.5238 3.10171 8.6025L2.02984 23.6025C2.02675 23.6453 2.03252 23.6884 2.04679 23.7289C2.06107 23.7694 2.08354 23.8065 2.1128 23.8379C2.14207 23.8694 2.1775 23.8944 2.21689 23.9116C2.25627 23.9287 2.29876 23.9375 2.34171 23.9375H19.6567C19.6996 23.9373 19.742 23.9284 19.7813 23.9112C19.8206 23.894 19.856 23.8689 19.8852 23.8375C19.9144 23.8061 19.9369 23.7691 19.9512 23.7287C19.9656 23.6882 19.9715 23.6453 19.9686 23.6025L18.8967 8.6025C18.891 8.5238 18.8558 8.45015 18.798 8.39636C18.7403 8.34257 18.6644 8.31261 18.5855 8.3125H16.9367ZM15.0617 6.4375V6.125C15.0617 5.04756 14.6337 4.01425 13.8718 3.25238C13.11 2.49051 12.0767 2.0625 10.9992 2.0625C9.92177 2.0625 8.88846 2.49051 8.12659 3.25238C7.36473 4.01425 6.93671 5.04756 6.93671 6.125V6.4375H15.0617Z" fill="#2D4B6E"/>
</svg>
