<svg width="16" height="18" viewBox="0 0 16 18" fill="none" xmlns="http://www.w3.org/2000/svg">
<path fill-rule="evenodd" clip-rule="evenodd" d="M4.05004 4.62504H2.94295C2.57415 4.62505 2.21905 4.7648 1.94915 5.01614C1.67925 5.26749 1.51461 5.61175 1.48837 5.97962L0.774203 15.9796C0.759957 16.1794 0.786999 16.3799 0.853644 16.5687C0.92029 16.7576 1.02511 16.9306 1.16157 17.0772C1.29804 17.2237 1.46322 17.3406 1.64683 17.4205C1.83044 17.5005 2.02854 17.5417 2.22879 17.5417H13.7721C13.9723 17.5416 14.1704 17.5002 14.3539 17.4203C14.5375 17.3403 14.7026 17.2235 14.839 17.0769C14.9755 16.9304 15.0803 16.7574 15.147 16.5686C15.2137 16.3798 15.2408 16.1793 15.2267 15.9796L14.5125 5.97962C14.4863 5.61175 14.3217 5.26749 14.0518 5.01614C13.7819 4.7648 13.4268 4.62505 13.058 4.62504H11.9588V4.41671C11.9588 3.36689 11.5417 2.36007 10.7994 1.61774C10.0571 0.875412 9.05027 0.458374 8.00045 0.458374C5.8942 0.458374 3.94754 2.13587 4.04212 4.41671L4.05004 4.62504ZM11.9588 5.87504V9.00004C11.9588 9.1658 11.8929 9.32477 11.7757 9.44198C11.6585 9.55919 11.4995 9.62504 11.3338 9.62504C11.168 9.62504 11.0091 9.55919 10.8918 9.44198C10.7746 9.32477 10.7088 9.1658 10.7088 9.00004V5.87504H5.29212V9.00004C5.29212 9.1658 5.22627 9.32477 5.10906 9.44198C4.99185 9.55919 4.83288 9.62504 4.66712 9.62504C4.50136 9.62504 4.34239 9.55919 4.22518 9.44198C4.10797 9.32477 4.04212 9.1658 4.04212 9.00004C4.04212 9.00004 4.09629 7.53962 4.07837 5.87504H2.94295C2.89035 5.87512 2.83972 5.89509 2.80123 5.93095C2.76274 5.96681 2.73924 6.01591 2.73545 6.06838L2.02087 16.0684C2.01881 16.0969 2.02266 16.1256 2.03217 16.1526C2.04169 16.1796 2.05667 16.2044 2.07618 16.2253C2.09569 16.2463 2.11931 16.263 2.14557 16.2744C2.17182 16.2858 2.20015 16.2917 2.22879 16.2917H13.7721C13.8007 16.2916 13.829 16.2856 13.8552 16.2742C13.8814 16.2627 13.905 16.246 13.9244 16.2251C13.9439 16.2041 13.9589 16.1794 13.9685 16.1525C13.978 16.1255 13.982 16.0969 13.98 16.0684L13.2655 6.06838C13.2617 6.01591 13.2382 5.96681 13.1997 5.93095C13.1612 5.89509 13.1106 5.87512 13.058 5.87504H11.9588ZM10.7088 4.62504V4.41671C10.7088 3.69841 10.4234 3.00954 9.91553 2.50163C9.40762 1.99372 8.71875 1.70837 8.00045 1.70837C7.28216 1.70837 6.59328 1.99372 6.08537 2.50163C5.57746 3.00954 5.29212 3.69841 5.29212 4.41671V4.62504H10.7088Z" fill="#7B6767"/>
</svg>
