<svg width="26" height="26" viewBox="0 0 26 26" fill="none" xmlns="http://www.w3.org/2000/svg">
<path d="M24.9509 2.66045C25.2458 2.42249 25.6341 2.84205 25.3773 3.11758L13.0912 16.236C12.5025 16.8559 11.4442 16.7056 11.056 15.9417L7.74961 9.41659C7.43651 8.80291 8.2631 8.20175 8.75781 8.69646L12.6779 12.6422L24.9509 2.66045Z" fill="#2D4B6E"/>
<path d="M25.2207 10.288C26.6047 16.55 22.8537 23.0319 16.7419 24.9412C11.1373 26.6946 4.88154 24.2086 2.0323 19.0611C-0.804418 13.9262 0.372851 7.33228 4.81892 3.49927C9.23368 -0.314327 15.909 -0.507824 20.5555 3.01083L18.5391 4.64523C13.5921 1.35765 6.69128 3.20496 4.0299 8.50893C1.37478 13.8066 4.04242 20.4319 9.61566 22.4295C12.8463 23.588 16.554 22.9674 19.2336 20.832C22.4779 18.2458 23.8049 13.7872 22.503 9.84901L24.3998 7.82636C24.7571 8.61657 25.0322 9.44145 25.2207 10.288Z" fill="#2D4B6E" fill-opacity="0.5"/>
</svg>
