<svg width="20" height="21" viewBox="0 0 20 21" fill="none" xmlns="http://www.w3.org/2000/svg">
<path d="M19.5603 2.22865C19.7963 2.03828 20.1069 2.37393 19.9015 2.59436L10.0725 13.0891C9.60163 13.585 8.75499 13.4648 8.4444 12.8536L5.7993 7.63357C5.54882 7.14262 6.21009 6.66169 6.60585 7.05746L9.7419 10.214L19.5603 2.22865Z" fill="#2D4B6E"/>
<path d="M19.7774 8.33029C20.8845 13.3399 17.8837 18.5254 12.9943 20.0529C8.51066 21.4556 3.50601 19.4667 1.22662 15.3488C-1.04275 11.2409 -0.100938 5.96573 3.45592 2.89932C6.98772 -0.151559 12.328 -0.306357 16.0452 2.50857L14.4321 3.81609C10.4744 1.18602 4.9538 2.66387 2.8247 6.90704C0.700606 11.1452 2.83472 16.4454 7.29331 18.0435C9.87779 18.9703 12.844 18.4738 14.9876 16.7655C17.5831 14.6966 18.6447 11.1297 17.6032 7.97911L19.1206 6.36099C19.4065 6.99316 19.6266 7.65306 19.7774 8.33029Z" fill="#2D4B6E" fill-opacity="0.5"/>
</svg>
