<svg width="41" height="40" viewBox="0 0 41 40" fill="none" xmlns="http://www.w3.org/2000/svg">
<g clip-path="url(#clip0_806_4214)">
<path d="M37.1666 1.66663H3.83336C1.99578 1.66663 0.5 3.16163 0.5 4.99999V28.3333C0.5 30.1717 1.99578 31.6667 3.83336 31.6667H15.5037C15.4688 32.9962 15.2148 35.123 14.2614 36.1272C13.9115 36.495 13.5111 36.6667 13 36.6667C12.8905 36.6666 12.7821 36.6881 12.681 36.73C12.5799 36.7718 12.488 36.8332 12.4106 36.9106C12.3332 36.988 12.2718 37.0799 12.2299 37.1811C12.1881 37.2822 12.1666 37.3906 12.1666 37.5001C12.1666 37.6095 12.1881 37.7179 12.2299 37.8191C12.2718 37.9202 12.3332 38.0121 12.4106 38.0895C12.488 38.1669 12.5799 38.2283 12.681 38.2701C12.7821 38.312 12.8905 38.3335 13 38.3334H28C28.1095 38.3335 28.2179 38.312 28.319 38.2701C28.4201 38.2283 28.512 38.1669 28.5894 38.0895C28.6668 38.0121 28.7282 37.9202 28.7701 37.8191C28.8119 37.7179 28.8334 37.6095 28.8334 37.5001C28.8334 37.3906 28.8119 37.2822 28.7701 37.1811C28.7282 37.0799 28.6668 36.988 28.5894 36.9106C28.512 36.8332 28.4201 36.7718 28.319 36.73C28.2179 36.6881 28.1095 36.6666 28 36.6667C27.4889 36.6667 27.0885 36.4958 26.7402 36.128C25.7891 35.1287 25.5336 32.999 25.4973 31.6667H37.1667C39.0043 31.6667 40.5001 30.1718 40.5001 28.3333V4.99999C40.5 3.16163 39.0042 1.66663 37.1666 1.66663ZM20.5 30.0048C19.5788 30.0048 18.8284 29.2545 18.8284 28.3333C18.8284 27.412 19.5788 26.6617 20.5 26.6617C21.4212 26.6617 22.1716 27.412 22.1716 28.3333C22.1716 29.2545 21.4212 30.0048 20.5 30.0048ZM3.83336 25V4.99999H37.1667L37.1681 25H3.83336Z" fill="#7B6767"/>
</g>
<defs>
<clipPath id="clip0_806_4214">
<rect width="40" height="40" fill="white" transform="translate(0.5)"/>
</clipPath>
</defs>
</svg>
