<svg width="41" height="28" viewBox="0 0 41 28" fill="none" xmlns="http://www.w3.org/2000/svg">
<path d="M40.4785 19.0332C40.3789 16.7414 39.9803 14.2005 39.3824 11.809C38.7846 9.51724 38.0373 7.3749 37.1405 5.73079C33.653 -0.397288 29.8665 0.549325 25.3327 1.74505C23.8879 2.0938 22.3434 2.49237 20.7491 2.64184H20.2509C18.6566 2.49237 17.1121 2.0938 15.6673 1.74505C11.1335 0.599147 7.34708 -0.397287 3.85956 5.78061C2.96276 7.42472 2.16562 9.56706 1.61758 11.8589C1.01972 14.2503 0.621143 16.7912 0.5215 19.083C0.421856 21.6239 0.670965 23.4673 1.219 24.7627C1.76704 25.9584 2.56419 26.7057 3.61045 27.0047C4.55706 27.2538 5.65314 27.1541 6.79904 26.6559C8.74209 25.8588 10.9841 24.1648 13.1762 22.1221C14.7207 20.6275 17.6104 19.8802 20.5 19.8802C23.3897 19.8802 26.2793 20.6275 27.8238 22.1221C30.016 24.1648 32.2579 25.8588 34.201 26.6559C35.3469 27.1043 36.443 27.2538 37.3896 27.0047C38.386 26.7057 39.233 26.0082 39.781 24.7129C40.3291 23.4673 40.5782 21.6239 40.4785 19.0332ZM38.0871 24.0154C37.7882 24.7129 37.3896 25.1114 36.8914 25.2609C36.3433 25.4104 35.6458 25.3107 34.8487 25.0118C33.1049 24.3143 31.0622 22.7698 29.0694 20.8766C27.1761 18.9834 23.8381 18.0368 20.5 18.0368C17.162 18.0368 13.8239 18.9834 11.8809 20.7769C9.83816 22.6702 7.79547 24.2645 6.10153 24.9122C5.30439 25.2111 4.60688 25.3605 4.05884 25.1613C3.56063 25.0118 3.16205 24.6132 2.86312 23.9157C2.46455 22.9691 2.26526 21.4246 2.3649 19.1328C2.46455 16.9905 2.8133 14.5492 3.41116 12.2574C3.9592 10.1151 4.6567 8.12223 5.50367 6.62758C8.24387 1.69523 11.4325 2.49237 15.2189 3.48881C16.7634 3.88738 18.3577 4.28596 20.1014 4.43542H20.8488C22.6423 4.28596 24.2366 3.88738 25.7811 3.48881C29.5676 2.54219 32.7562 1.69523 35.4963 6.62758C36.3433 8.12223 37.0408 10.0653 37.5889 12.2574C38.1369 14.5492 38.5355 16.9407 38.6351 19.1328C38.7348 21.4246 38.5355 22.9691 38.0871 24.0154Z" fill="#7B6767" stroke="#7B6767"/>
<path d="M15.9156 9.31784C15.4174 8.86945 14.8195 8.5207 14.122 8.47087C14.0722 7.82319 13.7733 7.17551 13.3249 6.72711L13.2751 6.67729C12.727 6.12925 12.0295 5.83032 11.2324 5.83032C10.4352 5.83032 9.6879 6.17907 9.18969 6.67729C8.74129 7.12569 8.39254 7.77337 8.34272 8.47087C7.64521 8.5207 7.04735 8.81963 6.54913 9.26802L6.49931 9.31784C5.95127 9.86588 5.65234 10.5634 5.65234 11.3605C5.65234 12.1577 6.0011 12.905 6.49931 13.4032C6.99753 13.9014 7.59539 14.2004 8.34272 14.2502C8.39254 14.9477 8.69147 15.5954 9.18969 16.0438C9.73773 16.5918 10.4352 16.8907 11.2324 16.8907C12.0295 16.8907 12.7769 16.542 13.2751 16.0438C13.7235 15.5456 14.0722 14.9477 14.122 14.2502C14.8195 14.2004 15.4672 13.9014 15.9156 13.4032C16.4637 12.8552 16.7626 12.1577 16.7626 11.3605C16.7626 10.5634 16.4138 9.81606 15.9156 9.31784ZM14.6701 12.1079C14.4708 12.3071 14.2217 12.4068 13.9228 12.4068H13.2252C12.727 12.4068 12.2786 12.8054 12.2786 13.3534V14.0011C12.2786 14.3 12.179 14.5491 11.9797 14.7484C11.7804 14.9477 11.5313 15.0473 11.2324 15.0473C10.9334 15.0473 10.6843 14.9477 10.4851 14.7484C10.2858 14.5491 10.1861 14.3 10.1861 14.0011V13.3036C10.1861 12.8054 9.78755 12.357 9.23951 12.357H8.542C8.24307 12.357 7.99397 12.2573 7.79468 12.058C7.64521 11.9086 7.49575 11.6595 7.49575 11.3605C7.49575 11.0616 7.59539 10.8125 7.79468 10.6132L7.8445 10.5634C8.04379 10.4139 8.2929 10.3143 8.542 10.3143H9.23951C9.73772 10.3143 10.1861 9.9157 10.1861 9.36766V8.67016C10.1861 8.37123 10.2858 8.12212 10.4851 7.92283C10.6843 7.72355 10.9334 7.6239 11.2324 7.6239C11.5313 7.6239 11.7804 7.72355 11.9797 7.92283L12.0295 7.97266C12.179 8.17194 12.2786 8.42105 12.2786 8.67016V9.36766C12.2786 9.86588 12.6772 10.3143 13.2252 10.3143H13.9228C14.2217 10.3143 14.4708 10.4139 14.6701 10.6132C14.8694 10.8125 14.969 11.0616 14.969 11.3605C14.969 11.6595 14.8694 11.9086 14.6701 12.1079Z" fill="#7B6767"/>
<path d="M29.1695 9.56711C30.1326 9.56711 30.9133 8.7864 30.9133 7.82335C30.9133 6.8603 30.1326 6.07959 29.1695 6.07959C28.2065 6.07959 27.4258 6.8603 27.4258 7.82335C27.4258 8.7864 28.2065 9.56711 29.1695 9.56711Z" fill="#7B6767"/>
<path d="M29.1695 16.6418C30.1326 16.6418 30.9133 15.8611 30.9133 14.8981C30.9133 13.935 30.1326 13.1543 29.1695 13.1543C28.2065 13.1543 27.4258 13.935 27.4258 14.8981C27.4258 15.8611 28.2065 16.6418 29.1695 16.6418Z" fill="#7B6767"/>
<path d="M25.6324 13.1045C26.5955 13.1045 27.3762 12.3238 27.3762 11.3607C27.3762 10.3977 26.5955 9.61694 25.6324 9.61694C24.6694 9.61694 23.8887 10.3977 23.8887 11.3607C23.8887 12.3238 24.6694 13.1045 25.6324 13.1045Z" fill="#7B6767"/>
<path d="M32.7067 13.1045C33.6697 13.1045 34.4504 12.3238 34.4504 11.3607C34.4504 10.3977 33.6697 9.61694 32.7067 9.61694C31.7436 9.61694 30.9629 10.3977 30.9629 11.3607C30.9629 12.3238 31.7436 13.1045 32.7067 13.1045Z" fill="#7B6767"/>
</svg>
