<svg width="50" height="50" viewBox="0 0 50 50" fill="none" xmlns="http://www.w3.org/2000/svg">
<rect width="50" height="50" fill="#2D4B6E"/>
<g clip-path="url(#clip0_806_1700)">
<path d="M32.5482 28.1061C32.0159 27.5518 31.3739 27.2555 30.6934 27.2555C30.0185 27.2555 29.3709 27.5463 28.8167 28.1006L27.0827 29.8291C26.94 29.7523 26.7973 29.681 26.6601 29.6096C26.4626 29.5109 26.276 29.4176 26.1169 29.3188C24.4926 28.2872 23.0164 26.9427 21.6007 25.2032C20.9147 24.3362 20.4538 23.6063 20.1191 22.8655C20.569 22.454 20.9861 22.0259 21.3921 21.6144C21.5458 21.4607 21.6994 21.3016 21.8531 21.1479C23.0055 19.9956 23.0055 18.503 21.8531 17.3506L20.355 15.8525C20.1849 15.6824 20.0093 15.5068 19.8447 15.3312C19.5154 14.991 19.1697 14.6398 18.813 14.3105C18.2807 13.7837 17.6442 13.5039 16.9747 13.5039C16.3053 13.5039 15.6577 13.7837 15.109 14.3105L15.098 14.3215L13.2323 16.2037C12.5299 16.9061 12.1293 17.7622 12.0415 18.7554C11.9098 20.3577 12.3817 21.8503 12.7439 22.8271C13.6329 25.2251 14.9608 27.4476 16.9418 29.8291C19.3453 32.6991 22.2372 34.9654 25.5407 36.5623C26.8028 37.1604 28.4875 37.8683 30.3697 37.989C30.4849 37.9945 30.6056 38 30.7154 38C31.983 38 33.0476 37.5445 33.8816 36.6391C33.8871 36.6281 33.8981 36.6226 33.9036 36.6117C34.1889 36.2659 34.5182 35.9532 34.8639 35.6184C35.0999 35.3934 35.3413 35.1575 35.5773 34.9105C36.1205 34.3453 36.4059 33.6868 36.4059 33.0119C36.4059 32.3314 36.1151 31.6784 35.5608 31.1297L32.5482 28.1061ZM34.5127 33.8844C34.5072 33.8844 34.5072 33.8899 34.5127 33.8844C34.2987 34.1149 34.0792 34.3234 33.8432 34.5539C33.4866 34.8941 33.1244 35.2508 32.7842 35.6514C32.2299 36.244 31.5769 36.5239 30.7209 36.5239C30.6385 36.5239 30.5507 36.5239 30.4684 36.5184C28.8387 36.4141 27.3241 35.7776 26.1882 35.2343C23.0823 33.7307 20.355 31.5961 18.0887 28.8908C16.2175 26.6354 14.9663 24.5502 14.1377 22.3113C13.6274 20.9449 13.4408 19.8803 13.5231 18.8761C13.578 18.2341 13.8249 17.7018 14.2804 17.2463L16.1516 15.3751C16.4205 15.1227 16.7058 14.9855 16.9857 14.9855C17.3314 14.9855 17.6113 15.194 17.7869 15.3696L17.8033 15.3861C18.1381 15.6989 18.4563 16.0226 18.7911 16.3684C18.9612 16.544 19.1368 16.7196 19.3124 16.9006L20.8105 18.3987C21.3921 18.9804 21.3921 19.5182 20.8105 20.0998C20.6513 20.259 20.4977 20.4181 20.3386 20.5718C19.8776 21.0437 19.4386 21.4827 18.9612 21.9107C18.9502 21.9217 18.9392 21.9272 18.9338 21.9381C18.4618 22.4101 18.5496 22.871 18.6484 23.1838L18.6649 23.2332C19.0545 24.177 19.6032 25.066 20.4373 26.1251L20.4428 26.1306C21.9574 27.9963 23.5542 29.4505 25.3157 30.5645C25.5407 30.7071 25.7712 30.8224 25.9907 30.9321C26.1882 31.0309 26.3748 31.1242 26.5339 31.223C26.5559 31.2339 26.5778 31.2504 26.5998 31.2614C26.7863 31.3547 26.9619 31.3986 27.143 31.3986C27.5985 31.3986 27.8838 31.1132 27.9771 31.0199L29.8538 29.1432C30.0404 28.9566 30.3367 28.7316 30.6824 28.7316C31.0227 28.7316 31.3025 28.9457 31.4726 29.1322L31.4836 29.1432L34.5072 32.1668C35.0724 32.7265 35.0724 33.3027 34.5127 33.8844ZM26.051 18.1847C27.4887 18.4262 28.7948 19.1066 29.8374 20.1492C30.88 21.1918 31.555 22.4979 31.8019 23.9356C31.8623 24.2978 32.175 24.5502 32.5317 24.5502C32.5756 24.5502 32.614 24.5447 32.6579 24.5392C33.064 24.4734 33.3329 24.0892 33.2671 23.6832C32.9707 21.9436 32.1476 20.3577 30.891 19.1011C29.6343 17.8445 28.0485 17.0214 26.3089 16.725C25.9029 16.6592 25.5242 16.9281 25.4529 17.3287C25.3815 17.7292 25.6449 18.1189 26.051 18.1847ZM37.9698 23.4691C37.4814 20.6047 36.1315 17.9981 34.0572 15.9239C31.983 13.8496 29.3764 12.4997 26.512 12.0113C26.1114 11.94 25.7327 12.2143 25.6614 12.6149C25.5956 13.021 25.8644 13.3996 26.2705 13.471C28.8277 13.9045 31.1599 15.1172 33.0146 16.9665C34.8694 18.8213 36.0766 21.1534 36.5102 23.7106C36.5705 24.0728 36.8833 24.3252 37.24 24.3252C37.2839 24.3252 37.3223 24.3197 37.3662 24.3142C37.7668 24.2539 38.0412 23.8697 37.9698 23.4691Z" fill="white"/>
</g>
<defs>
<clipPath id="clip0_806_1700">
<rect width="26" height="26" fill="white" transform="translate(12 12)"/>
</clipPath>
</defs>
</svg>
