<svg width="50" height="50" viewBox="0 0 50 50" fill="none" xmlns="http://www.w3.org/2000/svg">
<rect width="50" height="50" fill="#2D4B6E"/>
<path d="M35.7148 15.8594H14.2852C13.0226 15.8594 12 16.8883 12 18.1445V31.8555C12 33.1192 13.0301 34.1406 14.2852 34.1406H35.7148C36.9669 34.1406 38 33.1235 38 31.8555V18.1445C38 16.8905 36.9815 15.8594 35.7148 15.8594ZM35.3948 17.3828L26.6159 26.1155C26.1842 26.5472 25.6104 26.7848 25 26.7848C24.3896 26.7848 23.8158 26.5471 23.3827 26.1141L14.6052 17.3828H35.3948ZM13.5234 31.5454V18.4556L20.1066 25.0041L13.5234 31.5454ZM14.6061 32.6172L21.1867 26.0784L22.3069 27.1927C23.0263 27.9121 23.9827 28.3082 25 28.3082C26.0173 28.3082 26.9737 27.9121 27.6917 27.1942L28.8133 26.0784L35.3939 32.6172H14.6061ZM36.4766 31.5454L29.8934 25.0041L36.4766 18.4556V31.5454Z" fill="white"/>
</svg>
