<svg width="50" height="50" viewBox="0 0 50 50" fill="none" xmlns="http://www.w3.org/2000/svg">
<rect width="50" height="50" fill="#2D4B6E" fill-opacity="0.2"/>
<path d="M33.6851 18.3374C32.0844 14.9818 28.7857 12.8611 25.0726 12.8124C21.3513 12.7636 18.0526 14.8111 16.3951 18.1749C14.6726 21.6605 15.0788 25.6986 17.4676 28.7293L23.6344 36.5618C23.7883 36.7571 23.9846 36.9151 24.2083 37.0237C24.4321 37.1323 24.6776 37.1887 24.9263 37.1887C25.175 37.1887 25.4205 37.1323 25.6443 37.0237C25.8681 36.9151 26.0643 36.7571 26.2182 36.5618L32.5476 28.518C34.8469 25.593 35.2776 21.7011 33.6851 18.3455V18.3374ZM31.2801 27.5105L24.9182 35.5543L18.7513 27.7218C16.7607 25.1949 16.4194 21.8068 17.8576 18.898C19.2388 16.103 21.8794 14.4455 24.9344 14.4455H25.0563C28.1926 14.4943 30.8738 16.2086 32.2226 19.0443C33.5713 21.8799 33.2219 25.0405 31.2801 27.5105Z" fill="#2D4B6E"/>
<path d="M24.9263 17.8174C22.4807 17.8174 20.4901 19.808 20.4901 22.2536C20.4901 24.6993 22.4807 26.6899 24.9263 26.6899C27.3719 26.6899 29.3626 24.6993 29.3626 22.2536C29.3626 19.808 27.3719 17.8174 24.9263 17.8174ZM24.9263 25.0568C24.1924 25.0391 23.4945 24.7352 22.9817 24.2099C22.4689 23.6846 22.1819 22.9796 22.1819 22.2455C22.1819 21.5114 22.4689 20.8064 22.9817 20.2811C23.4945 19.7558 24.1924 19.4519 24.9263 19.4343C25.6602 19.4519 26.3581 19.7558 26.8709 20.2811C27.3837 20.8064 27.6708 21.5114 27.6708 22.2455C27.6708 22.9796 27.3837 23.6846 26.8709 24.2099C26.3581 24.7352 25.6602 25.0391 24.9263 25.0568Z" fill="#2D4B6E"/>
</svg>
