<svg width="70" height="70" viewBox="0 0 70 70" fill="none" xmlns="http://www.w3.org/2000/svg">
<rect width="70" height="70" fill="#068BB6" fill-opacity="0.2"/>
<path d="M34.9992 52.5C31.1459 52.5011 27.4 51.2304 24.3427 48.8851C21.2853 46.5398 19.0876 43.251 18.0903 39.529C17.0931 35.807 17.3522 31.8599 18.8274 28.3002C20.3026 24.7405 22.9115 21.7672 26.2492 19.8417C26.4405 19.7329 26.667 19.7042 26.8794 19.7619C27.0917 19.8195 27.2727 19.9588 27.3827 20.1494C27.4927 20.34 27.5229 20.5664 27.4667 20.7791C27.4104 20.9918 27.2723 21.1737 27.0825 21.285C24.0625 23.0271 21.702 25.7172 20.3672 28.938C19.0324 32.1587 18.7979 35.73 19.7001 39.0976C20.6024 42.4652 22.591 45.4409 25.3572 47.5629C28.1235 49.6848 31.5128 50.8344 34.9992 50.8333C35.2202 50.8333 35.4321 50.9211 35.5884 51.0774C35.7447 51.2337 35.8325 51.4457 35.8325 51.6667C35.8325 51.8877 35.7447 52.0996 35.5884 52.2559C35.4321 52.4122 35.2202 52.5 34.9992 52.5ZM43.3325 50.27C43.149 50.27 42.9707 50.2095 42.8252 50.0978C42.6797 49.9861 42.5751 49.8295 42.5276 49.6524C42.4801 49.4752 42.4924 49.2873 42.5626 49.1178C42.6328 48.9483 42.757 48.8067 42.9158 48.715C45.9358 46.9729 48.2963 44.2828 49.6311 41.062C50.966 37.8413 51.2004 34.27 50.2982 30.9024C49.3959 27.5348 47.4074 24.5591 44.6411 22.4371C41.8748 20.3152 38.4855 19.1655 34.9992 19.1667C34.7781 19.1667 34.5662 19.0789 34.4099 18.9226C34.2536 18.7663 34.1658 18.5543 34.1658 18.3333C34.1658 18.1123 34.2536 17.9004 34.4099 17.7441C34.5662 17.5878 34.7781 17.5 34.9992 17.5C38.8524 17.4989 42.5983 18.7696 45.6557 21.1149C48.713 23.4602 50.9107 26.749 51.908 30.471C52.9052 34.193 52.6461 38.1401 51.1709 41.6998C49.6957 45.2595 47.0868 48.2328 43.7492 50.1583C43.6225 50.2315 43.4788 50.27 43.3325 50.27Z" fill="#068BB6"/>
<path d="M43.3325 50.27C43.149 50.27 42.9707 50.2095 42.8252 50.0978C42.6797 49.9861 42.5751 49.8295 42.5276 49.6524C42.4801 49.4752 42.4924 49.2873 42.5626 49.1178C42.6328 48.9483 42.757 48.8067 42.9158 48.715C45.9358 46.9729 48.2963 44.2828 49.6311 41.062C50.966 37.8413 51.2004 34.27 50.2982 30.9024C49.3959 27.5348 47.4074 24.5591 44.6411 22.4371C41.8748 20.3152 38.4855 19.1655 34.9992 19.1667C34.7781 19.1667 34.5662 19.0789 34.4099 18.9226C34.2536 18.7663 34.1658 18.5543 34.1658 18.3333C34.1658 18.1123 34.2536 17.9004 34.4099 17.7441C34.5662 17.5878 34.7781 17.5 34.9992 17.5C38.8524 17.4989 42.5983 18.7696 45.6557 21.1149C48.713 23.4602 50.9107 26.749 51.908 30.471C52.9052 34.193 52.6461 38.1401 51.1709 41.6998C49.6957 45.2595 47.0868 48.2328 43.7492 50.1583C43.6225 50.2315 43.4788 50.27 43.3325 50.27ZM34.9992 52.5C31.1459 52.5011 27.4 51.2304 24.3427 48.8851C21.2853 46.5398 19.0876 43.251 18.0903 39.529C17.0931 35.807 17.3522 31.8599 18.8274 28.3002C20.3026 24.7405 22.9115 21.7672 26.2492 19.8417C26.4405 19.7329 26.667 19.7042 26.8794 19.7619C27.0917 19.8195 27.2727 19.9588 27.3827 20.1494C27.4927 20.34 27.5229 20.5664 27.4667 20.7791C27.4104 20.9918 27.2723 21.1737 27.0825 21.285C24.0625 23.0271 21.702 25.7172 20.3672 28.938C19.0324 32.1587 18.7979 35.73 19.7001 39.0976C20.6024 42.4652 22.591 45.4409 25.3572 47.5629C28.1235 49.6848 31.5128 50.8344 34.9992 50.8333C35.2202 50.8333 35.4321 50.9211 35.5884 51.0774C35.7447 51.2337 35.8325 51.4457 35.8325 51.6667C35.8325 51.8877 35.7447 52.0996 35.5884 52.2559C35.4321 52.4122 35.2202 52.5 34.9992 52.5Z" fill="#068BB6"/>
<path d="M26.6658 25.8333C26.4448 25.8333 26.2329 25.7455 26.0766 25.5892C25.9203 25.4329 25.8325 25.2209 25.8325 24.9999V21.3108L21.5717 20.8283C21.352 20.8033 21.1512 20.6921 21.0135 20.5191C20.8758 20.3461 20.8125 20.1255 20.8375 19.9058C20.8625 19.6861 20.9737 19.4853 21.1467 19.3476C21.3197 19.2099 21.5403 19.1466 21.76 19.1716L26.76 19.7391C26.9633 19.7622 27.151 19.8593 27.2873 20.0119C27.4236 20.1646 27.499 20.362 27.4992 20.5666V24.9999C27.4992 25.2209 27.4114 25.4329 27.2551 25.5892C27.0988 25.7455 26.8868 25.8333 26.6658 25.8333ZM48.3325 50.8333C48.3008 50.8332 48.2691 50.8316 48.2375 50.8283L43.2375 50.2608C43.0343 50.2375 42.8468 50.1403 42.7107 49.9877C42.5745 49.8351 42.4993 49.6378 42.4992 49.4333V44.9999C42.4992 44.7789 42.587 44.567 42.7432 44.4107C42.8995 44.2544 43.1115 44.1666 43.3325 44.1666C43.5535 44.1666 43.7655 44.2544 43.9217 44.4107C44.078 44.567 44.1658 44.7789 44.1658 44.9999V48.6891L48.4267 49.1716C48.6388 49.1949 48.8338 49.2987 48.9717 49.4616C49.1095 49.6245 49.1796 49.834 49.1676 50.0471C49.1555 50.2601 49.0622 50.4604 48.9068 50.6067C48.7514 50.753 48.5459 50.8341 48.3325 50.8333ZM34.9992 45.8333C32.8565 45.8333 30.762 45.1979 28.9805 44.0075C27.1989 42.8171 25.8104 41.1252 24.9905 39.1457C24.1705 37.1661 23.956 34.9879 24.374 32.8865C24.792 30.785 25.8238 28.8547 27.3388 27.3396C28.8539 25.8245 30.7842 24.7928 32.8857 24.3748C34.9871 23.9568 37.1654 24.1713 39.1449 24.9912C41.1244 25.8112 42.8164 27.1997 44.0067 28.9813C45.1971 30.7628 45.8325 32.8573 45.8325 34.9999C45.8292 37.8721 44.6868 40.6257 42.6558 42.6566C40.6249 44.6875 37.8713 45.83 34.9992 45.8333ZM34.9992 25.8333C33.1862 25.8333 31.4139 26.3709 29.9064 27.3781C28.399 28.3854 27.2241 29.817 26.5303 31.492C25.8365 33.167 25.6549 35.0101 26.0086 36.7883C26.3623 38.5664 27.2354 40.1998 28.5173 41.4817C29.7993 42.7637 31.4327 43.6368 33.2108 43.9905C34.989 44.3442 36.8321 44.1626 38.5071 43.4688C40.1821 42.775 41.6137 41.6001 42.621 40.0927C43.6282 38.5852 44.1658 36.8129 44.1658 34.9999C44.163 32.5697 43.1963 30.2397 41.4778 28.5213C39.7593 26.8028 37.4294 25.8361 34.9992 25.8333Z" fill="#068BB6"/>
<path d="M38.3324 39.1667C38.1114 39.1666 37.8995 39.0788 37.7433 38.9225L34.4099 35.5892C34.2536 35.4329 34.1658 35.221 34.1658 35V30.8333C34.1658 30.6123 34.2536 30.4004 34.4098 30.2441C34.5661 30.0878 34.7781 30 34.9991 30C35.2201 30 35.4321 30.0878 35.5884 30.2441C35.7446 30.4004 35.8324 30.6123 35.8324 30.8333V34.655L38.9216 37.7442C39.0381 37.8607 39.1175 38.0092 39.1496 38.1708C39.1817 38.3324 39.1652 38.5 39.1022 38.6522C39.0391 38.8045 38.9323 38.9346 38.7953 39.0262C38.6583 39.1177 38.4972 39.1666 38.3324 39.1667Z" fill="#068BB6"/>
</svg>
