<svg width="70" height="70" viewBox="0 0 70 70" fill="none" xmlns="http://www.w3.org/2000/svg">
<rect width="70" height="70" fill="#8B13D4" fill-opacity="0.2"/>
<path fill-rule="evenodd" clip-rule="evenodd" d="M34.999 41.6817C31.3153 41.6817 28.3181 38.684 28.3181 34.9998C28.3181 31.316 31.3153 28.3186 34.999 28.3186C38.6836 28.3186 41.68 31.316 41.68 34.9998C41.68 38.684 38.6836 41.6817 34.999 41.6817ZM34.999 27.2541C30.7282 27.2541 27.2533 30.7292 27.2533 34.9997C27.2533 39.2709 30.7282 42.746 34.999 42.746C39.2703 42.746 42.7443 39.2709 42.7443 34.9997C42.7443 30.7292 39.2703 27.2541 34.999 27.2541ZM39.3807 32.1691C39.3345 32.1166 39.2784 32.0737 39.2156 32.0429C39.1528 32.0121 39.0846 31.994 39.0148 31.9896C38.945 31.9852 38.8751 31.9946 38.8089 32.0172C38.7428 32.0399 38.6817 32.0753 38.6293 32.1215L38.3797 32.3407C38.2436 32.3357 38.1107 32.383 38.0084 32.4727L33.2958 36.6198L31.4154 34.4974C31.221 34.2766 30.8839 34.2567 30.6644 34.4512C30.4444 34.6464 30.4237 34.9827 30.6186 35.2027L30.7147 35.3447L32.834 37.7375C32.8694 37.7771 32.9089 37.8099 32.9525 37.8367C33.0022 37.8918 33.0629 37.9359 33.1307 37.966C33.1985 37.996 33.2719 38.0115 33.3461 38.0114C33.4757 38.0116 33.6009 37.9644 33.6981 37.8787L39.3326 32.9207C39.4385 32.8273 39.503 32.6957 39.5121 32.5548C39.5211 32.4139 39.4738 32.2752 39.3807 32.1691ZM45.0337 39.3625C45.1454 38.9759 45.3905 38.6344 45.7505 38.3959C48.178 36.7862 48.1785 33.2143 45.7505 31.6043C45.3905 31.3658 45.1454 31.0243 45.0337 30.6377H51.1436L48.9507 34.7499C48.9098 34.8269 48.8884 34.9129 48.8884 35.0001C48.8884 35.0874 48.9098 35.1733 48.9507 35.2503L51.1436 39.3625H45.0337ZM43.1375 43.1391C43.853 42.4239 44.1601 41.4048 43.9594 40.4121C43.7278 39.2674 44.1888 38.1547 45.1616 37.509C46.9561 36.3181 46.9565 33.6823 45.1616 32.4911C44.1889 31.8455 43.7278 30.7335 43.9594 29.588C44.3863 27.4767 42.5215 25.6133 40.4105 26.04C39.2657 26.2713 38.1538 25.8108 37.5083 24.8379C36.3172 23.0434 33.6818 23.043 32.4905 24.8379C31.8445 25.8109 30.7317 26.2714 29.5875 26.04C27.4769 25.6134 25.6121 27.4776 26.0389 29.588C26.2705 30.7327 25.81 31.8455 24.8373 32.4911C23.0409 33.6825 23.0413 36.3179 24.8373 37.509C25.8101 38.1547 26.2706 39.2674 26.0389 40.4121C25.6123 42.5218 27.4773 44.3879 29.5875 43.9601C30.7122 43.7321 31.8341 44.1735 32.4905 45.1623C33.6827 46.9581 36.3178 46.9559 37.5083 45.1623C38.1538 44.1893 39.2666 43.7288 40.4113 43.9601C41.4043 44.1609 42.4229 43.8537 43.1375 43.1391ZM21.0468 35.2503C21.0881 35.1734 21.1097 35.0874 21.1097 35.0001C21.1097 34.9128 21.0881 34.8268 21.0468 34.7499L18.8548 30.6377H24.9648C24.8534 31.0243 24.6079 31.3658 24.2483 31.6043C21.8201 33.2152 21.8177 36.7824 24.2483 38.3959C24.6074 38.6344 24.8534 38.9759 24.9648 39.3625H18.8548L21.0468 35.2503ZM50.0236 34.9998L52.4997 30.3559C52.688 30.0032 52.4324 29.5731 52.0302 29.5731H45.0409C45.445 26.7906 42.9644 24.4376 40.2 24.9968C39.488 25.1408 38.7967 24.8541 38.3954 24.2488C36.7861 21.8227 33.2165 21.8187 31.6036 24.2488C31.2018 24.8541 30.5101 25.1408 29.7981 24.9968C27.0337 24.4375 24.5542 26.7915 24.9572 29.5731H17.9678C17.567 29.5731 17.31 30.0024 17.4987 30.3559L19.9749 34.9998L17.4987 39.6443C17.3098 39.9983 17.5675 40.4271 17.9678 40.4271H24.9576C24.5534 43.2101 27.0337 45.5617 29.7981 45.0034C30.5105 44.8594 31.2017 45.1459 31.6035 45.7512C33.2164 48.1815 36.786 48.1777 38.3953 45.7512C38.7966 45.1459 39.488 44.8599 40.1999 45.0034C42.9649 45.5617 45.445 43.2101 45.0408 40.4271H52.0301C52.4313 40.4271 52.6881 39.9974 52.4997 39.6443L50.0236 34.9998Z" fill="#8B13D4"/>
</svg>
