<svg width="41" height="40" viewBox="0 0 41 40" fill="none" xmlns="http://www.w3.org/2000/svg">
<path d="M34.7805 29.1922C34.3229 28.7345 33.5813 28.7345 33.1236 29.1922L32.2951 30.0206L28.4108 26.1363C29.0264 24.8321 28.8272 23.2388 27.75 22.1616C27.1619 21.5735 26.838 20.7919 26.838 19.96C26.838 19.1281 27.1619 18.3465 27.75 17.7583C28.8272 16.6812 29.0264 15.0098 28.4108 13.7055L32.2951 9.82124L33.1236 10.6497C33.5812 11.1073 34.3228 11.1073 34.7805 10.6497C35.2382 10.192 35.2382 9.45045 34.7805 8.99272L31.4666 5.67881C31.0089 5.22116 30.2674 5.22116 29.8096 5.67881C29.352 6.13647 29.352 6.87803 29.8096 7.33577L30.6381 8.1642L26.7538 12.0485C25.4496 11.4331 23.8562 11.6324 22.7791 12.7094C21.6028 13.8857 19.474 13.8857 18.2978 12.7094C17.2205 11.6321 15.5492 11.433 14.245 12.0486L10.3607 8.16428L11.1891 7.33584C11.6468 6.87819 11.6468 6.13663 11.1891 5.67889C10.7314 5.22124 9.98988 5.22124 9.53215 5.67889L6.21824 8.9928C5.76059 9.45045 5.76059 10.192 6.21824 10.6498C6.6759 11.1074 7.41754 11.1074 7.8752 10.6498L8.70363 9.82131L12.5879 13.7056C11.9725 15.0098 12.1717 16.6814 13.2487 17.7584C13.8368 18.3465 14.1607 19.1281 14.1607 19.9601C14.1607 20.7919 13.8368 21.5735 13.2487 22.1617C12.1714 23.239 11.9723 24.8323 12.5879 26.1364L8.70363 30.0207L7.8752 29.1923C7.41754 28.7346 6.67598 28.7346 6.21824 29.1923C5.76059 29.6499 5.76059 30.3915 6.21824 30.8492L9.53215 34.1631C9.98981 34.6208 10.7314 34.6208 11.1891 34.1631C11.6468 33.7055 11.6468 32.9639 11.1891 32.5062L10.3607 31.6777L14.2536 27.7848C15.5549 28.3691 17.2604 28.1701 18.2978 27.1326C19.5107 25.9197 21.5662 25.9197 22.7791 27.1326C23.7845 28.138 25.3425 28.4919 26.7708 27.8104L30.6381 31.6776L29.8096 32.5061C29.352 32.9637 29.352 33.7053 29.8096 34.163C30.2673 34.6207 31.0089 34.6207 31.4666 34.163L34.7805 30.8491C35.2382 30.3914 35.2382 29.6498 34.7805 29.1922Z" fill="#7B6767"/>
<path d="M38.0949 2.36498C34.9939 -0.736113 29.5905 -0.733769 26.4963 2.36498C24.7117 4.14826 23.7818 6.64865 24.218 9.44045C24.5607 9.37896 24.9094 9.33834 25.265 9.33834C25.7247 9.33834 26.1712 9.40631 26.6077 9.50842C26.1125 7.39811 26.7705 5.40467 28.1532 4.02193C30.4431 1.73209 34.148 1.73209 36.4379 4.02193C38.7278 6.31178 38.7278 10.0167 36.4379 12.3066C34.9958 13.7487 32.8597 14.2337 30.9309 13.7965C31.1275 14.5994 31.1667 15.4307 31.0203 16.242C33.8123 16.6776 36.3116 15.7481 38.0949 13.9636C41.3021 10.7587 41.301 5.57123 38.0949 2.36498ZM38.0949 25.8782C36.2368 24.0189 33.5502 23.2983 31.027 23.6703C31.1564 24.4412 31.1261 25.2281 30.947 25.9909C33.0752 25.4897 35.0671 26.1643 36.4379 27.5351C38.7278 29.825 38.7278 33.5299 36.4379 35.8198C34.2249 38.0329 30.3663 38.0329 28.1532 35.8198C26.7648 34.4314 26.1146 32.4372 26.6071 30.3354C26.1707 30.4376 25.7243 30.5058 25.265 30.5058C24.9094 30.5058 24.5607 30.4651 24.2178 30.4033C23.7829 33.1954 24.7117 35.6936 26.4963 37.4768C29.8053 40.7882 34.7846 40.7871 38.0949 37.4768C41.3009 34.2708 41.3024 29.0833 38.0949 25.8782ZM16.7787 30.3698C16.4358 30.4304 16.0877 30.4714 15.7348 30.4714C15.2742 30.4714 14.8234 30.4029 14.3821 30.3004C14.8938 32.4231 14.2394 34.4271 12.8467 35.8198C10.6336 38.0329 6.77503 38.0329 4.56198 35.8198C2.27214 33.53 2.27214 29.8251 4.56198 27.5351C5.93558 26.1615 7.92925 25.4903 10.053 25.9911C9.87394 25.2281 9.84347 24.4408 9.973 23.6696C7.4494 23.2971 4.76276 24.0183 2.90495 25.8782C-0.30208 29.0828 -0.301221 34.2729 2.90495 37.4768C6.2137 40.788 11.1956 40.7872 14.5035 37.4768C16.2889 35.6927 17.2281 33.1744 16.7787 30.3698ZM14.5036 2.3649C11.4071 -0.733847 6.00151 -0.733847 2.90503 2.3649C-0.302002 5.56951 -0.301143 10.7596 2.90503 13.9635C4.68823 15.748 7.18714 16.6776 9.97972 16.2418C9.83323 15.4305 9.87245 14.5993 10.069 13.7964C8.14011 14.2337 6.00401 13.7486 4.56198 12.3065C2.27214 10.0167 2.27214 6.31178 4.56198 4.02186C6.85183 1.73193 10.5567 1.73201 12.8467 4.02186C14.2294 5.40459 14.8874 7.39795 14.3922 9.50834C14.8287 9.40623 15.2752 9.33826 15.7349 9.33826C16.0905 9.33826 16.4392 9.37889 16.7819 9.44037C17.218 6.64857 16.2881 4.14818 14.5036 2.3649Z" fill="#7B6767"/>
</svg>
