<svg width="70" height="70" viewBox="0 0 70 70" fill="none" xmlns="http://www.w3.org/2000/svg">
<rect width="70" height="70" rx="10" fill="#FFEBE4"/>
<path d="M42.4632 46.5225C41.5977 45.9917 40.7141 45.4674 39.8234 44.9488L39.8205 44.9471C38.2584 44.0375 36.6738 43.1466 35.1173 42.2737V41.4098C35.1902 41.3216 35.2616 41.2322 35.3315 41.1416C36.1441 40.0834 36.7551 38.8596 37.1405 37.5464C38.508 37.0547 39.5381 35.6294 39.5381 34.1578C39.5381 33.3977 39.2594 32.7266 38.7531 32.268C38.5233 32.0602 38.2527 31.9025 37.9586 31.8051C38.4986 30.4716 38.8021 29.1261 38.8021 27.9245C38.8021 23.4034 34.9325 19.7251 30.1761 19.7251C25.4197 19.7251 21.55 23.4034 21.55 27.9246C21.55 29.1256 21.8538 30.4711 22.3944 31.8048C22.0923 31.9052 21.8151 32.0692 21.5816 32.2856C21.088 32.7434 20.8162 33.4082 20.8162 34.1578C20.8162 35.6292 21.8462 37.0545 23.2134 37.5463C23.5987 38.8595 24.2095 40.0834 25.0216 41.1415C25.0966 41.2391 25.173 41.3341 25.2502 41.4273V42.2649C22.7903 43.6462 20.254 45.0727 17.8916 46.5222C16.9787 47.0807 16.4551 48.0146 16.4551 49.0846V54.111C16.4551 54.2555 16.5125 54.3941 16.6147 54.4963C16.7168 54.5985 16.8554 54.6559 16.9999 54.6559C17.1444 54.6559 17.283 54.5985 17.3852 54.4963C17.4874 54.3941 17.5448 54.2555 17.5448 54.111V49.0846C17.5448 48.3927 17.8698 47.8128 18.4608 47.4514C19.0465 47.092 19.6437 46.7338 20.2481 46.377V54.111C20.2481 54.2555 20.3055 54.3941 20.4077 54.4963C20.5099 54.5985 20.6485 54.6559 20.793 54.6559C20.9375 54.6559 21.0761 54.5985 21.1782 54.4963C21.2804 54.3941 21.3378 54.2555 21.3378 54.111V45.7397C22.0754 45.3124 22.8151 44.8889 23.557 44.4692V50.612C23.557 50.7565 23.6144 50.8951 23.7166 50.9973C23.8188 51.0995 23.9574 51.1569 24.1019 51.1569H36.2524C36.3969 51.1569 36.5355 51.0995 36.6377 50.9973C36.7399 50.8951 36.7973 50.7565 36.7973 50.612V44.4698C37.5392 44.8893 38.279 45.3126 39.0165 45.7398V54.111C39.0165 54.412 39.2604 54.6559 39.5613 54.6559C39.8623 54.6559 40.1062 54.412 40.1062 54.111V46.3774C40.7085 46.7331 41.3058 47.0911 41.894 47.4518C42.4844 47.8129 42.8095 48.3928 42.8095 49.0846V54.111C42.8095 54.412 43.0534 54.6559 43.3543 54.6559C43.6552 54.6559 43.8991 54.412 43.8991 54.111V49.0846C43.8993 48.0146 43.3756 47.0806 42.4632 46.5225ZM26.3399 42.5778V42.5369C27.5227 43.5414 28.8605 44.0946 30.176 44.0946C31.497 44.0946 32.8408 43.5368 34.0276 42.5243V42.5927C34.0276 44.7128 32.3027 46.4377 30.1827 46.4377C28.0637 46.4377 26.3399 44.7128 26.3399 42.5927V42.5778ZM23.0803 30.4859C25.0057 29.2105 27.5081 28.5115 30.176 28.5115C32.8448 28.5115 35.3474 29.2102 37.2727 30.4851C36.8014 31.9751 35.9776 33.5229 34.9309 34.8232C33.5188 33.9345 31.8855 33.4672 30.176 33.4672C28.4678 33.4672 26.8352 33.9345 25.4234 34.8232C24.3764 33.5226 23.5521 31.9751 23.0803 30.4859ZM38.4484 34.1579C38.4484 34.8867 38.0456 35.6361 37.4649 36.117C37.5679 35.4816 37.6196 34.8391 37.6195 34.1955C37.6195 33.8465 37.6148 33.35 37.5796 32.8266C37.7437 32.8756 37.8947 32.9607 38.0215 33.0758C38.2969 33.3251 38.4484 33.7094 38.4484 34.1579ZM30.1761 20.8148C34.3316 20.8148 37.7124 24.0042 37.7124 27.9246C37.7124 28.383 37.6597 28.871 37.5597 29.3755C35.5041 28.1113 32.9152 27.4217 30.1761 27.4217C27.4376 27.4217 24.8487 28.1116 22.793 29.3766C22.6927 28.8716 22.6398 28.3833 22.6398 27.9246C22.6398 24.0043 26.0205 20.8148 30.1761 20.8148ZM21.9059 34.1579C21.9059 33.715 22.0538 33.3339 22.3226 33.0847C22.4455 32.9706 22.592 32.8849 22.7517 32.8338C22.7345 33.3471 22.7346 33.8027 22.7348 34.1244V34.1955C22.7348 34.8443 22.7873 35.4872 22.8893 36.1169C22.3087 35.6359 21.9059 34.8866 21.9059 34.1579ZM23.8304 34.4974C24.1605 34.9887 24.5207 35.4591 24.9088 35.9059C24.9977 36.008 25.1214 36.0734 25.2558 36.0893C25.3902 36.1052 25.5257 36.0705 25.6359 35.992C26.9539 35.0531 28.5238 34.5568 30.1761 34.5568C31.8298 34.5568 33.4005 35.053 34.7184 35.992C34.8106 36.0577 34.921 36.093 35.0342 36.093C35.187 36.093 35.3384 36.0289 35.4455 35.9059C35.8337 35.4589 36.1938 34.9883 36.5239 34.4969C36.4633 36.7073 35.7395 38.8209 34.4673 40.4778C33.234 42.0838 31.6699 43.0048 30.1761 43.0048C28.6824 43.0048 27.1187 42.0838 25.8861 40.4779C24.6145 38.8214 23.8911 36.7078 23.8304 34.4974ZM35.7076 50.0672H24.6467V43.8541L25.3298 43.47C25.7449 45.7738 27.7623 47.5274 30.1827 47.5274C32.6015 47.5274 34.6179 45.7776 35.0363 43.4777C35.2597 43.603 35.4834 43.7289 35.7076 43.8549V50.0672ZM50.5641 29.4327C50.481 29.3905 50.3885 29.3703 50.2954 29.374C50.2023 29.3778 50.1117 29.4053 50.0323 29.454C49.9529 29.5027 49.8873 29.571 49.8417 29.6523C49.7962 29.7336 49.7723 29.8252 49.7723 29.9184V32.1354C49.7723 32.9391 49.1183 33.5931 48.3145 33.5931C47.5107 33.5931 46.8567 32.9391 46.8567 32.1354V29.9184C46.8567 29.8252 46.8328 29.7335 46.7873 29.6522C46.7418 29.5709 46.6762 29.5026 46.5968 29.4539C46.5173 29.4052 46.4267 29.3776 46.3336 29.3739C46.2405 29.3702 46.148 29.3904 46.0649 29.4327C44.3855 30.2866 43.3423 31.9862 43.3423 33.8683C43.3423 35.4365 44.0766 36.8988 45.3205 37.8367V51.967C45.3205 53.6179 46.6636 54.9609 48.3145 54.9609C49.9666 54.9609 51.3106 53.6179 51.3106 51.967V37.8364C51.925 37.3734 52.4233 36.7739 52.7663 36.0852C53.1092 35.3965 53.2874 34.6376 53.2867 33.8683C53.2867 31.9863 52.2434 30.2866 50.5641 29.4327ZM50.4638 37.1018C50.3891 37.1515 50.3278 37.219 50.2855 37.2981C50.2431 37.3772 50.2209 37.4655 50.2209 37.5552V51.9669C50.2209 53.0169 49.3657 53.8712 48.3145 53.8712C47.2645 53.8712 46.4102 53.017 46.4102 51.9669V37.5553C46.4102 37.4655 46.388 37.3771 46.3456 37.2979C46.3032 37.2188 46.2418 37.1514 46.167 37.1016C45.0806 36.3793 44.432 35.1705 44.432 33.8684C44.432 32.7226 44.9272 31.6634 45.767 30.936V32.1355C45.767 33.5402 46.9098 34.6829 48.3145 34.6829C49.7192 34.6829 50.862 33.5401 50.862 32.1355V30.9359C51.7018 31.6634 52.197 32.7226 52.197 33.8683C52.197 35.1702 51.5491 36.3789 50.4638 37.1018ZM53.2577 23.3116L52.1342 22.419C52.1442 22.2713 52.1484 22.1238 52.1466 21.9769L53.315 21.1422C53.4132 21.072 53.4854 20.9713 53.5201 20.8557C53.5548 20.7401 53.5502 20.6163 53.507 20.5036L52.751 18.5342C52.7078 18.4217 52.6285 18.3267 52.5255 18.264C52.4225 18.2014 52.3017 18.1746 52.1819 18.188L50.752 18.3477C50.6556 18.2374 50.5548 18.1309 50.4499 18.0286L50.6865 16.611C50.7064 16.4919 50.6861 16.3695 50.6289 16.2632C50.5717 16.1568 50.4808 16.0725 50.3704 16.0234L48.4408 15.1657C48.3305 15.1167 48.2071 15.1056 48.0899 15.1343C47.9726 15.163 47.8683 15.2299 47.7931 15.3243L46.8995 16.4473C46.7526 16.4377 46.6054 16.4338 46.4582 16.4357L45.6235 15.2673C45.5534 15.169 45.4526 15.0969 45.337 15.0621C45.2214 15.0274 45.0976 15.032 44.9849 15.0753L43.0155 15.8313C42.9029 15.8745 42.8079 15.9538 42.7452 16.0568C42.6825 16.1599 42.6558 16.2807 42.6692 16.4005L42.8289 17.8284C42.7188 17.925 42.6125 18.0258 42.5103 18.1306L41.0916 17.8957C40.9726 17.876 40.8504 17.8964 40.7442 17.9535C40.638 18.0107 40.5538 18.1015 40.5048 18.2117L39.6472 20.1391C39.5981 20.2493 39.587 20.3727 39.6157 20.4899C39.6443 20.6071 39.711 20.7115 39.8053 20.7866L40.9278 21.6817C40.9183 21.8285 40.9146 21.9756 40.9168 22.1227L39.7483 22.9591C39.6502 23.0293 39.5782 23.1301 39.5436 23.2456C39.5089 23.3611 39.5136 23.4848 39.5568 23.5974L40.3127 25.5669C40.3561 25.6795 40.4356 25.7745 40.5387 25.8371C40.6418 25.8998 40.7628 25.9265 40.8827 25.913L42.3095 25.7517C42.4062 25.862 42.5072 25.9686 42.6122 26.0711L42.3771 27.4884C42.3574 27.6074 42.3777 27.7295 42.4348 27.8356C42.4919 27.9418 42.5826 28.026 42.6927 28.0752L44.6202 28.935C44.7305 28.9843 44.854 28.9954 44.9714 28.9668C45.0887 28.9382 45.1932 28.8713 45.2684 28.7768L46.1635 27.6525C46.308 27.662 46.4548 27.6661 46.6027 27.6642L47.438 28.8338C47.5082 28.9319 47.6089 29.0041 47.7244 29.0388C47.84 29.0736 47.9638 29.069 48.0764 29.0258L50.048 28.2698C50.1608 28.2266 50.256 28.1472 50.3187 28.044C50.3814 27.9409 50.408 27.8198 50.3945 27.6998L50.233 26.272C50.3435 26.175 50.4502 26.0738 50.553 25.9686L51.9693 26.2052C52.0884 26.2251 52.2106 26.2049 52.317 26.1478C52.4233 26.0907 52.5077 25.9999 52.5568 25.8896L53.4166 23.9599C53.4657 23.8495 53.4767 23.7259 53.4479 23.6086C53.4192 23.4912 53.3522 23.3868 53.2577 23.3116ZM51.7328 25.0609L50.4422 24.8453C50.3504 24.83 50.2563 24.8384 50.1687 24.8698C50.0811 24.9011 50.003 24.9544 49.9419 25.0245C49.7537 25.2396 49.5459 25.4368 49.3213 25.6134C49.2484 25.6709 49.1913 25.7459 49.1556 25.8316C49.1198 25.9172 49.1065 26.0105 49.117 26.1027L49.2641 27.4034L48.0796 27.8575L47.3188 26.7924C47.265 26.7172 47.193 26.6568 47.1094 26.6171C47.0259 26.5774 46.9336 26.5596 46.8413 26.5654C46.5488 26.5839 46.2615 26.5759 45.9877 26.542C45.8951 26.5306 45.8011 26.5432 45.7148 26.5784C45.6284 26.6137 45.5525 26.6705 45.4943 26.7434L44.6785 27.7681L43.5208 27.2516L43.7349 25.9605C43.75 25.8693 43.7417 25.7757 43.7107 25.6886C43.6796 25.6014 43.6269 25.5236 43.5575 25.4625C43.3378 25.2689 43.1403 25.0604 42.9708 24.8426C42.9135 24.769 42.8382 24.7113 42.7522 24.6751C42.6662 24.6389 42.5724 24.6255 42.4797 24.6359L41.1788 24.783L40.7249 23.6003L41.7905 22.8375C41.8661 22.7833 41.9267 22.7107 41.9663 22.6265C42.0059 22.5423 42.0233 22.4493 42.0169 22.3565C41.9967 22.0732 42.0039 21.7886 42.0384 21.5066C42.0498 21.4141 42.0374 21.3202 42.0022 21.2339C41.967 21.1476 41.9102 21.0717 41.8373 21.0136L40.814 20.1973L41.3291 19.0396L42.6222 19.2537C42.7139 19.2689 42.808 19.2604 42.8954 19.2289C42.9829 19.1975 43.0609 19.1442 43.122 19.0741C43.3091 18.8599 43.5159 18.6637 43.7397 18.4881C43.8126 18.4308 43.8697 18.3558 43.9056 18.2702C43.9414 18.1847 43.9548 18.0913 43.9445 17.9991L43.799 16.6979L44.9819 16.2438L45.7425 17.3088C45.7968 17.3844 45.8695 17.4449 45.9537 17.4846C46.038 17.5243 46.1309 17.5419 46.2238 17.5356C46.5017 17.516 46.7895 17.5235 47.0794 17.5576C47.1715 17.5685 47.2648 17.5556 47.3505 17.5203C47.4363 17.485 47.5115 17.4283 47.5692 17.3557L48.3833 16.3328L49.5421 16.8479L49.3265 18.1402C49.3111 18.2324 49.3197 18.327 49.3514 18.415C49.3832 18.5029 49.437 18.5812 49.5077 18.6423C49.7145 18.8209 49.911 19.0281 50.092 19.2584C50.1492 19.3314 50.2242 19.3885 50.3098 19.4244C50.3953 19.4603 50.4887 19.4737 50.5809 19.4633L51.8845 19.3177L52.3384 20.5005L51.2735 21.2613C51.1977 21.3154 51.137 21.3881 51.0973 21.4724C51.0576 21.5567 51.0401 21.6498 51.0466 21.7427C51.0663 22.0228 51.0584 22.3095 51.023 22.5945C51.0115 22.6872 51.024 22.7813 51.0593 22.8677C51.0947 22.9542 51.1516 23.0301 51.2248 23.0882L52.2491 23.902L51.7328 25.0609ZM47.7274 19.3679C47.0115 19.0481 46.2138 19.0266 45.4812 19.3071C44.748 19.5881 44.1684 20.1379 43.8495 20.8545C43.5295 21.5706 43.5077 22.3684 43.7884 23.101C44.0695 23.8343 44.6192 24.4139 45.3366 24.7332C45.7115 24.9006 46.1173 24.9871 46.5278 24.9872C47.653 24.9871 48.7287 24.3377 49.2147 23.2457C49.8732 21.7658 49.2061 20.0262 47.7274 19.3679ZM48.219 22.8027C47.805 23.7327 46.7108 24.1523 45.7796 23.7377C45.3284 23.537 44.9827 23.1724 44.8059 22.7113C44.6295 22.2508 44.6431 21.7493 44.8446 21.2984C45.0454 20.8473 45.4098 20.5016 45.871 20.3248C46.0818 20.2436 46.3058 20.2019 46.5317 20.2016C46.7874 20.2016 47.0427 20.2556 47.2832 20.3631L47.2839 20.3634C48.2139 20.7773 48.6334 21.8716 48.219 22.8027ZM48.8594 43.1962V47.6898C48.8594 47.9908 48.6155 48.2347 48.3145 48.2347C48.0136 48.2347 47.7697 47.9908 47.7697 47.6898V43.1962C47.7697 42.8952 48.0136 42.6513 48.3145 42.6513C48.6155 42.6513 48.8594 42.8952 48.8594 43.1962Z" fill="#F15523"/>
</svg>
