<svg width="40" height="41" viewBox="0 0 40 41" fill="none" xmlns="http://www.w3.org/2000/svg">
<g clip-path="url(#clip0_806_1588)">
<path d="M30.5527 7.14062C28.7219 7.14062 27.2324 8.63008 27.2324 10.4609C27.2324 12.2918 28.7219 13.7812 30.5527 13.7812C31.1112 13.7818 31.6606 13.6407 32.1496 13.371L31.443 12.6645C31.0616 12.283 31.0616 11.6648 31.443 11.2834C31.8245 10.902 32.4427 10.902 32.8241 11.2834L33.5095 11.9688C33.7488 11.5022 33.8735 10.9853 33.8731 10.461C33.873 8.63008 32.3836 7.14062 30.5527 7.14062ZM19.1797 11.6711H21.5354L20.363 8.56437L19.1797 11.6711Z" fill="#2D4B6E"/>
<path d="M36.2891 0.5H9.72656C7.67703 0.5 6.01562 2.16141 6.01562 4.21094V16.7109C6.01562 18.7605 7.67703 20.4219 9.72656 20.4219H13.0469V24.6713C13.0469 25.7154 14.3091 26.2382 15.0474 25.5L20.1255 20.4219H36.2891C38.3386 20.4219 40 18.7605 40 16.7109V4.21094C40 2.16141 38.3386 0.5 36.2891 0.5ZM14.7298 11.3561H12.5V14.7578C12.5 15.2971 12.0627 15.7344 11.5234 15.7344C10.9841 15.7344 10.5469 15.2971 10.5469 14.7578V6.16406C10.5469 5.62477 10.9841 5.1875 11.5234 5.1875H15.0065C15.5458 5.1875 15.983 5.62477 15.983 6.16406C15.983 6.70336 15.5458 7.14062 15.0065 7.14062H12.5V9.40297H14.7298C15.2692 9.40297 15.7064 9.84023 15.7064 10.3795C15.7064 10.9188 15.2692 11.3561 14.7298 11.3561ZM24.0888 15.6715C23.9787 15.7132 23.8619 15.7346 23.7441 15.7346C23.3495 15.7347 22.9779 15.4937 22.8303 15.1026L22.2724 13.6242H18.4358L17.8716 15.1054C17.6796 15.6094 17.1155 15.8623 16.6114 15.6704C16.1074 15.4784 15.8545 14.9141 16.0464 14.4102L19.2734 5.9375L19.2821 5.91531C19.3696 5.69992 19.5195 5.51557 19.7125 5.3859C19.9054 5.25623 20.1327 5.18714 20.3652 5.1875H20.3663C20.6035 5.18696 20.8352 5.25869 21.0306 5.39312C21.2259 5.52755 21.3757 5.71831 21.46 5.94L24.6577 14.413C24.8481 14.9176 24.5934 15.4811 24.0888 15.6715ZM35.5734 15.4137C35.192 15.7951 34.5737 15.7951 34.1923 15.4137L33.5646 14.786C32.71 15.383 31.672 15.7345 30.5527 15.7345C27.6449 15.7345 25.2793 13.3688 25.2793 10.461C25.2793 7.5532 27.6449 5.18758 30.5527 5.18758C33.4605 5.18758 35.8262 7.5532 35.8262 10.461C35.8273 11.5054 35.5165 12.5263 34.9336 13.3929L35.5733 14.0326C35.9547 14.4139 35.9547 15.0323 35.5734 15.4137Z" fill="#2D4B6E"/>
<path d="M16.7047 27.1571C16.0391 27.8227 15.1593 28.1893 14.2273 28.1893C12.2841 28.1893 10.7032 26.6111 10.7032 24.6713V22.7655H9.72664C6.38797 22.7655 3.67188 20.0493 3.67188 16.7108V15.1553C1.64047 15.1764 0 16.8289 0 18.8652V31.3652C0 33.4147 1.66141 35.0761 3.71094 35.0761H5.46875V39.3256C5.46875 40.3696 6.73102 40.8925 7.4693 40.1543L12.5474 35.0761H28.7109C30.7605 35.0761 32.4219 33.4147 32.4219 31.3652V22.7655H21.0963L16.7047 27.1571Z" fill="#2D4B6E"/>
</g>
<defs>
<clipPath id="clip0_806_1588">
<rect width="40" height="40" fill="white" transform="translate(0 0.5)"/>
</clipPath>
</defs>
</svg>
