<svg width="70" height="70" viewBox="0 0 70 70" fill="none" xmlns="http://www.w3.org/2000/svg">
<rect width="70" height="70" rx="10" fill="#DCFEDE"/>
<path d="M33.7284 51.0969C32.4563 53.3789 30.1369 54.8086 27.5241 54.9212C27.4143 54.926 27.3052 54.9016 27.2078 54.8506C27.1105 54.7996 27.0284 54.7237 26.9698 54.6307C26.9113 54.5377 26.8784 54.4308 26.8744 54.321C26.8705 54.2112 26.8957 54.1023 26.9474 54.0053L29.1273 49.9198L27.3834 47.1202L24.088 47.2325L21.9079 51.3184C21.8561 51.4153 21.7796 51.4969 21.6862 51.5548C21.5927 51.6127 21.4856 51.6448 21.3757 51.648C21.2658 51.6512 21.157 51.6252 21.0604 51.5727C20.9637 51.5202 20.8828 51.443 20.8257 51.349C19.4561 49.0986 19.3741 46.2602 20.612 43.9416C21.793 41.7273 24.0349 40.2472 26.523 40.0152L33.932 26.125C32.7363 23.9294 32.7148 21.2429 33.8961 19.028C35.1344 16.7061 37.5384 15.1929 40.1698 15.0788C40.2796 15.0741 40.3887 15.0985 40.486 15.1495C40.5833 15.2005 40.6654 15.2764 40.724 15.3694C40.7825 15.4624 40.8155 15.5692 40.8194 15.679C40.8234 15.7889 40.7983 15.8978 40.7466 15.9948L38.5667 20.0801L40.3105 22.8797L43.6059 22.7674L45.7861 18.6815C45.8379 18.5845 45.9143 18.5029 46.0078 18.445C46.1013 18.3871 46.2084 18.355 46.3183 18.3519C46.4283 18.3483 46.5372 18.3741 46.6339 18.4267C46.7306 18.4792 46.8115 18.5566 46.8683 18.6509C48.2378 20.9014 48.3198 23.7398 47.082 26.0583C45.9009 28.2726 43.6589 29.7527 41.1708 29.9848L40.5192 31.2048C40.4413 31.3506 40.3087 31.4595 40.1506 31.5075C39.9925 31.5555 39.8217 31.5388 39.6759 31.4609C39.6037 31.4224 39.5399 31.37 39.4879 31.3067C39.436 31.2435 39.397 31.1706 39.3732 31.0923C39.3494 31.014 39.3413 30.9318 39.3493 30.8504C39.3573 30.7689 39.3813 30.6898 39.4198 30.6177L40.2339 29.0934C40.2849 28.998 40.3598 28.9175 40.4514 28.8598C40.5429 28.8021 40.6479 28.7692 40.756 28.7644C42.9483 28.6673 44.9509 27.4055 45.9825 25.4716C46.8298 23.8844 46.9346 22.0045 46.3118 20.3439L44.5364 23.6713C44.4849 23.7678 44.409 23.849 44.3162 23.9069C44.2234 23.9647 44.117 23.9971 44.0077 24.0008L39.993 24.1376C39.7723 24.1481 39.5604 24.0333 39.4427 23.844L37.3186 20.4341C37.2607 20.3412 37.2283 20.2347 37.2246 20.1253C37.2209 20.0159 37.2461 19.9075 37.2976 19.8109L39.0733 16.4831C37.3473 16.8899 35.8437 18.0247 34.9957 19.6145C33.9643 21.5485 34.0335 23.9144 35.1764 25.7889C35.2328 25.8814 35.2642 25.9871 35.2673 26.0954C35.2704 26.2037 35.2452 26.311 35.1942 26.4066L27.4602 40.9063C27.4092 41.0018 27.3342 41.0825 27.2427 41.1402C27.1511 41.1979 27.046 41.2308 26.9379 41.2356C24.7456 41.3327 22.743 42.5944 21.7114 44.5285C20.8641 46.1158 20.7592 47.9956 21.382 49.6561L23.1575 46.3287C23.209 46.2323 23.2849 46.151 23.3777 46.0932C23.4705 46.0354 23.5769 46.003 23.6862 45.9993L27.7009 45.8625C27.8104 45.8589 27.9188 45.8841 28.0154 45.9356C28.112 45.9872 28.1933 46.0632 28.2512 46.1561L30.3753 49.566C30.4332 49.6589 30.4657 49.7654 30.4693 49.8748C30.473 49.9841 30.4479 50.0926 30.3963 50.1891L28.6184 53.5212C30.3148 53.1305 31.7706 52.0491 32.6398 50.4902C32.7215 50.3482 32.8558 50.2441 33.0137 50.2004C33.1715 50.1567 33.3403 50.1769 33.4833 50.2566C33.6264 50.3364 33.7324 50.4693 33.7782 50.6265C33.8241 50.7838 33.8062 50.9528 33.7284 51.0969ZM50.2901 42.1484C50.2901 47.6177 45.8394 52.0674 40.3688 52.0674C34.8995 52.0674 30.4498 47.6177 30.4498 42.1484C30.4498 36.6778 34.8995 32.2271 40.3688 32.2271C45.8394 32.2271 50.2901 36.6778 50.2901 42.1484ZM49.0437 42.1484C49.0437 37.365 45.1521 33.4734 40.3688 33.4734C35.5866 33.4734 31.6961 37.365 31.6961 42.1484C31.6961 46.9305 35.5866 50.821 40.3688 50.821C45.1521 50.8211 49.0437 46.9305 49.0437 42.1484ZM42.8208 42.1484C42.8208 43.5003 41.7208 44.6002 40.3688 44.6002C39.9345 44.6006 39.508 44.4848 39.1335 44.2649L35.9453 47.4531C35.8237 47.5748 35.6642 47.6357 35.5047 47.6357C35.3452 47.6357 35.1857 47.5748 35.0641 47.4531C35.0062 47.3953 34.9603 47.3266 34.9289 47.251C34.8976 47.1754 34.8815 47.0943 34.8815 47.0125C34.8815 46.9307 34.8976 46.8496 34.9289 46.774C34.9603 46.6984 35.0062 46.6297 35.0641 46.5719L38.2523 43.3837C38.0324 43.0091 37.9166 42.5826 37.917 42.1484C37.917 41.0116 38.6946 40.0534 39.7457 39.7769V36.1173C39.7457 35.773 40.0247 35.4941 40.3689 35.4941C40.7131 35.4941 40.9921 35.773 40.9921 36.1173V39.7769C42.0431 40.0534 42.8208 41.0117 42.8208 42.1484ZM41.5744 42.1484C41.5744 41.4836 41.0335 40.9428 40.3688 40.9428C39.7041 40.9428 39.1633 41.4836 39.1633 42.1484C39.1633 42.8131 39.7041 43.3539 40.3688 43.3539C41.0335 43.3539 41.5744 42.8131 41.5744 42.1484ZM25.4699 26.7608H32.0834C32.4276 26.7608 32.7066 26.4818 32.7066 26.1376C32.7066 25.7934 32.4276 25.5144 32.0834 25.5144H25.4699C25.1257 25.5144 24.8467 25.7934 24.8467 26.1376C24.8467 26.4818 25.1257 26.7608 25.4699 26.7608ZM22.5515 30.1844H29.8641C30.2084 30.1844 30.4873 29.9055 30.4873 29.5612C30.4873 29.217 30.2084 28.938 29.8641 28.938H22.5515C22.2073 28.938 21.9283 29.217 21.9283 29.5612C21.9283 29.9055 22.2073 30.1844 22.5515 30.1844ZM25.4699 32.3617C25.1257 32.3617 24.8467 32.6407 24.8467 32.9849C24.8467 33.3291 25.1257 33.6081 25.4699 33.6081H28.7766C29.1209 33.6081 29.3998 33.3291 29.3998 32.9849C29.3998 32.6407 29.1209 32.3617 28.7766 32.3617H25.4699ZM20.3322 37.0339H26.9456C27.2898 37.0339 27.5688 36.7549 27.5688 36.4107C27.5688 36.0665 27.2898 35.7875 26.9456 35.7875H20.3322C20.2503 35.7875 20.1693 35.8036 20.0937 35.8349C20.0181 35.8662 19.9494 35.9121 19.8915 35.97C19.8336 36.0279 19.7877 36.0966 19.7564 36.1722C19.7251 36.2478 19.709 36.3289 19.709 36.4107C19.709 36.576 19.7747 36.7345 19.8915 36.8513C20.0084 36.9682 20.1669 37.0339 20.3322 37.0339Z" fill="#88C934"/>
</svg>
