<svg width="20" height="18" viewBox="0 0 20 18" fill="none" xmlns="http://www.w3.org/2000/svg">
<path d="M9.9995 17.8282C9.90921 17.8283 9.81979 17.8105 9.73637 17.7759C9.65296 17.7414 9.5772 17.6907 9.51344 17.6267L2.12832 10.2416C1.5777 9.69421 1.14112 9.04303 0.843852 8.32577C0.546585 7.6085 0.394536 6.8394 0.396503 6.06298C0.396503 4.48448 1.01182 3.00017 2.12832 1.88436C4.27744 -0.263391 7.68194 -0.408454 9.9995 1.44848C12.3171 -0.409141 15.7223 -0.264079 17.8707 1.88436C18.9872 3.00086 19.6025 4.48448 19.6025 6.06298C19.6025 7.64148 18.9872 9.1258 17.8707 10.2416L10.4856 17.6267C10.4218 17.6907 10.346 17.7414 10.2626 17.7759C10.1792 17.8105 10.0898 17.8283 9.9995 17.8282ZM6.30694 1.5303C5.71153 1.52931 5.12179 1.64589 4.57154 1.87336C4.02129 2.10082 3.52136 2.43468 3.10044 2.8558C2.24382 3.71242 1.7715 4.85092 1.7715 6.0623C1.7715 7.27367 2.24382 8.41217 3.10044 9.2688L9.9995 16.1679L16.8986 9.2688C17.7552 8.41217 18.2275 7.27367 18.2275 6.0623C18.2275 4.85092 17.7552 3.71242 16.8986 2.8558C16.0473 2.00691 14.8942 1.53021 13.6921 1.53021C12.4899 1.53021 11.3368 2.00691 10.4856 2.8558C10.4218 2.9197 10.346 2.97039 10.2626 3.00498C10.1792 3.03957 10.0898 3.05737 9.9995 3.05737C9.90921 3.05737 9.81981 3.03957 9.7364 3.00498C9.653 2.97039 9.57723 2.9197 9.51344 2.8558C9.09263 2.43453 8.59273 2.10056 8.04245 1.87309C7.49218 1.64562 6.90238 1.52912 6.30694 1.5303Z" fill="#2D4B6E"/>
</svg>
