<svg width="16" height="12" viewBox="0 0 16 12" fill="none" xmlns="http://www.w3.org/2000/svg">
<path d="M15.1374 5.52861L10.4707 0.861946C10.3449 0.740507 10.1765 0.673311 10.0017 0.67483C9.82695 0.676349 9.65974 0.746462 9.53614 0.870067C9.41253 0.993672 9.34242 1.16088 9.3409 1.33568C9.33938 1.51048 9.40658 1.67888 9.52802 1.80461L13.0567 5.33328H1.33268C1.15587 5.33328 0.986302 5.40352 0.861278 5.52854C0.736253 5.65357 0.666016 5.82313 0.666016 5.99995C0.666016 6.17676 0.736253 6.34633 0.861278 6.47135C0.986302 6.59637 1.15587 6.66661 1.33268 6.66661H13.0567L9.52802 10.1953C9.46434 10.2568 9.41355 10.3303 9.37861 10.4117C9.34368 10.493 9.32528 10.5805 9.32452 10.669C9.32375 10.7575 9.34061 10.8453 9.37414 10.9272C9.40766 11.0092 9.45716 11.0836 9.51975 11.1462C9.58235 11.2088 9.65678 11.2583 9.73871 11.2918C9.82064 11.3253 9.90843 11.3422 9.99695 11.3414C10.0855 11.3407 10.1729 11.3223 10.2543 11.2873C10.3356 11.2524 10.4092 11.2016 10.4707 11.1379L15.1374 6.47128C15.2623 6.34626 15.3325 6.17672 15.3325 5.99995C15.3325 5.82317 15.2623 5.65363 15.1374 5.52861Z" fill="white"/>
</svg>
