<svg width="70" height="70" viewBox="0 0 70 70" fill="none" xmlns="http://www.w3.org/2000/svg">
<rect width="70" height="70" rx="10" fill="#F5E4FF"/>
<path fill-rule="evenodd" clip-rule="evenodd" d="M34.999 41.6816C31.3153 41.6816 28.3181 38.6839 28.3181 34.9997C28.3181 31.3159 31.3153 28.3185 34.999 28.3185C38.6836 28.3185 41.68 31.3159 41.68 34.9997C41.68 38.6839 38.6836 41.6816 34.999 41.6816ZM34.999 27.254C30.7282 27.254 27.2533 30.7291 27.2533 34.9996C27.2533 39.2708 30.7282 42.7459 34.999 42.7459C39.2703 42.7459 42.7443 39.2708 42.7443 34.9996C42.7443 30.7291 39.2703 27.254 34.999 27.254ZM39.3807 32.1689C39.3345 32.1165 39.2784 32.0736 39.2156 32.0428C39.1528 32.012 39.0846 31.9939 39.0148 31.9895C38.945 31.9851 38.8751 31.9945 38.8089 32.0171C38.7428 32.0397 38.6817 32.0752 38.6293 32.1214L38.3797 32.3406C38.2436 32.3356 38.1107 32.3828 38.0084 32.4726L33.2958 36.6197L31.4154 34.4973C31.221 34.2765 30.8839 34.2566 30.6644 34.4511C30.4444 34.6463 30.4237 34.9826 30.6186 35.2025L30.7147 35.3445L32.834 37.7373C32.8694 37.777 32.9089 37.8098 32.9525 37.8366C33.0022 37.8917 33.0629 37.9358 33.1307 37.9658C33.1985 37.9959 33.2719 38.0114 33.3461 38.0113C33.4757 38.0115 33.6009 37.9643 33.6981 37.8785L39.3326 32.9205C39.4385 32.8272 39.503 32.6956 39.5121 32.5547C39.5211 32.4138 39.4738 32.2751 39.3807 32.1689ZM45.0337 39.3624C45.1454 38.9757 45.3905 38.6343 45.7505 38.3958C48.178 36.7861 48.1785 33.2141 45.7505 31.6041C45.3905 31.3657 45.1454 31.0242 45.0337 30.6376H51.1436L48.9507 34.7497C48.9098 34.8268 48.8884 34.9127 48.8884 35C48.8884 35.0872 48.9098 35.1732 48.9507 35.2502L51.1436 39.3624H45.0337ZM43.1375 43.139C43.853 42.4238 44.1601 41.4047 43.9594 40.412C43.7278 39.2673 44.1888 38.1545 45.1616 37.5089C46.9561 36.318 46.9565 33.6821 45.1616 32.491C44.1889 31.8454 43.7278 30.7333 43.9594 29.5879C44.3863 27.4765 42.5215 25.6132 40.4105 26.0399C39.2657 26.2712 38.1538 25.8107 37.5083 24.8377C36.3172 23.0433 33.6818 23.0429 32.4905 24.8377C31.8445 25.8108 30.7317 26.2713 29.5875 26.0399C27.4769 25.6133 25.6121 27.4775 26.0389 29.5879C26.2705 30.7326 25.81 31.8453 24.8373 32.491C23.0409 33.6824 23.0413 36.3177 24.8373 37.5089C25.8101 38.1545 26.2706 39.2673 26.0389 40.412C25.6123 42.5217 27.4773 44.3877 29.5875 43.96C30.7122 43.732 31.8341 44.1734 32.4905 45.1622C33.6827 46.958 36.3178 46.9558 37.5083 45.1622C38.1538 44.1892 39.2666 43.7287 40.4113 43.96C41.4043 44.1608 42.4229 43.8536 43.1375 43.139ZM21.0468 35.2502C21.0881 35.1733 21.1097 35.0873 21.1097 35C21.1097 34.9127 21.0881 34.8267 21.0468 34.7497L18.8548 30.6376H24.9648C24.8534 31.0242 24.6079 31.3657 24.2483 31.6041C21.8201 33.2151 21.8177 36.7823 24.2483 38.3958C24.6074 38.6343 24.8534 38.9757 24.9648 39.3624H18.8548L21.0468 35.2502ZM50.0236 34.9997L52.4997 30.3558C52.688 30.0031 52.4324 29.573 52.0302 29.573H45.0409C45.445 26.7905 42.9644 24.4375 40.2 24.9967C39.488 25.1407 38.7967 24.854 38.3954 24.2487C36.7861 21.8225 33.2165 21.8186 31.6036 24.2487C31.2018 24.854 30.5101 25.1407 29.7981 24.9967C27.0337 24.4374 24.5542 26.7913 24.9572 29.573H17.9678C17.567 29.573 17.31 30.0023 17.4987 30.3558L19.9749 34.9997L17.4987 39.6442C17.3098 39.9981 17.5675 40.4269 17.9678 40.4269H24.9576C24.5534 43.21 27.0337 45.5616 29.7981 45.0033C30.5105 44.8593 31.2017 45.1458 31.6035 45.7511C33.2164 48.1814 36.786 48.1776 38.3953 45.7511C38.7966 45.1457 39.488 44.8598 40.1999 45.0033C42.9649 45.5616 45.445 43.21 45.0408 40.4269H52.0301C52.4313 40.4269 52.6881 39.9973 52.4997 39.6442L50.0236 34.9997Z" fill="#8B13D4"/>
</svg>
