<svg width="16" height="12" viewBox="0 0 16 12" fill="none" xmlns="http://www.w3.org/2000/svg">
<path d="M10.3681 6.66406L9.02809 8.00863C8.48469 8.55394 7.52856 8.56569 6.97341 8.00863L5.63331 6.66406L0.820312 11.4927C0.999469 11.5755 1.197 11.625 1.407 11.625H14.5945C14.8045 11.625 15.002 11.5756 15.1811 11.4927L10.3681 6.66406Z" fill="white"/>
<path d="M14.5938 0.375H1.40625C1.19625 0.375 0.998719 0.424438 0.819625 0.507281L5.96266 5.66738C5.963 5.66772 5.96341 5.66778 5.96375 5.66813C5.96396 5.66835 5.9641 5.66863 5.96416 5.66894L7.63644 7.34675C7.81406 7.52438 8.186 7.52438 8.36362 7.34675L10.0356 5.66922C10.0356 5.66922 10.036 5.66847 10.0363 5.66813C10.0363 5.66813 10.0371 5.66772 10.0374 5.66738L15.1803 0.50725C15.0012 0.424375 14.8038 0.375 14.5938 0.375ZM0.149562 1.16287C0.056875 1.35031 0 1.55838 0 1.78125V10.2188C0 10.4416 0.0568125 10.6497 0.149531 10.8371L4.97087 6.00016L0.149562 1.16287ZM15.8504 1.16281L11.0292 6.00016L15.8504 10.8372C15.9431 10.6498 16 10.4417 16 10.2188V1.78125C16 1.55831 15.9431 1.35025 15.8504 1.16281Z" fill="white"/>
</svg>
