<svg width="17" height="14" viewBox="0 0 17 14" fill="none" xmlns="http://www.w3.org/2000/svg">
<path d="M8.49953 3.20387L2.79321 7.90813C2.79321 7.91477 2.79155 7.92454 2.78821 7.93785C2.78494 7.95106 2.7832 7.96065 2.7832 7.96747V12.731C2.7832 12.903 2.84608 13.0521 2.97181 13.1776C3.0975 13.3032 3.24635 13.3664 3.41837 13.3664H7.22912V9.55541H9.76998V13.3665H13.5807C13.7527 13.3665 13.9017 13.3035 14.0273 13.1776C14.153 13.0522 14.2161 12.9031 14.2161 12.731V7.96747C14.2161 7.94105 14.2125 7.9211 14.2061 7.90813L8.49953 3.20387Z" fill="#BED3CC"/>
<path d="M16.3896 6.83626L14.2163 5.03006V0.980957C14.2163 0.888391 14.1866 0.812266 14.1269 0.752687C14.0676 0.693178 13.9915 0.663423 13.8987 0.663423H11.9933C11.9007 0.663423 11.8246 0.693178 11.765 0.752687C11.7055 0.812266 11.6758 0.888425 11.6758 0.980957V2.91616L9.25431 0.891554C9.04283 0.719526 8.79138 0.63353 8.50023 0.63353C8.20911 0.63353 7.95769 0.719526 7.746 0.891554L0.610278 6.83626C0.54413 6.88909 0.507875 6.96021 0.501132 7.04955C0.494423 7.13881 0.517538 7.21678 0.570548 7.28289L1.18584 8.0173C1.23884 8.07681 1.30823 8.11321 1.39426 8.12652C1.47368 8.13319 1.55311 8.10997 1.63254 8.05707L8.50002 2.33062L15.3676 8.05703C15.4206 8.10319 15.49 8.12624 15.576 8.12624H15.6058C15.6917 8.11317 15.7609 8.07653 15.8142 8.01716L16.4296 7.28286C16.4825 7.2166 16.5057 7.13878 16.4988 7.04941C16.492 6.96032 16.4556 6.8892 16.3896 6.83626Z" fill="#BED3CC"/>
</svg>
