<svg width="36" height="36" viewBox="0 0 36 36" fill="none" xmlns="http://www.w3.org/2000/svg">
<path d="M21.9375 27.5625H23.0625V28.6875H21.9375V27.5625ZM10.125 18.5625H14.625V21.9375H10.125V18.5625ZM26.4375 27.5625H27.5625V28.6875H26.4375V27.5625ZM7.875 23.625V24.1875H16.875V23.625C16.875 23.4758 16.8157 23.3327 16.7102 23.2273C16.6048 23.1218 16.4617 23.0625 16.3125 23.0625H8.4375C8.28832 23.0625 8.14524 23.1218 8.03975 23.2273C7.93426 23.3327 7.875 23.4758 7.875 23.625ZM23.0625 3.375C23.0625 2.44462 22.3054 1.6875 21.375 1.6875H3.375C2.44462 1.6875 1.6875 2.44462 1.6875 3.375V14.0625H23.0625V3.375ZM12.375 7.3125C13.6159 7.3125 14.625 8.32162 14.625 9.5625C14.625 10.6076 13.9056 11.4812 12.9375 11.7326V12.9375H11.8125V11.7326C10.8444 11.4812 10.125 10.6076 10.125 9.5625H11.25C11.25 10.1829 11.7546 10.6875 12.375 10.6875C12.9954 10.6875 13.5 10.1829 13.5 9.5625C13.5 8.94206 12.9954 8.4375 12.375 8.4375C11.1341 8.4375 10.125 7.42838 10.125 6.1875C10.125 5.14237 10.8444 4.26881 11.8125 4.01737V2.8125H12.9375V4.01737C13.9056 4.26881 14.625 5.14237 14.625 6.1875H13.5C13.5 5.56706 12.9954 5.0625 12.375 5.0625C11.7546 5.0625 11.25 5.56706 11.25 6.1875C11.25 6.80794 11.7546 7.3125 12.375 7.3125ZM3.375 17.4375H21.375C22.3054 17.4375 23.0625 16.6804 23.0625 15.75V15.1875H1.6875V15.75C1.6875 16.6804 2.44462 17.4375 3.375 17.4375ZM33.1875 19.6875H25.3125V24.1875H33.1875V19.6875ZM32.0625 21.9375H30.9375V20.8125H32.0625V21.9375ZM32.0625 14.2954L31.3352 15.0227C31.283 15.075 31.221 15.1164 31.1528 15.1447C31.0845 15.173 31.0114 15.1876 30.9375 15.1876C30.8636 15.1876 30.7905 15.173 30.7222 15.1447C30.654 15.1164 30.592 15.075 30.5398 15.0227L29.25 13.7329L27.9602 15.0227C27.908 15.075 27.846 15.1164 27.7778 15.1447C27.7095 15.173 27.6364 15.1876 27.5625 15.1876C27.4886 15.1876 27.4155 15.173 27.3472 15.1447C27.279 15.1164 27.217 15.075 27.1648 15.0227L26.4375 14.2954V18.5625H32.0625V14.2954ZM30.9375 17.4375H27.5625V16.3125H30.9375V17.4375ZM30.9375 27.5625H32.0625V28.6875H30.9375V27.5625Z" fill="white"/>
<path d="M1.6875 25.3125V34.3125H34.3125V25.3125H1.6875ZM25.3125 27C25.3125 26.8508 25.3718 26.7077 25.4773 26.6023C25.5827 26.4968 25.7258 26.4375 25.875 26.4375H28.125C28.2742 26.4375 28.4173 26.4968 28.5227 26.6023C28.6282 26.7077 28.6875 26.8508 28.6875 27V29.25C28.6875 29.3992 28.6282 29.5423 28.5227 29.6477C28.4173 29.7532 28.2742 29.8125 28.125 29.8125H25.875C25.7258 29.8125 25.5827 29.7532 25.4773 29.6477C25.3718 29.5423 25.3125 29.3992 25.3125 29.25V27ZM20.8125 27C20.8125 26.8508 20.8718 26.7077 20.9773 26.6023C21.0827 26.4968 21.2258 26.4375 21.375 26.4375H23.625C23.7742 26.4375 23.9173 26.4968 24.0227 26.6023C24.1282 26.7077 24.1875 26.8508 24.1875 27V29.25C24.1875 29.3992 24.1282 29.5423 24.0227 29.6477C23.9173 29.7532 23.7742 29.8125 23.625 29.8125H21.375C21.2258 29.8125 21.0827 29.7532 20.9773 29.6477C20.8718 29.5423 20.8125 29.3992 20.8125 29.25V27ZM19.6875 32.625C19.6875 32.7742 19.6282 32.9173 19.5227 33.0227C19.4173 33.1282 19.2742 33.1875 19.125 33.1875H3.375C3.22582 33.1875 3.08274 33.1282 2.97725 33.0227C2.87176 32.9173 2.8125 32.7742 2.8125 32.625V27C2.8125 26.8508 2.87176 26.7077 2.97725 26.6023C3.08274 26.4968 3.22582 26.4375 3.375 26.4375H19.125C19.2742 26.4375 19.4173 26.4968 19.5227 26.6023C19.6282 26.7077 19.6875 26.8508 19.6875 27V32.625ZM33.1875 33.1875H20.8125V32.0625H33.1875V33.1875ZM33.1875 29.25C33.1875 29.3992 33.1282 29.5423 33.0227 29.6477C32.9173 29.7532 32.7742 29.8125 32.625 29.8125H30.375C30.2258 29.8125 30.0827 29.7532 29.9773 29.6477C29.8718 29.5423 29.8125 29.3992 29.8125 29.25V27C29.8125 26.8508 29.8718 26.7077 29.9773 26.6023C30.0827 26.4968 30.2258 26.4375 30.375 26.4375H32.625C32.7742 26.4375 32.9173 26.4968 33.0227 26.6023C33.1282 26.7077 33.1875 26.8508 33.1875 27V29.25Z" fill="white"/>
<path d="M14.2774 28.6875L14.8399 27.5625H7.66016L8.22266 28.6875H14.2774Z" fill="white"/>
<path d="M15.1284 29.5014C15.0328 29.6921 14.8382 29.8125 14.625 29.8125H7.875C7.66181 29.8125 7.46719 29.6921 7.37156 29.5014L6.40237 27.5625H3.9375V32.0625H18.5625V27.5625H16.0976L15.1284 29.5014ZM27.5625 6.75H28.6875V11.25H27.5625V6.75ZM29.8125 5.625H30.9375V9.5625H29.8125V5.625Z" fill="white"/>
</svg>
