<svg width="30" height="36" viewBox="0 0 30 36" fill="none" xmlns="http://www.w3.org/2000/svg">
<path d="M7.56895 7.0066H18.0463C18.7672 7.0066 19.3516 6.42224 19.3516 5.70132V3.9317C19.3516 3.50413 19.005 3.15749 18.5774 3.15749H15.0197C15.1018 2.91899 15.1486 2.66418 15.1486 2.39811C15.1486 1.10732 14.0984 0.0571289 12.8076 0.0571289C11.5168 0.0571289 10.4666 1.10732 10.4666 2.39811C10.4666 2.66418 10.5134 2.91899 10.5955 3.15749H7.03781C6.61024 3.15749 6.26367 3.50413 6.26367 3.9317V5.70125C6.26367 6.42224 6.84804 7.0066 7.56895 7.0066ZM12.8076 1.16111C13.4896 1.16111 14.0447 1.71615 14.0447 2.39818C14.0447 2.68569 13.942 2.94725 13.7768 3.15756H11.8384C11.6732 2.94725 11.5705 2.68569 11.5705 2.39818C11.5705 1.71608 12.1256 1.16111 12.8076 1.16111Z" fill="white"/>
<path d="M18.6107 30.4526C18.6107 27.3248 21.1571 24.7784 24.2849 24.7784C24.4726 24.7784 24.6566 24.7858 24.8369 24.8042V5.94521C24.8369 4.83758 23.9353 3.93604 22.8277 3.93604H20.0862V5.70236C20.0862 6.82841 19.1736 7.741 18.0476 7.741H7.56755C6.44523 7.741 5.52898 6.82841 5.52898 5.70236V3.93604H2.7875C1.67987 3.93604 0.77832 4.83758 0.77832 5.94521V33.9337C0.77832 35.0414 1.67987 35.9429 2.7875 35.9429H22.8498C20.4138 35.3063 18.6107 33.0837 18.6107 30.4526ZM10.5593 11.2846H20.9621C21.0346 11.2845 21.1064 11.2987 21.1734 11.3264C21.2404 11.3541 21.3013 11.3948 21.3526 11.4461C21.4039 11.4973 21.4445 11.5582 21.4722 11.6252C21.4999 11.6922 21.5141 11.764 21.514 11.8366C21.514 12.1383 21.2675 12.3885 20.9621 12.3885H10.5593C10.2538 12.3885 10.0073 12.1383 10.0073 11.8366C10.0072 11.764 10.0214 11.6922 10.0492 11.6252C10.0769 11.5582 10.1175 11.4973 10.1688 11.4461C10.2201 11.3948 10.2809 11.3541 10.3479 11.3264C10.415 11.2987 10.4868 11.2845 10.5593 11.2846ZM10.5593 16.6718H20.9621C21.2675 16.6718 21.514 16.9183 21.514 17.2238C21.514 17.5292 21.2675 17.7757 20.9621 17.7757H10.5593C10.4868 17.7758 10.415 17.7616 10.3479 17.7339C10.2809 17.7062 10.2201 17.6655 10.1688 17.6143C10.1175 17.563 10.0769 17.5021 10.0492 17.4351C10.0214 17.3681 10.0072 17.2963 10.0073 17.2238C10.0072 17.1513 10.0214 17.0794 10.0492 17.0124C10.0769 16.9454 10.1175 16.8845 10.1688 16.8333C10.2201 16.782 10.2809 16.7413 10.3479 16.7136C10.415 16.6859 10.4868 16.6717 10.5593 16.6718ZM7.5492 22.1289L5.8013 23.8731C5.59909 24.0824 5.24436 24.0963 5.02119 23.8731L4.26315 23.1151C4.04968 22.9017 4.04968 22.5521 4.26315 22.335C4.48027 22.1216 4.8298 22.1216 5.04327 22.335L5.41121 22.7029L6.76909 21.3488C6.8201 21.2972 6.88085 21.2562 6.9478 21.2283C7.01476 21.2003 7.08659 21.1859 7.15914 21.1859C7.2317 21.1859 7.30353 21.2003 7.37049 21.2283C7.43744 21.2562 7.49819 21.2972 7.5492 21.3488C7.76633 21.5623 7.76633 21.9118 7.5492 22.1289ZM7.5492 16.738L5.8013 18.4859C5.58087 18.7063 5.23205 18.6968 5.02119 18.4859L4.26315 17.7279C4.04968 17.5144 4.04968 17.1649 4.26315 16.9478C4.48027 16.7307 4.8298 16.7307 5.04327 16.9478L5.41121 17.3157L6.76909 15.9579C6.98255 15.7444 7.33208 15.7444 7.5492 15.9579C7.76633 16.1751 7.76633 16.5246 7.5492 16.738ZM7.5492 11.3508L5.8013 13.0987C5.59241 13.3076 5.2516 13.3215 5.02119 13.0987L4.26315 12.3407C4.04968 12.1236 4.04968 11.774 4.26315 11.5606C4.48027 11.3435 4.8298 11.3435 5.04327 11.5606L5.41121 11.9285L6.76909 10.5707C6.87299 10.4681 7.01313 10.4105 7.15914 10.4105C7.30516 10.4105 7.4453 10.4681 7.5492 10.5707C7.76633 10.7878 7.76633 11.1374 7.5492 11.3508ZM10.0073 22.611C10.0072 22.5385 10.0214 22.4666 10.0492 22.3996C10.0769 22.3326 10.1175 22.2717 10.1688 22.2205C10.2201 22.1692 10.2809 22.1285 10.3479 22.1008C10.415 22.0731 10.4868 22.0589 10.5593 22.059H20.9621C21.0346 22.0589 21.1064 22.0731 21.1734 22.1008C21.2404 22.1285 21.3013 22.1692 21.3526 22.2205C21.4039 22.2717 21.4445 22.3326 21.4722 22.3996C21.4999 22.4666 21.5141 22.5385 21.514 22.611C21.5141 22.6835 21.4999 22.7553 21.4722 22.8223C21.4445 22.8893 21.4039 22.9502 21.3526 23.0015C21.3013 23.0527 21.2404 23.0934 21.1734 23.1211C21.1064 23.1488 21.0346 23.163 20.9621 23.1629H10.5593C10.4868 23.163 10.4149 23.1488 10.3479 23.1211C10.2809 23.0934 10.22 23.0528 10.1687 23.0015C10.1175 22.9502 10.0768 22.8893 10.0491 22.8223C10.0214 22.7553 10.0072 22.6835 10.0073 22.611Z" fill="white"/>
<path d="M24.2835 25.5125C21.5558 25.5125 19.3457 27.7255 19.3457 30.4532C19.3457 33.1809 21.5558 35.391 24.2835 35.391C27.0112 35.391 29.2214 33.1809 29.2214 30.4532C29.2214 27.7255 27.0113 25.5125 24.2835 25.5125ZM26.3711 29.6398L23.9671 32.0441C23.9159 32.0954 23.8551 32.1361 23.7881 32.1639C23.7211 32.1916 23.6493 32.2059 23.5768 32.2058C23.5043 32.2059 23.4325 32.1916 23.3656 32.1639C23.2986 32.1361 23.2378 32.0954 23.1866 32.0441L22.1958 31.0535C21.9802 30.8381 21.9802 30.4886 22.1958 30.273C22.4114 30.0573 22.7607 30.0574 22.9764 30.273L23.5768 30.8733L25.5907 28.8593C25.6416 28.8068 25.7025 28.7651 25.7698 28.7364C25.8371 28.7077 25.9094 28.6927 25.9825 28.6922C26.0556 28.6916 26.1281 28.7057 26.1958 28.7334C26.2634 28.7612 26.3249 28.8021 26.3766 28.8538C26.4283 28.9055 26.4693 28.967 26.497 29.0347C26.5247 29.1023 26.5388 29.1748 26.5383 29.248C26.5377 29.3211 26.5227 29.3934 26.494 29.4607C26.4653 29.5279 26.4235 29.5888 26.3711 29.6398Z" fill="white"/>
</svg>
