<svg width="34" height="26" viewBox="0 0 34 26" fill="none" xmlns="http://www.w3.org/2000/svg">
<path d="M5.75 14.125C3.26825 14.125 1.25 12.1068 1.25 9.625C1.25 7.14325 3.26825 5.125 5.75 5.125C8.23175 5.125 10.25 7.14325 10.25 9.625C10.25 12.1068 8.23175 14.125 5.75 14.125ZM7.74125 14.8787C6.45875 15.3737 5.04125 15.3737 3.75875 14.8787C3.4325 14.755 3.06125 14.8 2.76875 14.98C1.95937 15.4852 1.29196 16.1883 0.829426 17.0228C0.366893 17.8573 0.124469 18.7959 0.125001 19.75V24.25C0.125001 24.8687 0.631251 25.375 1.25 25.375H6.875V19.75C6.875 18.0063 7.33625 16.3075 8.16875 14.8225C8.0225 14.8 7.87625 14.8225 7.74125 14.8787ZM28.25 14.125C30.7318 14.125 32.75 12.1068 32.75 9.625C32.75 7.14325 30.7318 5.125 28.25 5.125C25.7682 5.125 23.75 7.14325 23.75 9.625C23.75 12.1068 25.7682 14.125 28.25 14.125ZM31.2312 14.98C30.9387 14.8 30.5675 14.755 30.2413 14.8787C28.9587 15.3737 27.5413 15.3737 26.2587 14.8787C26.1242 14.8208 25.9762 14.8013 25.8313 14.8225C26.6765 16.3275 27.1219 18.0239 27.125 19.75V25.375H32.75C33.3688 25.375 33.875 24.8687 33.875 24.25V19.75C33.875 17.8037 32.885 16.0262 31.2312 14.98ZM17 11.875C13.8984 11.875 11.375 9.35163 11.375 6.25C11.375 3.14838 13.8984 0.625 17 0.625C20.1016 0.625 22.625 3.14838 22.625 6.25C22.625 9.35163 20.1016 11.875 17 11.875ZM24.875 19.75C24.8747 18.5128 24.5821 17.2932 24.021 16.1906C23.4599 15.0879 22.6462 14.1335 21.6462 13.405C21.3087 13.1575 20.8588 13.1238 20.4875 13.3038C19.7338 13.6863 18.935 13.9225 18.125 14.035V19.75C18.125 20.3687 17.6188 20.875 17 20.875C16.3813 20.875 15.875 20.3687 15.875 19.75V14.035C15.065 13.9225 14.2663 13.6863 13.5125 13.3038C13.1413 13.1238 12.6913 13.1575 12.3538 13.405C11.3538 14.1335 10.5401 15.0879 9.979 16.1906C9.41791 17.2932 9.12529 18.5128 9.125 19.75V25.375H24.875V19.75Z" fill="white"/>
</svg>
