<svg width="30" height="36" viewBox="0 0 30 36" fill="none" xmlns="http://www.w3.org/2000/svg">
<path fill-rule="evenodd" clip-rule="evenodd" d="M5.96313 26.9259C5.96305 26.8574 5.97649 26.7895 6.00267 26.7262C6.02886 26.6628 6.06727 26.6053 6.11571 26.5568C6.16416 26.5084 6.22168 26.4699 6.285 26.4437C6.34832 26.4175 6.41618 26.4041 6.4847 26.4041H13.6375C13.7749 26.4057 13.906 26.4614 14.0026 26.559C14.0991 26.6567 14.1533 26.7885 14.1533 26.9259C14.1533 27.0632 14.0991 27.195 14.0026 27.2927C13.906 27.3903 13.7749 27.446 13.6375 27.4476H6.48506C6.34666 27.4476 6.21393 27.3927 6.11605 27.2948C6.01817 27.197 5.96316 27.0643 5.96313 26.9259ZM13.7599 29.1463H6.48506C6.41653 29.1463 6.34868 29.1598 6.28537 29.186C6.22207 29.2122 6.16455 29.2507 6.11609 29.2991C6.06764 29.3476 6.02921 29.4051 6.00299 29.4684C5.97676 29.5317 5.96327 29.5996 5.96327 29.6681C5.96327 29.7366 5.97676 29.8045 6.00299 29.8678C6.02921 29.9311 6.06764 29.9886 6.11609 30.037C6.16455 30.0855 6.22207 30.1239 6.28537 30.1502C6.34868 30.1764 6.41653 30.1899 6.48506 30.1899H13.7599C13.8972 30.1883 14.0284 30.1326 14.1249 30.0349C14.2215 29.9373 14.2756 29.8055 14.2756 29.6681C14.2756 29.5308 14.2215 29.399 14.1249 29.3013C14.0284 29.2036 13.8972 29.148 13.7599 29.1464V29.1463ZM18.8535 19.7263H6.96705C6.89802 19.7255 6.82952 19.7384 6.76551 19.7643C6.70151 19.7901 6.64327 19.8284 6.59418 19.877C6.54508 19.9255 6.5061 19.9833 6.4795 20.047C6.4529 20.1107 6.4392 20.179 6.4392 20.2481C6.4392 20.3171 6.4529 20.3854 6.4795 20.4491C6.5061 20.5128 6.54508 20.5706 6.59418 20.6192C6.64327 20.6677 6.70151 20.706 6.76551 20.7319C6.82952 20.7577 6.89802 20.7706 6.96705 20.7698H18.8535C18.9908 20.7682 19.122 20.7126 19.2186 20.6149C19.3151 20.5172 19.3693 20.3854 19.3693 20.2481C19.3693 20.1107 19.3151 19.9789 19.2186 19.8813C19.122 19.7836 18.9908 19.7279 18.8535 19.7263ZM15.453 23.591C15.453 23.5225 15.4396 23.4546 15.4134 23.3913C15.3872 23.328 15.3488 23.2705 15.3003 23.222C15.2519 23.1735 15.1943 23.1351 15.131 23.1089C15.0677 23.0827 14.9998 23.0693 14.9313 23.0693H6.96705C6.82972 23.0709 6.69856 23.1266 6.60201 23.2243C6.50546 23.3219 6.45132 23.4537 6.45132 23.5911C6.45132 23.7284 6.50546 23.8602 6.60201 23.9579C6.69856 24.0556 6.82972 24.1112 6.96705 24.1128H14.9315C15.0698 24.1128 15.2025 24.0578 15.3003 23.9599C15.3981 23.8621 15.453 23.7294 15.453 23.591ZM23.5047 21.6121V27.9582H29.8504C29.7238 26.3173 29.0147 24.7758 27.851 23.612C26.6873 22.4482 25.1458 21.7389 23.505 21.6121H23.5047ZM2.55459 28.8451V4.45437C2.55501 3.9617 2.7509 3.48934 3.09924 3.14096C3.44759 2.79257 3.91993 2.59663 4.41259 2.59615H21.4148V1.44752C21.4145 1.23149 21.3286 1.02437 21.1758 0.871629C21.023 0.718887 20.8159 0.632999 20.5999 0.632813H0.966016C0.749857 0.632812 0.542538 0.718619 0.389605 0.87138C0.236671 1.02414 0.150633 1.23136 0.150391 1.44752V28.0305C0.150651 28.2466 0.236698 28.4539 0.389629 28.6066C0.542561 28.7593 0.749869 28.8451 0.966016 28.8451H2.55459ZM15.8057 31.8521C15.1692 30.4978 14.9288 28.991 15.1123 27.5059C15.2959 26.0208 15.8959 24.6179 16.843 23.4594C17.7902 22.3009 19.0457 21.4339 20.4647 20.9588C21.8837 20.4836 23.4081 20.4197 24.8619 20.7743V4.45437C24.8616 4.23824 24.7755 4.03107 24.6226 3.87833C24.4697 3.72559 24.2624 3.63975 24.0463 3.63966H4.41281C4.19678 3.63986 3.98966 3.72576 3.83689 3.8785C3.68413 4.03124 3.5982 4.23834 3.59795 4.45437V31.0373C3.59808 31.2533 3.68393 31.4604 3.83665 31.6132C3.98937 31.7659 4.19646 31.8518 4.41245 31.852L15.8057 31.8521ZM29.8504 29.0017C29.7408 30.448 29.1774 31.8228 28.2403 32.93C27.3033 34.0371 26.0405 34.8201 24.6322 35.1672C23.2239 35.5143 21.7419 35.4078 20.3977 34.8629C19.0535 34.318 17.9157 33.3626 17.1465 32.1328C17.1345 32.1096 17.1206 32.0874 17.1048 32.0665C16.49 31.0604 16.1439 29.9133 16.0997 28.735C16.0555 27.5568 16.3146 26.3869 16.8523 25.3376C17.3899 24.2882 18.1881 23.3945 19.1702 22.7422C20.1524 22.0898 21.2856 21.7006 22.4613 21.6119V28.4797C22.4614 28.6181 22.5164 28.7508 22.6142 28.8487C22.7121 28.9465 22.8448 29.0015 22.9832 29.0015L29.8504 29.0017ZM5.99062 14.2739C5.98998 13.9789 6.07178 13.6895 6.2268 13.4384C6.38181 13.1873 6.60388 12.9845 6.86796 12.8529C7.13205 12.7213 7.42765 12.666 7.72145 12.6934C8.01525 12.7208 8.29557 12.8297 8.5308 13.0078L11.215 11.1615C11.1728 11.0185 11.1512 10.8701 11.1509 10.721C11.1506 10.3386 11.2884 9.96903 11.539 9.6802C11.7895 9.39137 12.1359 9.20271 12.5145 9.14893C12.893 9.09515 13.2783 9.17987 13.5993 9.38749C13.9204 9.59512 14.1557 9.91169 14.262 10.279L16.244 10.6703C16.3536 10.4066 16.5323 10.1775 16.7612 10.007C16.9902 9.83648 17.261 9.73096 17.545 9.70157C17.8289 9.67219 18.1156 9.72001 18.3746 9.84001C18.6337 9.96001 18.8555 10.1477 19.0167 10.3833L20.688 9.0618C20.5705 8.70506 20.5832 8.31823 20.7238 7.96995C20.8644 7.62167 21.1238 7.33444 21.456 7.15922C21.7882 6.98401 22.1717 6.93213 22.5386 7.01279C22.9054 7.09345 23.2318 7.30144 23.4599 7.59986C23.6879 7.89828 23.8029 8.26783 23.7844 8.64297C23.766 9.0181 23.6152 9.37457 23.3589 9.64912C23.1026 9.92368 22.7573 10.0986 22.3844 10.1428C22.0114 10.187 21.6348 10.0977 21.3214 9.89065L19.2779 11.5078C19.2262 11.8666 19.0532 12.1968 18.7877 12.4435C18.5221 12.6902 18.1801 12.8384 17.8185 12.8635C17.4569 12.8886 17.0977 12.789 16.8006 12.5814C16.5035 12.3738 16.2865 12.0707 16.1858 11.7225L14.2033 11.3311C14.112 11.5512 13.9721 11.7478 13.7942 11.9063C13.6163 12.0648 13.4049 12.1811 13.1757 12.2466C12.9466 12.312 12.7057 12.3248 12.4709 12.2842C12.2361 12.2435 12.0135 12.1504 11.8197 12.0117L9.1127 13.8736C9.16957 14.0917 9.17932 14.3195 9.14129 14.5416C9.10326 14.7638 9.01833 14.9753 8.89217 15.1621C8.766 15.3488 8.60148 15.5066 8.40958 15.6248C8.21767 15.743 8.00278 15.819 7.77921 15.8477C7.55565 15.8763 7.32854 15.857 7.11302 15.7911C6.8975 15.7251 6.6985 15.6139 6.5293 15.465C6.36009 15.3161 6.22454 15.1329 6.1317 14.9275C6.03885 14.7221 5.99083 14.4993 5.99083 14.2739H5.99062ZM21.651 8.56582C21.651 8.45821 21.6829 8.35302 21.7427 8.26356C21.8025 8.17409 21.8875 8.10437 21.9869 8.0632C22.0863 8.02203 22.1957 8.01127 22.3013 8.03228C22.4068 8.05329 22.5037 8.10512 22.5798 8.18122C22.6559 8.25732 22.7077 8.35427 22.7287 8.45982C22.7497 8.56536 22.7389 8.67475 22.6977 8.77417C22.6565 8.87358 22.5867 8.95854 22.4973 9.01831C22.4078 9.07809 22.3026 9.10998 22.195 9.10997C22.0507 9.10986 21.9124 9.05249 21.8104 8.95046C21.7084 8.84843 21.651 8.71009 21.651 8.56582ZM17.165 11.2804C17.165 11.1729 17.1968 11.0677 17.2566 10.9783C17.3163 10.8888 17.4012 10.8191 17.5006 10.7779C17.5999 10.7367 17.7093 10.726 17.8148 10.747C17.9202 10.7679 18.0171 10.8197 18.0932 10.8958C18.1692 10.9719 18.221 11.0688 18.2419 11.1743C18.2629 11.2798 18.2521 11.3891 18.2108 11.4885C18.1696 11.5878 18.0999 11.6727 18.0104 11.7324C17.9209 11.7921 17.8158 11.8239 17.7082 11.8238C17.5642 11.8236 17.4261 11.7663 17.3243 11.6644C17.2225 11.5625 17.1652 11.4245 17.165 11.2804ZM12.1939 10.7207C12.1938 10.6131 12.2256 10.5078 12.2853 10.4183C12.345 10.3287 12.4299 10.2589 12.5293 10.2176C12.6287 10.1764 12.7381 10.1655 12.8437 10.1864C12.9493 10.2074 13.0463 10.2591 13.1224 10.3352C13.1986 10.4112 13.2504 10.5082 13.2715 10.6137C13.2925 10.7193 13.2818 10.8287 13.2406 10.9281C13.1994 11.0276 13.1297 11.1126 13.0402 11.1724C12.9507 11.2322 12.8455 11.2641 12.7379 11.2641C12.5938 11.2639 12.4556 11.2066 12.3536 11.1048C12.2517 11.0029 12.1943 10.8648 12.1939 10.7207ZM7.03398 14.2739C7.03392 14.1664 7.06575 14.0612 7.12547 13.9717C7.18519 13.8822 7.27011 13.8125 7.36947 13.7713C7.46884 13.7301 7.5782 13.7193 7.6837 13.7403C7.78921 13.7613 7.88612 13.813 7.96218 13.8891C8.03825 13.9652 8.09004 14.0621 8.11101 14.1676C8.13198 14.2731 8.12118 14.3824 8.07998 14.4818C8.03878 14.5812 7.96904 14.6661 7.87957 14.7258C7.7901 14.7855 7.68493 14.8174 7.57736 14.8173C7.43335 14.817 7.29534 14.7596 7.19351 14.6578C7.09168 14.556 7.03432 14.4179 7.03398 14.2739ZM7.24295 6.45272C7.17393 6.45352 7.10543 6.44062 7.04142 6.41476C6.97742 6.38889 6.91918 6.35059 6.87008 6.30206C6.82099 6.25353 6.78201 6.19574 6.75541 6.13204C6.72881 6.06834 6.71511 6 6.71511 5.93096C6.71511 5.86193 6.72881 5.79359 6.75541 5.72989C6.78201 5.66619 6.82099 5.6084 6.87008 5.55987C6.91918 5.51134 6.97742 5.47304 7.04142 5.44717C7.10543 5.42131 7.17393 5.40841 7.24295 5.40921H11.1336C11.2709 5.41081 11.402 5.46648 11.4986 5.56415C11.5951 5.66183 11.6493 5.79363 11.6493 5.93096C11.6493 6.0683 11.5951 6.2001 11.4986 6.29778C11.402 6.39545 11.2709 6.45112 11.1336 6.45272H7.24295ZM7.24295 9.01912C7.17393 9.01993 7.10543 9.00702 7.04142 8.98116C6.97742 8.9553 6.91918 8.917 6.87008 8.86847C6.82099 8.81994 6.78201 8.76215 6.75541 8.69845C6.72881 8.63475 6.71511 8.5664 6.71511 8.49737C6.71511 8.42834 6.72881 8.35999 6.75541 8.29629C6.78201 8.23259 6.82099 8.1748 6.87008 8.12628C6.91918 8.07775 6.97742 8.03944 7.04142 8.01358C7.10543 7.98772 7.17393 7.97482 7.24295 7.97562H8.93988C9.0772 7.97721 9.20837 8.03288 9.30491 8.13056C9.40146 8.22823 9.45561 8.36003 9.45561 8.49737C9.45561 8.63471 9.40146 8.76651 9.30491 8.86418C9.20837 8.96186 9.0772 9.01753 8.93988 9.01912H7.24295ZM13.3274 14.2673H23.4271C23.5644 14.2689 23.6956 14.3246 23.7921 14.4223C23.8887 14.5199 23.9428 14.6517 23.9428 14.7891C23.9428 14.9264 23.8887 15.0582 23.7921 15.1559C23.6956 15.2536 23.5644 15.3092 23.4271 15.3108H13.327C13.2579 15.3116 13.1894 15.2987 13.1254 15.2729C13.0614 15.247 13.0032 15.2087 12.9541 15.1602C12.905 15.1116 12.866 15.0539 12.8394 14.9902C12.8128 14.9265 12.7991 14.8581 12.7991 14.7891C12.7991 14.72 12.8128 14.6517 12.8394 14.588C12.866 14.5243 12.905 14.4665 12.9541 14.418C13.0032 14.3694 13.0614 14.3311 13.1254 14.3053C13.1894 14.2794 13.2579 14.2665 13.327 14.2673H13.3274ZM17.7325 17.8772H13.327C13.2579 17.878 13.1894 17.8651 13.1254 17.8392C13.0614 17.8133 13.0032 17.775 12.9541 17.7265C12.905 17.678 12.866 17.6202 12.8394 17.5565C12.8128 17.4928 12.7991 17.4244 12.7991 17.3554C12.7991 17.2864 12.8128 17.218 12.8394 17.1543C12.866 17.0906 12.905 17.0328 12.9541 16.9843C13.0032 16.9358 13.0614 16.8975 13.1254 16.8716C13.1894 16.8458 13.2579 16.8329 13.327 16.8337H17.7318C17.8691 16.8353 18.0002 16.8909 18.0968 16.9886C18.1933 17.0863 18.2475 17.2181 18.2475 17.3554C18.2475 17.4927 18.1933 17.6245 18.0968 17.7222C18.0002 17.8199 17.8691 17.8756 17.7318 17.8772H17.7325Z" fill="white"/>
</svg>
