<svg width="18" height="18" viewBox="0 0 18 18" fill="none" xmlns="http://www.w3.org/2000/svg">
<path d="M17.9955 18L18 17.9993V11.3977C18 8.16825 17.3048 5.6805 13.5292 5.6805C11.7142 5.6805 10.4963 6.6765 9.999 7.62075H9.9465V5.982H6.36675V17.9993H10.0942V12.0487C10.0942 10.482 10.3912 8.967 12.3315 8.967C14.2432 8.967 14.2717 10.755 14.2717 12.1493V18H17.9955ZM0.297 5.98275H4.029V18H0.297V5.98275ZM2.1615 0C0.96825 0 0 0.96825 0 2.1615C0 3.35475 0.96825 4.34325 2.1615 4.34325C3.35475 4.34325 4.323 3.35475 4.323 2.1615C4.3226 1.58836 4.09475 1.0388 3.68947 0.633528C3.2842 0.228254 2.73464 0.000397327 2.1615 0Z" fill="#2D4B6E"/>
</svg>
