<svg width="33" height="40" viewBox="0 0 33 40" fill="none" xmlns="http://www.w3.org/2000/svg">
<path d="M24.9853 3.9999L21.5914 0.605957H19.1671L20.3187 3.9999H24.9853ZM18.9853 5.21202H14.0156L16.5005 12.606L18.9853 5.21202ZM24.9853 5.21202H20.3187L17.955 12.2423L24.9853 5.21202ZM17.8338 0.605957H15.1671L14.0156 3.9999H18.9853L17.8338 0.605957ZM12.6823 5.21202H8.01562L15.0459 12.2423L12.6823 5.21202ZM13.8338 0.605957H11.4096L8.01562 3.9999H12.6823L13.8338 0.605957Z" fill="#7B6767"/>
<path d="M22.8635 9.09082L19.4089 12.5454C24.4392 13.8787 27.8938 18.3635 27.8938 23.5757C27.8938 29.8787 22.8029 35.0302 16.4998 35.0302C10.1968 35.0302 5.04528 29.8787 5.04528 23.5757C5.04528 18.3635 8.49982 13.8787 13.5301 12.5454L10.1362 9.09082C4.43922 11.6363 0.681641 17.3332 0.681641 23.5757C0.681641 32.3029 7.77255 39.3939 16.4998 39.3939C25.2271 39.3939 32.318 32.3029 32.318 23.5757C32.318 17.3332 28.5604 11.6363 22.8635 9.09082Z" fill="#7B6767"/>
</svg>
