<svg width="20" height="14" viewBox="0 0 20 14" fill="none" xmlns="http://www.w3.org/2000/svg">
<path d="M1.0788 7.60962L6.91214 13.443C7.0693 13.5948 7.2798 13.6787 7.4983 13.6768C7.7168 13.6749 7.92581 13.5873 8.08032 13.4328C8.23482 13.2783 8.32246 13.0693 8.32436 12.8508C8.32626 12.6323 8.24227 12.4218 8.09047 12.2646L3.67963 7.85379L18.3346 7.85379C18.5556 7.85379 18.7676 7.76599 18.9239 7.60971C19.0802 7.45343 19.168 7.24147 19.168 7.02045C19.168 6.79944 19.0802 6.58748 18.9239 6.4312C18.7676 6.27492 18.5556 6.18712 18.3346 6.18712L3.67963 6.18712L8.09047 1.77629C8.17006 1.69941 8.23355 1.60746 8.27722 1.50579C8.32089 1.40412 8.34388 1.29477 8.34484 1.18412C8.34581 1.07347 8.32472 0.963739 8.28282 0.861325C8.24092 0.758912 8.17904 0.665868 8.1008 0.587624C8.02255 0.50938 7.92951 0.447501 7.8271 0.405601C7.72468 0.3637 7.61495 0.342615 7.5043 0.343577C7.39365 0.344538 7.2843 0.367528 7.18263 0.411202C7.08096 0.454876 6.98901 0.51836 6.91214 0.597952L1.0788 6.43129C0.922575 6.58756 0.834813 6.79948 0.834813 7.02045C0.834813 7.24142 0.922575 7.45335 1.0788 7.60962Z" fill="#2D4B6E"/>
</svg>
