<svg width="20" height="17" viewBox="0 0 20 17" fill="none" xmlns="http://www.w3.org/2000/svg">
<path d="M9.9999 16.2C9.73082 16.2007 9.46428 16.148 9.21568 16.045C8.96707 15.9421 8.74133 15.7909 8.5515 15.6002L1.9257 8.9742C0.941902 7.9904 0.399902 6.6824 0.399902 5.2908V5.2094C0.399902 3.8178 0.941902 2.5096 1.9257 1.526C2.9095 0.5424 4.2179 0 5.6089 0H5.6909C7.0819 0 8.3903 0.542 9.3741 1.5258L9.9999 2.1516L10.6257 1.5258C11.6095 0.542 12.9179 0 14.3089 0H14.3909C15.7819 0 17.0903 0.542 18.0741 1.5258C19.0579 2.5096 19.5999 3.8176 19.5999 5.2092V5.2906C19.5999 6.6822 19.0579 7.9904 18.0741 8.974L11.4483 15.6C11.2585 15.7908 11.0328 15.942 10.7842 16.045C10.5356 16.148 10.269 16.2007 9.9999 16.2ZM9.3999 14.7516C9.7215 15.0726 10.2789 15.0718 10.5999 14.7514L17.2257 8.126C17.5991 7.75447 17.8951 7.31261 18.0967 6.82596C18.2982 6.33931 18.4013 5.81753 18.3999 5.2908V5.2094C18.3999 4.1384 17.9827 3.1316 17.2257 2.3744C16.4687 1.6172 15.4615 1.2 14.3909 1.2H14.3089C13.7822 1.19852 13.2605 1.30154 12.7739 1.50309C12.2873 1.70464 11.8455 2.00073 11.4741 2.3742L10.4241 3.4242C10.3684 3.47994 10.3023 3.52417 10.2295 3.55434C10.1567 3.58451 10.0787 3.60004 9.9999 3.60004C9.92111 3.60004 9.84309 3.58451 9.7703 3.55434C9.69752 3.52417 9.63139 3.47994 9.5757 3.4242L8.5257 2.3742C8.15432 2.00073 7.71254 1.70464 7.22594 1.50309C6.73934 1.30154 6.21759 1.19852 5.6909 1.2H5.6089C4.5383 1.2 3.5311 1.6168 2.7741 2.3742C2.0171 3.1316 1.5999 4.1382 1.5999 5.2092V5.2906C1.59849 5.81731 1.70154 6.33907 1.90309 6.82569C2.10464 7.31231 2.40069 7.75414 2.7741 8.1256L9.3999 14.7516Z" fill="#2D4B6E"/>
</svg>
