<svg width="34" height="34" viewBox="0 0 34 34" fill="none" xmlns="http://www.w3.org/2000/svg">
<path d="M17.0565 11.8617C17.5245 11.8617 17.9035 11.4826 17.9035 11.0148C17.9035 10.5471 17.5245 10.1678 17.0565 10.1678C13.3147 10.1678 10.2813 13.2013 10.2813 16.9433C10.2813 20.6852 13.3147 23.7186 17.0565 23.7186C20.7986 23.7186 23.8321 20.6852 23.8321 16.9433C23.8321 16.4754 23.4528 16.0965 22.9851 16.0965C22.5174 16.0965 22.1382 16.4754 22.1382 16.9433C22.1382 19.7498 19.8632 22.025 17.0565 22.025C14.2501 22.025 11.9749 19.7498 11.9749 16.9433C11.9749 14.1367 14.2501 11.8617 17.0565 11.8617Z" fill="#2D4B6E"/>
<path d="M33.2164 11.9129C33.0692 11.4685 32.5899 11.2276 32.1452 11.3746C31.711 11.5183 31.4692 11.9806 31.5987 12.4192C34.1314 20.4848 29.6464 29.0763 21.5809 31.609C13.5157 34.1418 4.92416 29.6568 2.39144 21.5914C-0.141626 13.5259 4.34364 4.93431 12.4089 2.40152C15.3944 1.46405 18.5954 1.46405 21.5809 2.40152C22.0292 2.53665 22.5021 2.28298 22.6373 1.83474C22.7703 1.3932 22.5262 0.926569 22.0876 0.783929C13.1318 -2.02591 3.59372 2.9564 0.783942 11.9124C-2.0259 20.8681 2.95662 30.4062 11.9124 33.216C20.8684 36.0259 30.4063 31.0435 33.216 22.0875C34.2551 18.7756 34.2552 15.2249 33.2163 11.9129H33.2164Z" fill="#2D4B6E"/>
<path d="M18.6691 6.05072C18.6735 5.56848 18.3031 5.16539 17.8221 5.12933C17.5692 5.10782 17.3161 5.0863 17.0563 5.0863C10.5078 5.0863 5.19925 10.3949 5.19925 16.9434C5.19925 23.4917 10.5078 28.8003 17.0563 28.8003C23.6047 28.8003 28.9132 23.4917 28.9132 16.9435C28.9132 16.6371 28.8946 16.331 28.857 16.027C28.7893 15.5622 28.3576 15.2402 27.8928 15.308C27.4279 15.3754 27.106 15.8073 27.1735 16.2722C27.1761 16.2898 27.1792 16.3071 27.1828 16.3248C27.2012 16.53 27.2194 16.7333 27.2194 16.9429C27.2196 22.5561 22.6695 27.1062 17.0566 27.1067C11.4435 27.107 6.89334 22.5565 6.89314 16.9437C6.89287 11.3308 11.4427 6.78039 17.0559 6.78019H17.0561C17.2663 6.78019 17.4698 6.79832 17.6745 6.81645L17.8332 6.82973C18.2758 6.84866 18.6498 6.50521 18.6686 6.06267C18.6688 6.05849 18.6688 6.05464 18.6691 6.05072Z" fill="#2D4B6E"/>
<path d="M22.1382 7.62714V10.6642L16.4578 16.3446C16.1214 16.6695 16.1121 17.2058 16.437 17.5422C16.7621 17.8786 17.2983 17.888 17.6347 17.563C17.6417 17.5562 17.6487 17.5492 17.6555 17.5422L23.3359 11.8619H26.3728C26.5975 11.8619 26.8128 11.7726 26.9718 11.6136L32.0532 6.53197C32.3839 6.20126 32.3839 5.6651 32.0532 5.33433C31.9746 5.25571 31.8812 5.19334 31.7785 5.1508C31.6758 5.10825 31.5657 5.08636 31.4545 5.08637H28.9137V2.54553C28.9137 2.07783 28.5345 1.69859 28.0664 1.69885C27.842 1.69891 27.6268 1.7881 27.4681 1.94681L22.3864 7.02848C22.3077 7.10705 22.2452 7.20037 22.2027 7.30309C22.1601 7.40582 22.1381 7.51593 22.1382 7.62714ZM23.832 7.97789L27.2198 4.59011V5.93331C27.2198 6.40101 27.599 6.78026 28.0667 6.78026H29.4099L26.0221 10.168H23.832V7.97789Z" fill="#2D4B6E"/>
</svg>
