<svg width="37" height="36" viewBox="0 0 37 36" fill="none" xmlns="http://www.w3.org/2000/svg">
<path fill-rule="evenodd" clip-rule="evenodd" d="M0.583984 17.9999C0.583984 8.10492 8.60565 0.083252 18.5007 0.083252C28.3957 0.083252 36.4173 8.10492 36.4173 17.9999C36.4173 27.8949 28.3957 35.9166 18.5007 35.9166C8.60565 35.9166 0.583984 27.8949 0.583984 17.9999ZM18.5007 2.58325C14.4119 2.58325 10.4906 4.2075 7.59942 7.09869C4.70824 9.98988 3.08398 13.9112 3.08398 17.9999C3.08398 22.0887 4.70824 26.01 7.59942 28.9011C10.4906 31.7923 14.4119 33.4166 18.5007 33.4166C22.5894 33.4166 26.5107 31.7923 29.4019 28.9011C32.2931 26.01 33.9173 22.0887 33.9173 17.9999C33.9173 13.9112 32.2931 9.98988 29.4019 7.09869C26.5107 4.2075 22.5894 2.58325 18.5007 2.58325Z" fill="#7B6767"/>
<path d="M10.168 20.5C10.831 20.5 11.4669 20.2366 11.9357 19.7678C12.4046 19.2989 12.668 18.663 12.668 18C12.668 17.337 12.4046 16.7011 11.9357 16.2322C11.4669 15.7634 10.831 15.5 10.168 15.5C9.50493 15.5 8.86904 15.7634 8.4002 16.2322C7.93136 16.7011 7.66797 17.337 7.66797 18C7.66797 18.663 7.93136 19.2989 8.4002 19.7678C8.86904 20.2366 9.50493 20.5 10.168 20.5ZM18.5013 20.5C19.1643 20.5 19.8002 20.2366 20.2691 19.7678C20.7379 19.2989 21.0013 18.663 21.0013 18C21.0013 17.337 20.7379 16.7011 20.2691 16.2322C19.8002 15.7634 19.1643 15.5 18.5013 15.5C17.8383 15.5 17.2024 15.7634 16.7335 16.2322C16.2647 16.7011 16.0013 17.337 16.0013 18C16.0013 18.663 16.2647 19.2989 16.7335 19.7678C17.2024 20.2366 17.8383 20.5 18.5013 20.5ZM26.8346 20.5C27.4977 20.5 28.1336 20.2366 28.6024 19.7678C29.0712 19.2989 29.3346 18.663 29.3346 18C29.3346 17.337 29.0712 16.7011 28.6024 16.2322C28.1336 15.7634 27.4977 15.5 26.8346 15.5C26.1716 15.5 25.5357 15.7634 25.0669 16.2322C24.598 16.7011 24.3346 17.337 24.3346 18C24.3346 18.663 24.598 19.2989 25.0669 19.7678C25.5357 20.2366 26.1716 20.5 26.8346 20.5Z" fill="#7B6767"/>
</svg>
