<svg width="6" height="8" viewBox="0 0 6 8" fill="none" xmlns="http://www.w3.org/2000/svg">
<path d="M5.10353 0.853598L1.9571 4.00005L5.10353 7.1465C5.15043 7.19283 5.1877 7.24797 5.2132 7.30875C5.2387 7.36954 5.25193 7.43476 5.25213 7.50068C5.25233 7.5666 5.2395 7.6319 5.21436 7.69284C5.18923 7.75377 5.1523 7.80914 5.10569 7.85575C5.05908 7.90236 5.00371 7.93929 4.94277 7.96443C4.88184 7.98956 4.81653 8.00239 4.75062 8.00219C4.6847 8.00199 4.61947 7.98876 4.55869 7.96326C4.49791 7.93776 4.44277 7.90049 4.39644 7.8536L0.89644 4.3536C0.802676 4.25983 0.75 4.13266 0.75 4.00005C0.75 3.86745 0.802676 3.74027 0.89644 3.6465L4.39644 0.146504C4.4904 0.0536763 4.61728 0.00179863 4.74936 0.00219957C4.88144 0.00260051 5.008 0.0552475 5.10139 0.148644C5.19479 0.24204 5.24744 0.368598 5.24784 0.500679C5.24824 0.632761 5.19636 0.759636 5.10353 0.853598Z" fill="#1B1C57"/>
</svg>
