<svg width="6" height="8" viewBox="0 0 6 8" fill="none" xmlns="http://www.w3.org/2000/svg">
<path d="M0.89626 7.14663L4.0427 4.00017L0.89626 0.85372C0.803432 0.759758 0.751554 0.632883 0.751955 0.500802C0.752356 0.36872 0.805003 0.242162 0.8984 0.148766C0.991796 0.0553696 1.11835 0.00272258 1.25044 0.00232164C1.38252 0.0019207 1.50939 0.0537984 1.60335 0.146626L5.10335 3.64663C5.19712 3.74039 5.24979 3.86757 5.24979 4.00017C5.24979 4.13278 5.19712 4.25995 5.10335 4.35372L1.60335 7.85372C1.50939 7.94655 1.38252 7.99843 1.25044 7.99803C1.11835 7.99762 0.991796 7.94498 0.8984 7.85158C0.805003 7.75818 0.752356 7.63163 0.751955 7.49955C0.751554 7.36746 0.803432 7.24059 0.89626 7.14663Z" fill="#1B1C57"/>
</svg>
