<svg width="69" height="21" viewBox="0 0 69 21" fill="none" xmlns="http://www.w3.org/2000/svg">
<path d="M53.336 6.30615H49.6122C49.3932 6.30615 49.1741 6.52401 49.0646 6.74187L47.5312 16.3276C47.5312 16.5454 47.6408 16.6544 47.8598 16.6544H49.8312C50.0503 16.6544 50.1598 16.5454 50.1598 16.3276L50.5979 13.6044C50.5979 13.3865 50.817 13.1687 51.1455 13.1687H52.3503C54.8693 13.1687 56.2932 11.9704 56.6217 9.57401C56.8408 8.59365 56.6217 7.72222 56.1836 7.17758C55.5265 6.63294 54.5408 6.30615 53.336 6.30615ZM53.7741 9.9008C53.5551 11.2079 52.5693 11.2079 51.5836 11.2079H50.9265L51.3646 8.70258C51.3646 8.59365 51.4741 8.48472 51.6932 8.48472H51.9122C52.5693 8.48472 53.2265 8.48472 53.5551 8.92044C53.7741 9.02937 53.7741 9.35615 53.7741 9.9008Z" fill="#139AD6"/>
<path d="M26.504 6.30615H22.7802C22.5611 6.30615 22.3421 6.52401 22.2326 6.74187L20.6992 16.3276C20.6992 16.5454 20.8087 16.6544 21.0278 16.6544H22.7802C22.9992 16.6544 23.2183 16.4365 23.3278 16.2187L23.7659 13.6044C23.7659 13.3865 23.9849 13.1687 24.3135 13.1687H25.5183C28.0373 13.1687 29.4611 11.9704 29.7897 9.57401C30.0087 8.59365 29.7897 7.72222 29.3516 7.17758C28.6945 6.63294 27.8183 6.30615 26.504 6.30615ZM26.9421 9.9008C26.723 11.2079 25.7373 11.2079 24.7516 11.2079H24.204L24.6421 8.70258C24.6421 8.59365 24.7516 8.48472 24.9706 8.48472H25.1897C25.8468 8.48472 26.504 8.48472 26.8326 8.92044C26.9421 9.02937 27.0516 9.35615 26.9421 9.9008ZM37.7849 9.79187H36.0326C35.923 9.79187 35.704 9.90079 35.704 10.0097L35.5945 10.5544L35.4849 10.3365C35.0468 9.79187 34.2802 9.57401 33.404 9.57401C31.4326 9.57401 29.6802 11.099 29.3516 13.1687C29.1326 14.2579 29.4611 15.2383 30.0087 15.8919C30.5564 16.5454 31.323 16.7633 32.3088 16.7633C33.9516 16.7633 34.8278 15.7829 34.8278 15.7829L34.7183 16.3276C34.7183 16.5454 34.8278 16.6544 35.0468 16.6544H36.6897C36.9088 16.6544 37.1278 16.4365 37.2373 16.2187L38.223 10.1187C38.1135 10.0097 37.8945 9.79187 37.7849 9.79187ZM35.2659 13.2776C35.0468 14.2579 34.2802 15.0204 33.1849 15.0204C32.6373 15.0204 32.1992 14.8026 31.9802 14.5847C31.7611 14.2579 31.6516 13.8222 31.6516 13.2776C31.7611 12.2972 32.6373 11.5347 33.623 11.5347C34.1707 11.5347 34.4992 11.7526 34.8278 11.9704C35.1564 12.2972 35.2659 12.8419 35.2659 13.2776Z" fill="#263B80"/>
<path d="M64.5098 9.79195H62.7574C62.6479 9.79195 62.4288 9.90088 62.4288 10.0098L62.3193 10.5545L62.2098 10.3366C61.7717 9.79195 61.005 9.5741 60.1288 9.5741C58.1574 9.5741 56.405 11.0991 56.0764 13.1687C55.8574 14.258 56.1859 15.2384 56.7336 15.892C57.2812 16.5455 58.0479 16.7634 59.0336 16.7634C60.6764 16.7634 61.5526 15.783 61.5526 15.783L61.4431 16.3277C61.4431 16.5455 61.5526 16.6545 61.7717 16.6545H63.4145C63.6336 16.6545 63.8526 16.4366 63.9621 16.2187L64.9479 10.1187C64.8383 10.0098 64.7288 9.79195 64.5098 9.79195ZM61.9907 13.2777C61.7717 14.258 61.005 15.0205 59.9098 15.0205C59.3621 15.0205 58.924 14.8027 58.705 14.5848C58.4859 14.258 58.3764 13.8223 58.3764 13.2777C58.4859 12.2973 59.3621 11.5348 60.3479 11.5348C60.8955 11.5348 61.224 11.7527 61.5526 11.9705C61.9907 12.2973 62.1002 12.842 61.9907 13.2777Z" fill="#139AD6"/>
<path d="M47.3161 9.79199H45.4542C45.2352 9.79199 45.1257 9.90092 45.0161 10.0098L42.6066 13.7134L41.5114 10.2277C41.4019 10.0098 41.2923 9.90092 40.9638 9.90092H39.2114C38.9923 9.90092 38.8828 10.1188 38.8828 10.3366L40.8542 16.1099L38.9923 18.7241C38.8828 18.942 38.9923 19.2688 39.2114 19.2688H40.9638C41.1828 19.2688 41.2923 19.1599 41.4019 19.0509L47.4257 10.4456C47.7542 10.1188 47.5352 9.79199 47.3161 9.79199Z" fill="#263B80"/>
<path d="M66.588 6.63303L65.0547 16.4366C65.0547 16.6545 65.1642 16.7634 65.3833 16.7634H66.9166C67.1356 16.7634 67.3547 16.5455 67.4642 16.3277L68.9975 6.74195C68.9975 6.5241 68.888 6.41517 68.669 6.41517H66.9166C66.8071 6.30624 66.6975 6.41517 66.588 6.63303Z" fill="#139AD6"/>
<path d="M12.5952 3.03834C11.8286 2.16691 10.4048 1.7312 8.43333 1.7312H2.95714C2.62857 1.7312 2.3 2.05799 2.19048 2.38477L0 16.6544C0 16.9812 0.219048 17.1991 0.438095 17.1991H3.83333L4.70952 11.8616V12.0794C4.81905 11.7526 5.14762 11.4258 5.47619 11.4258H7.11905C10.2952 11.4258 12.7048 10.1187 13.4714 6.52406V6.19727C13.3619 6.19727 13.3619 6.19727 13.4714 6.19727C13.5809 4.7812 13.3619 3.90977 12.5952 3.03834Z" fill="#263B80"/>
<path d="M13.365 6.19727V6.52405C12.5983 10.2276 10.1888 11.4258 7.01257 11.4258H5.36972C5.04115 11.4258 4.71257 11.7526 4.60305 12.0794L3.50781 18.7241C3.50781 18.9419 3.61734 19.1598 3.94591 19.1598H6.79353C7.1221 19.1598 7.45067 18.9419 7.45067 18.6151V18.5062L7.99829 15.1294V14.9116C7.99829 14.5848 8.32686 14.3669 8.65543 14.3669H9.09353C11.8316 14.3669 14.0221 13.2776 14.5697 10.0098C14.7888 8.70262 14.6792 7.50441 14.0221 6.74191C13.9126 6.52405 13.6935 6.30619 13.365 6.19727Z" fill="#139AD6"/>
<path d="M12.5967 5.87049C12.4871 5.87049 12.3776 5.76156 12.2681 5.76156C12.1586 5.76156 12.049 5.76156 11.9395 5.65263C11.5014 5.5437 11.0633 5.5437 10.5157 5.5437H6.24427C6.13475 5.5437 6.02522 5.5437 5.9157 5.65263C5.69665 5.76156 5.58713 5.97941 5.58713 6.19727L4.71094 11.8616V12.0794C4.82046 11.7526 5.14903 11.4258 5.4776 11.4258H7.12046C10.2967 11.4258 12.7062 10.1187 13.4728 6.52406C13.4728 6.41513 13.4728 6.3062 13.5824 6.19727C13.3633 6.08834 13.2538 5.97941 13.0348 5.97941C12.7062 5.87049 12.7062 5.87049 12.5967 5.87049Z" fill="#232C65"/>
</svg>
