<svg width="25" height="40" viewBox="0 0 25 40" fill="none" xmlns="http://www.w3.org/2000/svg">
<path d="M21.4157 0H3.58257C2.86659 0.00181033 2.18045 0.287036 1.67417 0.793314C1.1679 1.29959 0.88267 1.98573 0.880859 2.70171V37.2971C0.882668 38.0132 1.16786 38.6995 1.6741 39.206C2.18035 39.7124 2.86649 39.9979 3.58257 40H21.4157C22.1317 39.9982 22.8178 39.713 23.3241 39.2067C23.8304 38.7004 24.1156 38.0143 24.1174 37.2983V2.70171C24.1156 1.98573 23.8304 1.29959 23.3241 0.793314C22.8178 0.287036 22.1317 0.00181033 21.4157 0ZM9.64657 1.94743H15.3517C15.4386 1.94743 15.5218 1.98193 15.5832 2.04333C15.6446 2.10474 15.6791 2.18802 15.6791 2.27486C15.6791 2.3617 15.6446 2.44498 15.5832 2.50638C15.5218 2.56779 15.4386 2.60229 15.3517 2.60229H9.64657C9.55973 2.60229 9.47645 2.56779 9.41505 2.50638C9.35364 2.44498 9.31915 2.3617 9.31915 2.27486C9.31915 2.18802 9.35364 2.10474 9.41505 2.04333C9.47645 1.98193 9.55973 1.94743 9.64657 1.94743ZM12.4991 38.6491C12.1409 38.6491 11.7973 38.5068 11.5439 38.2535C11.2906 38.0002 11.1483 37.6566 11.1483 37.2983C11.1483 36.94 11.2906 36.5964 11.5439 36.3431C11.7973 36.0898 12.1409 35.9474 12.4991 35.9474C12.8574 35.9474 13.201 36.0898 13.4543 36.3431C13.7077 36.5964 13.85 36.94 13.85 37.2983C13.85 37.6566 13.7077 38.0002 13.4543 38.2535C13.201 38.5068 12.8574 38.6491 12.4991 38.6491ZM22.2374 35H2.76086V4.28457H22.2374V35Z" fill="#7B6767"/>
</svg>
