<svg width="34" height="34" viewBox="0 0 34 34" fill="none" xmlns="http://www.w3.org/2000/svg">
<g clip-path="url(#clip0_806_3979)">
<path d="M16.0554 19.0931C14.4066 20.4769 13.2693 22.3736 12.8254 24.48C12.216 24.4453 11.6258 24.2538 11.112 23.9242C10.5982 23.5946 10.1782 23.138 9.89261 22.5985C9.607 22.059 9.46548 21.4549 9.48173 20.8447C9.49797 20.2345 9.67145 19.6388 9.98536 19.1152C10.2993 18.5917 10.743 18.1581 11.2736 17.8563C11.8042 17.5545 12.4037 17.3947 13.0142 17.3925C13.6246 17.3903 14.2253 17.5456 14.758 17.8435C15.2908 18.1415 15.7377 18.5719 16.0554 19.0931Z" fill="#2D4B6E"/>
<path d="M22.7594 12.1975L21.7712 11.2094C21.4699 10.909 21.0798 10.7137 20.6588 10.6525C20.2377 10.5912 19.8082 10.6673 19.4338 10.8694L17.7125 11.7831C17.2194 11.5352 16.7078 11.3256 16.1825 11.1562L15.63 9.30748C15.5093 8.89659 15.2588 8.53584 14.9159 8.27919C14.5731 8.02254 14.1564 7.8838 13.7281 7.88373H12.3256C11.9002 7.88388 11.4861 8.02155 11.1453 8.27621C10.8045 8.53087 10.5551 8.88889 10.4344 9.29685L9.87125 11.1562C9.3459 11.3256 8.83439 11.5352 8.34125 11.7831L6.63062 10.8694C6.25634 10.6668 5.82665 10.5904 5.40549 10.6517C4.98433 10.713 4.59419 10.9085 4.29312 11.2094L3.29437 12.1975C2.99866 12.5038 2.80673 12.8953 2.74572 13.3167C2.68471 13.7381 2.7577 14.168 2.95437 14.5456L3.87875 16.2562C3.62288 16.7471 3.4096 17.2589 3.24125 17.7862L1.3925 18.3387C0.981612 18.4594 0.620858 18.71 0.364212 19.0528C0.107565 19.3956 -0.0311744 19.8123 -0.03125 20.2406V21.6431C-0.0305888 22.0684 0.107278 22.4822 0.361866 22.8229C0.616453 23.1637 0.974174 23.4132 1.38187 23.5344L3.24125 24.0975C3.4096 24.6248 3.62288 25.1366 3.87875 25.6275L2.965 27.3381C2.75813 27.7131 2.67939 28.1454 2.74076 28.5692C2.80214 28.9931 3.00026 29.3853 3.305 29.6862L4.29312 30.6744C4.59446 30.9747 4.98456 31.17 5.4056 31.2312C5.82664 31.2925 6.2562 31.2164 6.63062 31.0144L8.34125 30.1006C8.83439 30.3485 9.3459 30.5581 9.87125 30.7275L10.4344 32.5762C10.5527 32.9864 10.8012 33.3471 11.1423 33.6039C11.4834 33.8607 11.8987 33.9997 12.3256 34H13.7281C14.0397 33.998 14.3465 33.9241 14.6248 33.784C14.9031 33.644 15.1453 33.4415 15.3325 33.1925C13.6146 31.4224 12.641 29.0608 12.6125 26.5944C11.6471 26.5225 10.7161 26.2046 9.90829 25.6711C9.10048 25.1375 8.44272 24.406 7.99767 23.5463C7.55261 22.6865 7.33508 21.7271 7.3658 20.7595C7.39652 19.7919 7.67445 18.8483 8.17314 18.0185C8.67183 17.1887 9.37465 16.5004 10.2147 16.0191C11.0547 15.5379 12.004 15.2797 12.972 15.2692C13.9401 15.2587 14.8947 15.4962 15.7449 15.9591C16.5952 16.4221 17.3128 17.0949 17.8294 17.9137C19.1971 17.2 20.7173 16.8281 22.26 16.83H22.4512C22.3769 16.6387 22.2812 16.4475 22.1856 16.2562L23.0994 14.5456C23.3016 14.1694 23.3777 13.7382 23.3165 13.3155C23.2553 12.8928 23.06 12.5009 22.7594 12.1975Z" fill="#2D4B6E"/>
<path d="M22.2608 18.955C20.773 18.955 19.3186 19.3962 18.0815 20.2227C16.8444 21.0493 15.8803 22.2242 15.3109 23.5987C14.7415 24.9733 14.5926 26.4858 14.8828 27.945C15.1731 29.4043 15.8895 30.7446 16.9416 31.7967C17.9936 32.8487 19.334 33.5652 20.7932 33.8554C22.2524 34.1457 23.765 33.9967 25.1395 33.4274C26.5141 32.858 27.6889 31.8938 28.5155 30.6568C29.3421 29.4197 29.7833 27.9653 29.7833 26.4775C29.7813 24.483 28.9881 22.5708 27.5778 21.1604C26.1675 19.7501 24.2553 18.9569 22.2608 18.955ZM24.3114 28.5387C24.1121 28.7361 23.8429 28.8468 23.5623 28.8468C23.2818 28.8468 23.0126 28.7361 22.8133 28.5387L21.5064 27.2319C21.4075 27.1329 21.3292 27.0153 21.2763 26.8857C21.2234 26.7562 21.1969 26.6174 21.1983 26.4775V23.715C21.1983 23.4332 21.3102 23.1629 21.5095 22.9637C21.7087 22.7644 21.979 22.6525 22.2608 22.6525C22.5426 22.6525 22.8128 22.7644 23.0121 22.9637C23.2113 23.1629 23.3233 23.4332 23.3233 23.715V26.0419L24.3114 27.03C24.5105 27.2306 24.6222 27.5017 24.6222 27.7844C24.6222 28.067 24.5105 28.3381 24.3114 28.5387ZM33.6837 5.61741L28.3733 0.380347C28.1745 0.183745 27.9061 0.0734863 27.6264 0.0734863C27.3468 0.0734863 27.0784 0.183745 26.8795 0.380347L21.5691 5.61847C21.4191 5.7664 21.3165 5.95557 21.2742 6.16196C21.232 6.36835 21.2521 6.58263 21.3319 6.77758C21.4117 6.97254 21.5477 7.13936 21.7226 7.25686C21.8974 7.37436 22.1032 7.43723 22.3139 7.43747H24.4389V10.625C24.4395 11.1884 24.6635 11.7286 25.0619 12.127C25.4603 12.5253 26.0005 12.7494 26.5639 12.75H28.6889C29.2523 12.7494 29.7925 12.5253 30.1909 12.127C30.5893 11.7286 30.8133 11.1884 30.8139 10.625V7.43747H32.9389C33.1498 7.43744 33.3559 7.37465 33.531 7.2571C33.7061 7.13955 33.8422 6.97256 33.9221 6.77738C34.002 6.58221 34.0219 6.36768 33.9795 6.16111C33.937 5.95454 33.8341 5.76528 33.6837 5.61741Z" fill="#2D4B6E"/>
</g>
<defs>
<clipPath id="clip0_806_3979">
<rect width="34" height="34" fill="white"/>
</clipPath>
</defs>
</svg>
