<svg width="32" height="30" viewBox="0 0 32 30" fill="none" xmlns="http://www.w3.org/2000/svg">
<path d="M29.2812 0.65625H2.71875C1.2525 0.65625 0.0625 1.84625 0.0625 3.3125V26.6875C0.0625 28.1537 1.2525 29.3438 2.71875 29.3438H29.2812C30.7475 29.3438 31.9375 28.1537 31.9375 26.6875V3.3125C31.9375 1.84625 30.7475 0.65625 29.2812 0.65625ZM6.96875 2.78125C7.26094 2.78125 7.5 3.02031 7.5 3.3125C7.5 3.60469 7.26094 3.84375 6.96875 3.84375C6.67656 3.84375 6.4375 3.60469 6.4375 3.3125C6.4375 3.02031 6.67656 2.78125 6.96875 2.78125ZM4.84375 2.78125C5.13594 2.78125 5.375 3.02031 5.375 3.3125C5.375 3.60469 5.13594 3.84375 4.84375 3.84375C4.55156 3.84375 4.3125 3.60469 4.3125 3.3125C4.3125 3.02031 4.55156 2.78125 4.84375 2.78125ZM2.71875 2.78125C3.01094 2.78125 3.25 3.02031 3.25 3.3125C3.25 3.60469 3.01094 3.84375 2.71875 3.84375C2.42656 3.84375 2.1875 3.60469 2.1875 3.3125C2.1875 3.02031 2.42656 2.78125 2.71875 2.78125ZM30.875 26.6875C30.875 27.5641 30.1578 28.2812 29.2812 28.2812H2.71875C1.84219 28.2812 1.125 27.5641 1.125 26.6875V5.96875H30.875V26.6875Z" fill="#2D4B6E"/>
<path d="M15.9313 15.7809C15.4691 16.0413 15.1398 16.4663 15.007 16.9763C14.8688 17.4809 14.9379 18.0122 15.2035 18.4637L15.501 18.9738C16.0429 19.9087 17.2541 20.2328 18.1998 19.6909C18.4866 19.5263 18.832 19.5262 19.1188 19.6962C19.4004 19.8609 19.5704 20.1478 19.5704 20.4719C19.5704 21.5556 20.4576 22.4375 21.5466 22.4375H22.1416C23.2307 22.4375 24.1179 21.5556 24.1179 20.4719C24.1179 20.1478 24.2879 19.8609 24.5695 19.6962C24.8563 19.5262 25.2016 19.5263 25.4885 19.6909C26.4341 20.2328 27.6454 19.9087 28.1873 18.9738L28.4848 18.4637C28.7504 18.0122 28.8195 17.4809 28.6813 16.9763C28.5485 16.4663 28.2191 16.0413 27.7623 15.7809C27.6242 15.7029 27.5092 15.5896 27.4291 15.4527C27.3489 15.3158 27.3064 15.1602 27.3058 15.0015C27.3053 14.8429 27.3467 14.687 27.426 14.5495C27.5052 14.4121 27.6194 14.2981 27.757 14.2191C28.2191 13.9588 28.5485 13.5338 28.6813 13.0238C28.8195 12.5191 28.7504 11.9878 28.4848 11.5362L28.1873 11.0263C27.6454 10.0913 26.4341 9.76719 25.4885 10.3091C25.2016 10.4738 24.8563 10.4737 24.5695 10.3038C24.2879 10.1391 24.1179 9.85219 24.1179 9.52813C24.1179 8.44438 23.2307 7.5625 22.1416 7.5625H21.5466C20.4576 7.5625 19.5704 8.44438 19.5704 9.52813C19.5704 9.85219 19.4004 10.1391 19.1188 10.3038C18.832 10.4737 18.4866 10.4738 18.1998 10.3091C17.2541 9.76719 16.0429 10.0913 15.501 11.0263L15.2035 11.5362C14.9379 11.9878 14.8688 12.5191 15.007 13.0238C15.1398 13.5338 15.4691 13.9588 15.926 14.2191C16.0641 14.2971 16.1791 14.4104 16.2592 14.5473C16.3394 14.6842 16.3819 14.8398 16.3825 14.9985C16.383 15.1571 16.3415 15.313 16.2623 15.4505C16.1831 15.5879 16.0689 15.7019 15.9313 15.7809ZM16.4573 16.7C17.0735 16.3494 17.4454 15.7119 17.4454 15C17.4454 14.2881 17.0788 13.6506 16.4573 13.2947C16.2448 13.1778 16.096 12.9813 16.0323 12.7475C15.9685 12.5191 16.0004 12.2747 16.1226 12.0675L16.4201 11.5575C16.6698 11.1272 17.2329 10.9784 17.6685 11.2281C18.2901 11.5841 19.0338 11.5841 19.6554 11.2281C19.9536 11.0573 20.2012 10.8105 20.373 10.5128C20.5447 10.215 20.6344 9.87712 20.6329 9.53344C20.6329 9.03406 21.042 8.63031 21.5466 8.63031H22.1416C22.6463 8.63031 23.0554 9.03406 23.0554 9.53344C23.0554 10.24 23.422 10.8722 24.0329 11.2281C24.6545 11.5894 25.3982 11.5894 26.0198 11.2281C26.4554 10.9784 27.0185 11.1272 27.2682 11.5575L27.5657 12.0675C27.6879 12.2747 27.7198 12.5191 27.656 12.7475C27.5923 12.9813 27.4435 13.1778 27.231 13.3C26.6148 13.6506 26.2429 14.2881 26.2429 15C26.2429 15.7119 26.6095 16.3494 27.231 16.7053C27.4435 16.8222 27.5923 17.0188 27.656 17.2525C27.7198 17.4809 27.6879 17.7253 27.5657 17.9325L27.2682 18.4425C27.0185 18.8728 26.4554 19.0216 26.0198 18.7719C25.7179 18.5966 25.3747 18.5047 25.0256 18.5056C24.6765 18.5065 24.3339 18.6003 24.0329 18.7772C23.7347 18.948 23.4871 19.1948 23.3153 19.4926C23.1436 19.7903 23.0539 20.1282 23.0554 20.4719C23.0554 20.9712 22.6463 21.375 22.1416 21.375H21.5466C21.042 21.375 20.6329 20.9712 20.6329 20.4719C20.6329 19.7653 20.2663 19.1331 19.6554 18.7772C19.342 18.5966 19.002 18.5062 18.6566 18.5062C18.3113 18.5062 17.982 18.5912 17.6685 18.7719C17.2329 19.0216 16.6698 18.8728 16.4201 18.4425L16.1226 17.9325C16.0004 17.7253 15.9685 17.4809 16.0323 17.2525C16.096 17.0188 16.2448 16.8222 16.4573 16.7Z" fill="#2D4B6E"/>
<path d="M21.8438 18.1875C23.6042 18.1875 25.0312 16.7604 25.0312 15C25.0312 13.2396 23.6042 11.8125 21.8438 11.8125C20.0833 11.8125 18.6562 13.2396 18.6562 15C18.6562 16.7604 20.0833 18.1875 21.8438 18.1875Z" fill="#2D4B6E"/>
<path d="M4.58409 21.3378C3.81909 21.7894 3.55346 22.7881 3.9944 23.5638L4.21752 23.9569C4.32268 24.144 4.46431 24.3081 4.63404 24.4395C4.80377 24.5709 4.99815 24.6669 5.20565 24.7219C5.62002 24.8334 6.05565 24.775 6.43284 24.5572C6.6719 24.4138 6.88971 24.5094 6.9694 24.5519C7.15002 24.6581 7.25627 24.8441 7.25627 25.0513C7.25627 25.9544 7.98409 26.6875 8.87127 26.6875H9.31752C10.2047 26.6875 10.9325 25.9544 10.9325 25.0513C10.9325 24.8441 11.0388 24.6581 11.2194 24.5519C11.2991 24.5094 11.5169 24.4138 11.756 24.5572C12.1331 24.775 12.5635 24.8334 12.9831 24.7219C13.4028 24.6103 13.7535 24.3394 13.9713 23.9569L14.1944 23.5691C14.6353 22.7881 14.3697 21.7894 13.6047 21.3378C13.3497 21.1944 13.3231 20.9447 13.3231 20.8438C13.3231 20.7428 13.3497 20.4931 13.6047 20.3497C14.3697 19.8981 14.6353 18.8994 14.1944 18.1184L13.9713 17.7306C13.7535 17.3481 13.4028 17.0772 12.9831 16.9656C12.5635 16.8541 12.1331 16.9125 11.756 17.1303C11.5169 17.2738 11.2991 17.1781 11.2194 17.1303C11.0388 17.0241 10.9325 16.8381 10.9325 16.6309C10.9325 15.7278 10.2047 14.9947 9.31752 14.9947H8.87127C7.98409 14.9947 7.25627 15.7278 7.25627 16.6309C7.25627 16.8381 7.15002 17.0241 6.9694 17.1303C6.88971 17.1728 6.6719 17.2684 6.43284 17.1303C6.24939 17.0229 6.04644 16.9531 5.83577 16.9248C5.6251 16.8965 5.41091 16.9104 5.20565 16.9656C4.78596 17.0772 4.43534 17.3481 4.21752 17.7306L3.9944 18.1184C3.55346 18.8994 3.81909 19.8981 4.58409 20.3497C4.83909 20.4931 4.86565 20.7428 4.86565 20.8438C4.86565 20.9447 4.83909 21.1944 4.58409 21.3378ZM5.12596 22.2569C5.63065 21.9594 5.92815 21.4334 5.92815 20.8438C5.92815 20.2541 5.63065 19.7281 5.12596 19.4306C4.85502 19.2713 4.76471 18.9206 4.91877 18.6444L5.1419 18.2566C5.21627 18.1238 5.33846 18.0281 5.4819 17.9909C5.5505 17.9726 5.62211 17.9683 5.69241 17.9783C5.76271 17.9883 5.83026 18.0125 5.89096 18.0494C6.39565 18.3416 6.99596 18.3469 7.50065 18.0547C8.01065 17.7625 8.31878 17.2313 8.31878 16.6363C8.31878 16.3175 8.56846 16.0625 8.87127 16.0625H9.31752C9.62034 16.0625 9.87002 16.3175 9.87002 16.6363C9.87002 17.2313 10.1781 17.7625 10.6881 18.0547C11.1928 18.3416 11.7931 18.3416 12.2978 18.0441C12.42 17.975 12.5688 17.9538 12.7069 17.9909C12.8503 18.0281 12.9725 18.1238 13.0469 18.2513L13.27 18.6444C13.4241 18.9206 13.3338 19.2713 13.0628 19.4306C12.5581 19.7281 12.2606 20.2541 12.2606 20.8438C12.2606 21.4334 12.5581 21.9594 13.0628 22.2569C13.3338 22.4163 13.4241 22.7669 13.27 23.0431L13.0469 23.4309C12.9725 23.5638 12.8503 23.6594 12.7069 23.6966C12.6383 23.7149 12.5667 23.7192 12.4964 23.7092C12.4261 23.6992 12.3585 23.675 12.2978 23.6381C11.7931 23.3459 11.1928 23.3406 10.6881 23.6328C10.1781 23.925 9.87002 24.4563 9.87002 25.0513C9.87002 25.37 9.62034 25.625 9.31752 25.625H8.87127C8.56846 25.625 8.31878 25.37 8.31878 25.0513C8.31878 24.4563 8.01065 23.925 7.50065 23.6328C7.25096 23.4894 6.97471 23.415 6.70377 23.415C6.43284 23.415 6.14596 23.4947 5.89096 23.6434C5.76877 23.7125 5.62002 23.7338 5.4819 23.6966C5.33846 23.6594 5.21627 23.5638 5.1419 23.4363L4.91877 23.0431C4.76471 22.7669 4.85502 22.4163 5.12596 22.2569Z" fill="#2D4B6E"/>
<path d="M9.09375 22.9688C10.2674 22.9688 11.2188 22.0174 11.2188 20.8438C11.2188 19.6701 10.2674 18.7188 9.09375 18.7188C7.92014 18.7188 6.96875 19.6701 6.96875 20.8438C6.96875 22.0174 7.92014 22.9688 9.09375 22.9688Z" fill="#2D4B6E"/>
</svg>
