<svg width="70" height="70" viewBox="0 0 70 70" fill="none" xmlns="http://www.w3.org/2000/svg">
<rect width="70" height="70" rx="10" fill="#E7E9FF"/>
<g clip-path="url(#clip0_806_1980)">
<path d="M54.8034 50.1246L51.4934 44.3915C51.5934 44.2757 51.7254 44.1855 51.8824 44.1311C52.75 43.8307 53.4555 43.0746 53.7694 42.1085C54.0834 41.1424 53.9571 40.116 53.4317 39.3629C53.212 39.048 53.212 38.6568 53.4316 38.342C53.9571 37.589 54.0834 36.5626 53.7695 35.5964C53.4555 34.6303 52.7502 33.8741 51.8825 33.5737C51.5196 33.4481 51.2896 33.1316 51.2823 32.7478C51.2647 31.8298 50.7636 30.9252 49.9418 30.3281C49.1198 29.7309 48.1047 29.5338 47.2263 29.8007C46.8589 29.9125 46.4868 29.7916 46.2552 29.4853C45.8534 28.9539 45.2492 28.5789 44.56 28.4126V27.8834C44.56 27.7176 44.4942 27.5587 44.3769 27.4415C44.2597 27.3242 44.1008 27.2584 43.935 27.2584H42.0731C41.7683 25.9965 41.2682 24.79 40.5909 23.6825L41.908 22.3652C42.0252 22.248 42.0911 22.089 42.0911 21.9233C42.0911 21.7575 42.0252 21.5986 41.908 21.4814L38.5768 18.15C38.5188 18.0919 38.4499 18.0459 38.374 18.0145C38.2982 17.9831 38.2169 17.9669 38.1348 17.9669C38.0528 17.9669 37.9715 17.9831 37.8957 18.0145C37.8198 18.0459 37.7509 18.0919 37.6929 18.15L36.3757 19.4671C35.2682 18.7898 34.0617 18.2897 32.7998 17.9848V16.1229C32.7998 15.9572 32.7339 15.7982 32.6167 15.681C32.4995 15.5638 32.3405 15.4979 32.1748 15.4979H27.4635C27.2978 15.4979 27.1388 15.5638 27.0216 15.681C26.9044 15.7982 26.8385 15.9572 26.8385 16.1229V17.9848C25.5766 18.2896 24.37 18.7897 23.2624 19.4671L21.9452 18.1499C21.8872 18.0918 21.8183 18.0458 21.7425 18.0144C21.6667 17.983 21.5854 17.9668 21.5033 17.9668C21.4212 17.9668 21.34 17.983 21.2642 18.0144C21.1883 18.0458 21.1194 18.0918 21.0614 18.1499L17.7299 21.481C17.6719 21.5391 17.6258 21.608 17.5944 21.6838C17.563 21.7596 17.5469 21.8409 17.5469 21.923C17.5469 22.0051 17.563 22.0864 17.5944 22.1622C17.6258 22.238 17.6719 22.3069 17.7299 22.365L19.0472 23.6822C18.3699 24.7898 17.8697 25.9964 17.5648 27.2583H15.7031C15.5374 27.2583 15.3784 27.3242 15.2612 27.4414C15.144 27.5586 15.0781 27.7176 15.0781 27.8833V32.5945C15.0781 32.7602 15.144 32.9192 15.2612 33.0364C15.3784 33.1536 15.5374 33.2195 15.7031 33.2195H17.5648C17.8697 34.4815 18.3698 35.6881 19.0472 36.7957L17.7301 38.1128C17.6129 38.23 17.547 38.3889 17.547 38.5547C17.547 38.7204 17.6129 38.8794 17.7301 38.9966L21.0613 42.3281C21.1194 42.3861 21.1883 42.4322 21.2641 42.4636C21.3399 42.495 21.4212 42.5112 21.5033 42.5112C21.5854 42.5112 21.6666 42.495 21.7425 42.4636C21.8183 42.4322 21.8872 42.3861 21.9452 42.3281L23.2624 41.0109C24.37 41.6882 25.5766 42.1884 26.8385 42.4932V44.355C26.8385 44.5207 26.9044 44.6797 27.0216 44.7969C27.1388 44.9141 27.2978 44.98 27.4635 44.98H32.1748C32.3405 44.98 32.4995 44.9141 32.6167 44.7969C32.7339 44.6797 32.7998 44.5207 32.7998 44.355V42.4929C33.1252 42.4134 33.4473 42.3208 33.7654 42.2156C34.0955 43.13 34.7792 43.842 35.6144 44.1311C35.7714 44.1855 35.9034 44.2757 36.0034 44.3915L32.6934 50.1245C32.5205 50.424 32.5365 50.7858 32.7352 51.0687C32.9338 51.3516 33.2687 51.4896 33.6092 51.4284L36.8201 50.8525L37.927 53.9214C38.0444 54.2468 38.3312 54.4678 38.6755 54.4984C38.7025 54.5008 38.7293 54.502 38.7559 54.502C39.0692 54.502 39.3546 54.3384 39.514 54.0624L42.3773 49.103C42.7941 49.2879 43.262 49.3891 43.7484 49.3892H43.7484C44.2348 49.3892 44.7027 49.2879 45.1196 49.103L47.9829 54.0623C48.1423 54.3384 48.4277 54.5019 48.7409 54.5019C48.7676 54.5019 48.7945 54.5007 48.8214 54.4983C49.1658 54.4678 49.4526 54.2466 49.57 53.9212L50.6768 50.8526L53.8877 51.4284C54.2283 51.4896 54.5631 51.3516 54.7618 51.0687C54.9604 50.7859 54.9764 50.4241 54.8034 50.1246ZM32.0525 41.3782C31.9107 41.4065 31.7832 41.483 31.6915 41.5948C31.5998 41.7065 31.5497 41.8466 31.5497 41.9911V43.7299H28.0884V41.9911C28.0884 41.8466 28.0383 41.7065 27.9467 41.5947C27.855 41.483 27.7274 41.4064 27.5856 41.3782C26.1289 41.0878 24.7618 40.5212 23.5223 39.694C23.4021 39.6138 23.2577 39.5777 23.1139 39.5919C22.9701 39.6061 22.8356 39.6698 22.7334 39.772L21.5033 41.0023L19.0559 38.5548L20.2861 37.3246C20.3883 37.2224 20.4519 37.0879 20.4661 36.944C20.4803 36.8002 20.4442 36.6559 20.364 36.5357C19.5371 35.2969 18.9705 33.9298 18.6798 32.4723C18.6516 32.3305 18.5751 32.2029 18.4633 32.1113C18.3515 32.0196 18.2114 31.9695 18.0669 31.9695H16.3281V28.5083H18.0669C18.2114 28.5083 18.3515 28.4582 18.4633 28.3665C18.5751 28.2749 18.6516 28.1473 18.6798 28.0055C18.9702 26.5489 19.5369 25.1818 20.364 23.9422C20.4442 23.822 20.4803 23.6777 20.4661 23.5339C20.4519 23.39 20.3882 23.2556 20.286 23.1534L19.0557 21.923L21.5032 19.4756L22.7335 20.7059C22.8357 20.8081 22.9702 20.8718 23.114 20.886C23.2579 20.9002 23.4022 20.8641 23.5224 20.7838C24.7612 19.957 26.1283 19.3903 27.5857 19.0997C27.7275 19.0715 27.855 18.9949 27.9467 18.8832C28.0384 18.7714 28.0885 18.6314 28.0885 18.4868V16.7479H31.5498V18.4868C31.5498 18.6314 31.5999 18.7715 31.6915 18.8832C31.7832 18.995 31.9108 19.0715 32.0526 19.0998C33.5092 19.3902 34.8763 19.9568 36.1157 20.784C36.2359 20.8643 36.3803 20.9004 36.5241 20.8862C36.668 20.8719 36.8024 20.8083 36.9046 20.706L38.135 19.4757L40.5824 21.9232L39.352 23.1535C39.2498 23.2557 39.1862 23.3902 39.172 23.534C39.1578 23.6778 39.1939 23.8222 39.2741 23.9424C40.1009 25.1812 40.6676 26.5482 40.9582 28.0055C40.9865 28.1473 41.063 28.2748 41.1747 28.3665C41.2865 28.4582 41.4266 28.5083 41.5711 28.5083H42.612C42.059 28.7032 41.5789 29.039 41.2415 29.4852C41.0099 29.7914 40.6378 29.9124 40.2705 29.8007C39.6667 29.6172 38.9982 29.653 38.3723 29.8872C38.1872 25.3291 34.4218 21.6777 29.819 21.6777C25.0984 21.6777 21.2578 25.5182 21.2578 30.2389C21.2578 34.9595 25.0984 38.8 29.819 38.8C31.2115 38.8 32.5665 38.465 33.7852 37.8266C33.8605 38.0084 33.953 38.1816 34.0648 38.3418C34.2845 38.6568 34.2845 39.048 34.0649 39.3628C33.7451 39.8212 33.5741 40.3811 33.5593 40.9668C33.0671 41.1385 32.5636 41.276 32.0525 41.3782ZM28.2922 34.2027C26.7162 33.5951 25.5724 31.9281 25.5724 30.2389C25.5724 28.9416 26.0538 28.0258 26.6472 27.3898V30.1344C26.6472 30.2441 26.6761 30.3519 26.7309 30.4469C26.7858 30.5419 26.8647 30.6208 26.9597 30.6757L29.5066 32.1462C29.6017 32.2011 29.7094 32.2299 29.8191 32.2299C29.9289 32.2299 30.0366 32.2011 30.1316 32.1462L32.6786 30.6757C32.7736 30.6208 32.8525 30.5419 32.9074 30.4469C32.9622 30.3519 32.9911 30.2441 32.9911 30.1344V27.3899C33.5845 28.0258 34.0658 28.9416 34.0658 30.2389C34.0658 31.9282 32.922 33.5951 31.3461 34.2027C31.2283 34.2481 31.127 34.3281 31.0556 34.4322C30.9841 34.5363 30.9459 34.6596 30.9459 34.7858V37.4628C30.1992 37.579 29.439 37.5792 28.6923 37.4632V34.7858C28.6923 34.6596 28.6541 34.5363 28.5827 34.4322C28.5112 34.3281 28.41 34.2481 28.2922 34.2027ZM33.7273 35.5962C33.6298 35.8953 33.5737 36.2062 33.5605 36.5205C33.1288 36.7786 32.6715 36.9911 32.1959 37.1546V35.1938C34.0262 34.2949 35.3158 32.2794 35.3158 30.2389C35.3158 28.2564 34.3845 26.5922 32.6933 25.5529C32.5986 25.4947 32.4901 25.4627 32.3789 25.4604C32.2677 25.4581 32.158 25.4855 32.0609 25.5397C31.9639 25.594 31.8831 25.6732 31.8268 25.7691C31.7706 25.865 31.741 25.9742 31.741 26.0853V29.7735L29.8191 30.8832L27.8971 29.7735V26.0853C27.8971 25.9742 27.8674 25.865 27.8112 25.7691C27.7549 25.6733 27.6741 25.5941 27.5771 25.5399C27.4801 25.4856 27.3703 25.4582 27.2592 25.4605C27.1481 25.4628 27.0395 25.4947 26.9448 25.5529C25.2537 26.5922 24.3223 28.2564 24.3223 30.2389C24.3223 32.2794 25.612 34.2949 27.4423 35.1938V37.153C24.5742 36.1643 22.508 33.4385 22.508 30.2388C22.508 26.2074 25.7877 22.9276 29.8191 22.9276C33.8505 22.9276 37.1303 26.2074 37.1303 30.2388C37.1303 30.3954 37.1234 30.5526 37.1135 30.7093C36.557 31.2777 36.2287 32.0081 36.2145 32.7475C36.2071 33.1314 35.9772 33.4479 35.6145 33.5735C34.7468 33.8739 34.0413 34.6301 33.7273 35.5962ZM38.8313 52.7447L37.817 49.9322C37.7669 49.7934 37.6693 49.6768 37.5415 49.603C37.4137 49.5293 37.2639 49.5031 37.1187 49.5291L34.1759 50.0568L36.4761 46.0727C36.7048 46.5732 37.0745 47.0277 37.555 47.3768C38.3769 47.9739 39.3921 48.1711 40.2705 47.904C40.638 47.7923 41.01 47.9132 41.2415 48.2195C41.2793 48.2692 41.3189 48.3177 41.3602 48.3646L38.8313 52.7447ZM43.7484 48.1392C43.1219 48.1392 42.5575 47.8874 42.2385 47.4656C41.8235 46.9168 41.1975 46.6132 40.5405 46.6132C40.3259 46.6134 40.1124 46.6454 39.9071 46.7081C39.4013 46.8619 38.7966 46.7338 38.2898 46.3655C37.783 45.9973 37.4743 45.4618 37.4642 44.9332C37.4469 44.0254 36.8813 43.247 36.0233 42.95C35.5236 42.777 35.1098 42.3179 34.9162 41.7221C34.7226 41.1263 34.7877 40.5117 35.0902 40.0782C35.6098 39.3336 35.6098 38.3714 35.0902 37.6267C34.7877 37.193 34.7226 36.5784 34.9162 35.9826C35.1098 35.3868 35.5238 34.9279 36.0234 34.755C36.8813 34.458 37.447 33.6795 37.4643 32.7717C37.4745 32.243 37.7831 31.7075 38.2899 31.3393C38.7967 30.9711 39.4013 30.843 39.9073 30.9968C40.7762 31.2608 41.6911 30.9635 42.2388 30.2393C42.5577 29.8175 43.1221 29.5657 43.7486 29.5657C44.3751 29.5657 44.9395 29.8176 45.2583 30.2393C45.8059 30.9636 46.7212 31.2608 47.5898 30.9968C48.0958 30.8432 48.7003 30.9712 49.2072 31.3394C49.714 31.7076 50.0226 32.2431 50.0327 32.7718C50.05 33.6795 50.6156 34.4579 51.4737 34.755C51.9734 34.928 52.3872 35.387 52.5808 35.9828C52.7744 36.5785 52.7093 37.1932 52.4067 37.6268C51.8872 38.3714 51.8872 39.3336 52.4067 40.0782C52.7093 40.5119 52.7743 41.1265 52.5807 41.7223C52.3871 42.3181 51.9733 42.777 51.4736 42.95C50.6156 43.247 50.05 44.0255 50.0327 44.9332C50.0226 45.4619 49.7139 45.9974 49.2071 46.3656C48.7003 46.7339 48.0955 46.8618 47.5898 46.7081C46.7211 46.4441 45.806 46.7414 45.2584 47.4656C44.9393 47.8873 44.3748 48.1392 43.7484 48.1392ZM50.3781 49.5291C50.2329 49.5031 50.0831 49.5293 49.9553 49.603C49.8275 49.6768 49.7299 49.7934 49.6798 49.9322L48.6655 52.7447L46.1366 48.3646C46.1779 48.3176 46.2175 48.2692 46.2553 48.2195C46.4868 47.9133 46.8588 47.7922 47.2263 47.904C48.1047 48.171 49.1198 47.974 49.9418 47.3768C50.4223 47.0276 50.792 46.5731 51.0208 46.0726L53.3211 50.0568L50.3781 49.5291ZM50.7027 38.8524C50.7027 35.0178 47.583 31.898 43.7484 31.898C39.9138 31.898 36.7941 35.0178 36.7941 38.8524C36.7941 42.687 39.9138 45.8068 43.7484 45.8068C47.583 45.8068 50.7027 42.6871 50.7027 38.8524ZM43.7484 44.5568C40.603 44.5568 38.0441 41.9978 38.0441 38.8524C38.0441 35.7069 40.603 33.148 43.7484 33.148C46.8938 33.148 49.4527 35.707 49.4527 38.8524C49.4527 41.9978 46.8938 44.5568 43.7484 44.5568ZM48.1952 37.2896C48.1572 37.1725 48.0855 37.0693 47.989 36.9929C47.8926 36.9164 47.7758 36.8702 47.6531 36.8599L45.2566 36.6586L44.3246 34.4415C44.2769 34.3281 44.1968 34.2312 44.0943 34.1631C43.9918 34.095 43.8715 34.0587 43.7484 34.0587C43.6254 34.0587 43.5051 34.095 43.4026 34.1631C43.3001 34.2312 43.22 34.3281 43.1723 34.4415L42.2402 36.6586L39.8437 36.8599C39.721 36.8702 39.6042 36.9164 39.5077 36.9929C39.4113 37.0693 39.3396 37.1725 39.3016 37.2895C39.2635 37.4066 39.2609 37.5322 39.294 37.6508C39.3271 37.7693 39.3944 37.8754 39.4876 37.9558L41.3081 39.5274L40.759 41.8689C40.731 41.9886 40.7389 42.114 40.7818 42.2293C40.8247 42.3446 40.9007 42.4447 41.0002 42.517C41.0997 42.5893 41.2184 42.6306 41.3413 42.6358C41.4642 42.641 41.5859 42.6099 41.6912 42.5462L43.7484 41.3003L45.8055 42.5462C45.9108 42.61 46.0325 42.6413 46.1555 42.6361C46.2785 42.631 46.3972 42.5896 46.4967 42.5172C46.5963 42.4449 46.6723 42.3448 46.7151 42.2294C46.758 42.1141 46.7659 41.9887 46.7378 41.8689L46.1887 39.5274L48.0092 37.9558C48.1024 37.8754 48.1697 37.7693 48.2028 37.6508C48.2359 37.5322 48.2332 37.4066 48.1952 37.2896ZM45.0854 38.8284C44.999 38.903 44.9347 38.9998 44.8994 39.1084C44.8641 39.2169 44.8593 39.333 44.8853 39.4442L45.1814 40.7067L44.0722 40.035C43.9746 39.9758 43.8626 39.9445 43.7484 39.9445C43.6343 39.9445 43.5223 39.9758 43.4247 40.035L42.3155 40.7067L42.6116 39.4442C42.6376 39.333 42.6328 39.2169 42.5975 39.1084C42.5622 38.9998 42.4979 38.903 42.4115 38.8284L41.4298 37.981L42.7221 37.8725C42.8359 37.863 42.9448 37.8225 43.0372 37.7554C43.1296 37.6883 43.2018 37.5972 43.246 37.4919L43.7485 36.2965L44.251 37.4919C44.2953 37.5972 44.3675 37.6883 44.4598 37.7554C44.5522 37.8225 44.6612 37.863 44.7749 37.8725L46.0671 37.981L45.0854 38.8284Z" fill="#003C95"/>
</g>
<defs>
<clipPath id="clip0_806_1980">
<rect width="40" height="40" fill="white" transform="translate(15 15)"/>
</clipPath>
</defs>
</svg>
