<svg width="86" height="14" viewBox="0 0 86 14" fill="none" xmlns="http://www.w3.org/2000/svg">
<g clip-path="url(#clip0_937_6722)">
<path d="M13.6284 5.00734L9.32456 4.34993L7.39547 0.240928C7.25139 -0.0659051 6.74797 -0.0659051 6.60389 0.240928L4.67539 4.34993L0.371557 5.00734C0.292094 5.01955 0.217531 5.05342 0.156055 5.10523C0.0945783 5.15704 0.0485664 5.22478 0.0230708 5.30103C-0.00242486 5.37727 -0.00641828 5.45907 0.011529 5.53744C0.0294762 5.61581 0.0686701 5.68771 0.124807 5.74526L3.25147 8.9501L2.51239 13.4808C2.49919 13.5619 2.50906 13.645 2.54087 13.7207C2.57267 13.7964 2.62513 13.8616 2.69225 13.9088C2.75936 13.9561 2.83843 13.9836 2.9204 13.988C3.00238 13.9925 3.08395 13.9738 3.15581 13.9341L6.99997 11.8096L10.8441 13.9347C10.916 13.9744 10.9976 13.9931 11.0795 13.9886C11.1615 13.9841 11.2406 13.9567 11.3077 13.9094C11.3748 13.8621 11.4273 13.7969 11.4591 13.7213C11.4909 13.6456 11.5008 13.5625 11.4876 13.4814L10.7485 8.95068L13.8751 5.74585C13.9314 5.68831 13.9708 5.61636 13.9888 5.53791C14.0069 5.45946 14.0029 5.37755 13.9774 5.3012C13.9519 5.22485 13.9058 5.15702 13.8442 5.10518C13.7827 5.05333 13.708 5.01948 13.6284 5.00734Z" fill="#FFC107"/>
</g>
<g clip-path="url(#clip1_937_6722)">
<path d="M31.6284 5.00734L27.3246 4.34993L25.3955 0.240928C25.2514 -0.0659051 24.748 -0.0659051 24.6039 0.240928L22.6754 4.34993L18.3716 5.00734C18.2921 5.01955 18.2175 5.05342 18.1561 5.10523C18.0946 5.15704 18.0486 5.22478 18.0231 5.30103C17.9976 5.37727 17.9936 5.45907 18.0115 5.53744C18.0295 5.61581 18.0687 5.68771 18.1248 5.74526L21.2515 8.9501L20.5124 13.4808C20.4992 13.5619 20.5091 13.645 20.5409 13.7207C20.5727 13.7964 20.6251 13.8616 20.6922 13.9088C20.7594 13.9561 20.8384 13.9836 20.9204 13.988C21.0024 13.9925 21.084 13.9738 21.1558 13.9341L25 11.8096L28.8441 13.9347C28.916 13.9744 28.9976 13.9931 29.0795 13.9886C29.1615 13.9841 29.2406 13.9567 29.3077 13.9094C29.3748 13.8621 29.4273 13.7969 29.4591 13.7213C29.4909 13.6456 29.5008 13.5625 29.4876 13.4814L28.7485 8.95068L31.8751 5.74585C31.9314 5.68831 31.9708 5.61636 31.9888 5.53791C32.0069 5.45946 32.0029 5.37755 31.9774 5.3012C31.9519 5.22485 31.9058 5.15702 31.8442 5.10518C31.7827 5.05333 31.708 5.01948 31.6284 5.00734Z" fill="#FFC107"/>
</g>
<g clip-path="url(#clip2_937_6722)">
<path d="M49.6284 5.00734L45.3246 4.34993L43.3955 0.240928C43.2514 -0.0659051 42.748 -0.0659051 42.6039 0.240928L40.6754 4.34993L36.3716 5.00734C36.2921 5.01955 36.2175 5.05342 36.1561 5.10523C36.0946 5.15704 36.0486 5.22478 36.0231 5.30103C35.9976 5.37727 35.9936 5.45907 36.0115 5.53744C36.0295 5.61581 36.0687 5.68771 36.1248 5.74526L39.2515 8.9501L38.5124 13.4808C38.4992 13.5619 38.5091 13.645 38.5409 13.7207C38.5727 13.7964 38.6251 13.8616 38.6922 13.9088C38.7594 13.9561 38.8384 13.9836 38.9204 13.988C39.0024 13.9925 39.084 13.9738 39.1558 13.9341L43 11.8096L46.8441 13.9347C46.916 13.9744 46.9976 13.9931 47.0795 13.9886C47.1615 13.9841 47.2406 13.9567 47.3077 13.9094C47.3748 13.8621 47.4273 13.7969 47.4591 13.7213C47.4909 13.6456 47.5008 13.5625 47.4876 13.4814L46.7485 8.95068L49.8751 5.74585C49.9314 5.68831 49.9708 5.61636 49.9888 5.53791C50.0069 5.45946 50.0029 5.37755 49.9774 5.3012C49.9519 5.22485 49.9058 5.15702 49.8442 5.10518C49.7827 5.05333 49.708 5.01948 49.6284 5.00734Z" fill="#FFC107"/>
</g>
<g clip-path="url(#clip3_937_6722)">
<path d="M67.6284 5.00734L63.3246 4.34993L61.3955 0.240928C61.2514 -0.0659051 60.748 -0.0659051 60.6039 0.240928L58.6754 4.34993L54.3716 5.00734C54.2921 5.01955 54.2175 5.05342 54.1561 5.10523C54.0946 5.15704 54.0486 5.22478 54.0231 5.30103C53.9976 5.37727 53.9936 5.45907 54.0115 5.53744C54.0295 5.61581 54.0687 5.68771 54.1248 5.74526L57.2515 8.9501L56.5124 13.4808C56.4992 13.5619 56.5091 13.645 56.5409 13.7207C56.5727 13.7964 56.6251 13.8616 56.6922 13.9088C56.7594 13.9561 56.8384 13.9836 56.9204 13.988C57.0024 13.9925 57.084 13.9738 57.1558 13.9341L61 11.8096L64.8441 13.9347C64.916 13.9744 64.9976 13.9931 65.0795 13.9886C65.1615 13.9841 65.2406 13.9567 65.3077 13.9094C65.3748 13.8621 65.4273 13.7969 65.4591 13.7213C65.4909 13.6456 65.5008 13.5625 65.4876 13.4814L64.7485 8.95068L67.8751 5.74585C67.9314 5.68831 67.9708 5.61636 67.9888 5.53791C68.0069 5.45946 68.0029 5.37755 67.9774 5.3012C67.9519 5.22485 67.9058 5.15702 67.8442 5.10518C67.7827 5.05333 67.708 5.01948 67.6284 5.00734Z" fill="#FFC107"/>
</g>
<g clip-path="url(#clip4_937_6722)">
<path d="M75.2515 8.96114L74.5124 13.4919C74.4994 13.5729 74.5095 13.6558 74.5413 13.7314C74.5732 13.807 74.6257 13.8721 74.6927 13.9193C74.7597 13.9665 74.8387 13.994 74.9206 13.9985C75.0024 14.0031 75.0839 13.9846 75.1558 13.9451L79 11.8206L82.8442 13.9457C82.916 13.986 82.9978 14.0051 83.08 14.0008C83.1623 13.9965 83.2416 13.9691 83.3089 13.9216C83.3762 13.8742 83.4287 13.8086 83.4603 13.7326C83.4919 13.6565 83.5014 13.5731 83.4876 13.4919L82.7485 8.96114L85.8752 5.75631C85.9313 5.69876 85.9705 5.62685 85.9884 5.54849C86.0064 5.47012 86.0024 5.38832 85.9769 5.31208C85.9514 5.23583 85.9054 5.16808 85.8439 5.11628C85.7824 5.06447 85.7079 5.0306 85.6284 5.01839L81.3246 4.36098L79.3955 0.251976C79.2514 -0.0548578 78.748 -0.0548578 78.6039 0.251976L76.6754 4.36098L72.3716 5.01839C72.2921 5.03051 72.2174 5.06432 72.1559 5.11609C72.0943 5.16786 72.0482 5.2356 72.0227 5.31186C71.9971 5.38812 71.9931 5.46995 72.011 5.54836C72.0289 5.62677 72.0681 5.69872 72.1242 5.75631L75.2515 8.96114ZM77.0382 5.19048C77.1092 5.17961 77.1763 5.15147 77.2338 5.10854C77.2912 5.06562 77.3373 5.00922 77.3678 4.94431L79 1.46706L80.6322 4.94373C80.6626 5.00872 80.7086 5.06521 80.7661 5.10815C80.8236 5.15109 80.8908 5.17917 80.9617 5.18989L84.6548 5.75398L81.9686 8.50731C81.9207 8.55632 81.8849 8.6159 81.8642 8.68126C81.8436 8.74661 81.8386 8.81591 81.8496 8.88356L82.4796 12.7435L79.2117 10.9375C79.1468 10.9019 79.074 10.8832 79 10.8832C78.926 10.8832 78.8531 10.9019 78.7882 10.9375L75.5204 12.7435L76.1504 8.88356C76.1614 8.81591 76.1564 8.74661 76.1357 8.68126C76.1151 8.6159 76.0793 8.55632 76.0314 8.50731L73.3452 5.75398L77.0382 5.19048Z" fill="#FFC107"/>
</g>
<defs>
<clipPath id="clip0_937_6722">
<rect width="14" height="14" fill="white"/>
</clipPath>
<clipPath id="clip1_937_6722">
<rect width="14" height="14" fill="white" transform="translate(18)"/>
</clipPath>
<clipPath id="clip2_937_6722">
<rect width="14" height="14" fill="white" transform="translate(36)"/>
</clipPath>
<clipPath id="clip3_937_6722">
<rect width="14" height="14" fill="white" transform="translate(54)"/>
</clipPath>
<clipPath id="clip4_937_6722">
<rect width="14" height="14" fill="white" transform="translate(72)"/>
</clipPath>
</defs>
</svg>
