<svg width="51" height="50" viewBox="0 0 51 50" fill="none" xmlns="http://www.w3.org/2000/svg">
<path d="M22.5454 40.447V45.5454H15.4621V40.447C15.4621 39.6288 16.1212 38.9773 16.9318 38.9773H21.0757C21.8863 38.9773 22.5454 39.6363 22.5454 40.447ZM45.7954 28V45.5454H38.7121V28C38.7121 27.1894 39.3712 26.5303 40.1818 26.5303H44.3257C45.1363 26.5303 45.7954 27.197 45.7954 28ZM34.1742 35.9242V45.5454H27.0909V35.9242C27.0909 35.1136 27.75 34.4545 28.5606 34.4545H32.7045C33.5151 34.4621 34.1742 35.1212 34.1742 35.9242ZM48.2424 48.4848H13.0151C12.606 48.4848 12.2803 48.1591 12.2803 47.75C12.2803 47.3409 12.606 47.0151 13.0151 47.0151H48.2424C48.6515 47.0151 48.9773 47.3409 48.9773 47.75C48.9773 48.1591 48.6515 48.4848 48.2424 48.4848ZM27.9848 12.9545C27.6818 11.6591 27.1742 10.4318 26.4697 9.30302C26.4394 9.25756 26.4166 9.20453 26.3939 9.14392C26.3409 8.99185 26.3409 8.8263 26.3939 8.67423C26.4091 8.63635 26.4242 8.59847 26.4469 8.56059L27.3788 6.82574L25.0682 4.51514L23.3333 5.44695C23.2954 5.46968 23.2576 5.48483 23.2197 5.49999C23.0682 5.55302 22.9015 5.55302 22.75 5.49999C22.6969 5.48483 22.6439 5.45453 22.5909 5.42423C21.4621 4.71968 20.2348 4.21211 18.9394 3.90908C18.8172 3.87962 18.7045 3.8197 18.6118 3.73492C18.5191 3.65014 18.4493 3.54325 18.4091 3.42423L17.8333 1.51514H14.5606L13.9924 3.4015C13.9166 3.65908 13.7045 3.84847 13.4469 3.90908C12.1515 4.21211 10.9242 4.71968 9.79543 5.42423C9.59088 5.56059 9.31058 5.56817 9.0833 5.45453L7.32573 4.51514L5.01512 6.82574L5.95452 8.56059C5.97724 8.59847 5.9924 8.63635 6.00755 8.67423C6.07573 8.88635 6.04543 9.12877 5.92421 9.31817C5.23043 10.4383 4.7238 11.6639 4.42421 12.947C4.36361 13.1894 4.18179 13.4015 3.93936 13.4773L2.03027 14.053V17.3257L3.91664 17.8939C4.17421 17.9697 4.36361 18.1818 4.42421 18.4394C4.72724 19.7348 5.23482 20.9621 5.93937 22.0909C6.07573 22.303 6.09088 22.5833 5.97724 22.8106L5.03027 24.5682L7.34088 26.8788L9.07573 25.947C9.19058 25.8852 9.31966 25.8548 9.44999 25.8588C9.58032 25.8628 9.7073 25.901 9.81815 25.9697C10.9469 26.6742 12.1742 27.1818 13.4697 27.4848C13.7197 27.5454 13.9242 27.7273 14.0075 27.9697L14.5833 29.8788H17.856L18.4242 27.9924C18.4848 27.7954 18.6212 27.6363 18.803 27.5454C18.856 27.5227 18.9091 27.5 18.9621 27.4848C20.2576 27.1818 21.4848 26.6742 22.6136 25.9697C22.803 25.856 23.0303 25.8257 23.2424 25.8939C23.2803 25.9091 23.3182 25.9242 23.356 25.947L25.0909 26.8788L27.4015 24.5682L26.4697 22.8333C26.4144 22.7284 26.3849 22.6119 26.3835 22.4933C26.3822 22.3748 26.4092 22.2576 26.4621 22.1515C27.1969 20.9621 27.7121 19.7348 28.0076 18.4394C28.0682 18.1894 28.25 17.9848 28.4924 17.9015L30.4015 17.3257V14.053L28.5151 13.4848C28.3862 13.4544 28.2683 13.3887 28.1746 13.2951C28.0809 13.2014 28.0152 13.0835 27.9848 12.9545ZM16.1969 24.4167C11.3863 24.4167 7.46967 20.5 7.46967 15.6894C7.46967 10.8788 11.3863 6.96968 16.1969 6.96968C21.0075 6.96968 24.9242 10.8863 24.9242 15.697C24.9242 20.5076 21.0075 24.4167 16.1969 24.4167Z" fill="#2D4B6E"/>
<path d="M16.197 8.43945C12.197 8.43945 8.93945 11.697 8.93945 15.697C8.93945 19.697 12.197 22.9546 16.197 22.9546C20.197 22.9546 23.4546 19.697 23.4546 15.697C23.4546 11.697 20.197 8.43945 16.197 8.43945ZM16.197 9.394C16.3921 9.3942 16.5791 9.47189 16.717 9.60999C16.8548 9.74808 16.9321 9.93527 16.9319 10.1304C16.9317 10.3255 16.854 10.5125 16.7159 10.6503C16.5778 10.7881 16.3906 10.8654 16.1955 10.8652C16.0004 10.865 15.8134 10.7873 15.6756 10.6492C15.5378 10.5111 15.4605 10.3239 15.4607 10.1288C15.4609 9.93375 15.5386 9.74673 15.6767 9.60892C15.8148 9.47111 16.0019 9.3938 16.197 9.394ZM10.6364 16.4243C10.4413 16.4241 10.2543 16.3464 10.1165 16.2083C9.97868 16.0702 9.90137 15.883 9.90157 15.6879C9.90178 15.4928 9.97947 15.3058 10.1176 15.168C10.2557 15.0302 10.4428 14.9529 10.6379 14.9531C10.833 14.9533 11.0201 15.031 11.1579 15.1691C11.2957 15.3072 11.373 15.4944 11.3728 15.6895C11.3726 15.8845 11.2949 16.0716 11.1568 16.2094C11.0187 16.3472 10.8315 16.4245 10.6364 16.4243ZM12.7879 20.144C12.5001 20.4319 12.0379 20.4319 11.7501 20.144C11.4622 19.8561 11.4622 19.394 11.7501 19.1061C12.0379 18.8182 12.5001 18.8182 12.7879 19.1061C13.0682 19.394 13.0682 19.8561 12.7879 20.144ZM12.7879 12.2804C12.5001 12.5682 12.0379 12.5682 11.7501 12.2804C11.4622 11.9925 11.4622 11.5304 11.7501 11.2425C12.0379 10.9546 12.5001 10.9546 12.7879 11.2425C13.0682 11.5304 13.0682 11.9925 12.7879 12.2804ZM16.197 21.9925C15.7879 21.9925 15.4622 21.6667 15.4622 21.2576C15.4622 20.8485 15.7879 20.5228 16.197 20.5228C16.3919 20.5228 16.5788 20.6002 16.7166 20.738C16.8545 20.8758 16.9319 21.0627 16.9319 21.2576C16.9319 21.4525 16.8545 21.6394 16.7166 21.7773C16.5788 21.9151 16.3919 21.9925 16.197 21.9925ZM18.7349 18.2273C18.591 18.3713 18.4016 18.4395 18.2198 18.4395C18.0379 18.4395 17.841 18.3713 17.7046 18.2273L15.6895 16.2122C15.5539 16.075 15.4777 15.8899 15.4773 15.697V13.5531C15.4773 13.144 15.8031 12.8182 16.2122 12.8182C16.6213 12.8182 16.947 13.144 16.947 13.5531V15.0682L17.2501 15.697L18.7425 17.1895C19.0228 17.4773 19.0228 17.9395 18.7349 18.2273ZM20.6516 20.144C20.3637 20.4319 19.9016 20.4319 19.6137 20.144C19.3258 19.8561 19.3258 19.394 19.6137 19.1061C19.9016 18.8182 20.3637 18.8182 20.6516 19.1061C20.9395 19.394 20.9395 19.8561 20.6516 20.144ZM20.6516 12.2804C20.3637 12.5682 19.9016 12.5682 19.6137 12.2804C19.3258 11.9925 19.3258 11.5304 19.6137 11.2425C19.9016 10.9546 20.3637 10.9546 20.6516 11.2425C20.9395 11.5304 20.9395 11.9925 20.6516 12.2804ZM22.5001 15.697C22.5001 16.1061 22.1743 16.4319 21.7652 16.4319C21.3561 16.4319 21.0304 16.1061 21.0304 15.697C21.0304 15.2879 21.3561 14.9622 21.7652 14.9622C22.1667 14.9622 22.5001 15.2879 22.5001 15.697ZM43.144 19.2046V19.2728L43.1364 19.3258L42.7046 24.0985C42.6667 24.4773 42.3561 24.7652 41.9773 24.7652C41.9546 24.7652 41.9319 24.7652 41.9016 24.7576C41.8059 24.7492 41.7128 24.7218 41.6277 24.6772C41.5427 24.6325 41.4673 24.5714 41.406 24.4975C41.3447 24.4235 41.2987 24.3381 41.2706 24.2462C41.2426 24.1543 41.233 24.0578 41.2425 23.9622L41.4698 21.4622C35.1819 28.5228 26.4773 33.6516 17.7652 35.3485C17.7198 35.3561 17.6667 35.3637 17.6288 35.3637C17.2804 35.3637 16.9773 35.1213 16.9092 34.7728C16.8898 34.6782 16.8896 34.5806 16.9086 34.4859C16.9276 34.3912 16.9654 34.3013 17.0198 34.2214C17.0742 34.1416 17.1441 34.0735 17.2253 34.0212C17.3065 33.9688 17.3973 33.9333 17.4925 33.9167C25.9395 32.2728 34.394 27.2728 40.4773 20.3864L37.841 20.9622C37.7469 20.9838 37.6494 20.9864 37.5543 20.9698C37.4592 20.9532 37.3684 20.9178 37.2872 20.8655C37.206 20.8133 37.1361 20.7453 37.0816 20.6656C37.0271 20.586 36.989 20.4962 36.9698 20.4016C36.9481 20.3075 36.9455 20.21 36.9621 20.1149C36.9787 20.0198 37.0142 19.929 37.0664 19.8478C37.1186 19.7666 37.1866 19.6967 37.2663 19.6422C37.346 19.5877 37.4358 19.5496 37.5304 19.5304L42.2501 18.5001H42.2652C42.3182 18.4925 42.3713 18.4849 42.4167 18.4849C42.4622 18.4849 42.5076 18.4925 42.5455 18.5001C42.6213 18.5076 42.697 18.5379 42.7652 18.5758C42.8031 18.5985 42.841 18.6213 42.8713 18.6516C42.8864 18.6516 42.894 18.6667 42.9092 18.6743C42.9243 18.6895 42.9319 18.7122 42.947 18.7273C43.0001 18.7879 43.0455 18.8485 43.0834 18.9167C43.1213 18.9925 43.144 19.091 43.144 19.2046Z" fill="#2D4B6E"/>
</svg>
