<svg width="20" height="14" viewBox="0 0 20 14" fill="none" xmlns="http://www.w3.org/2000/svg">
<path d="M18.9212 6.39038L13.0879 0.557047C12.9307 0.405249 12.7202 0.321253 12.5017 0.323152C12.2832 0.32505 12.0742 0.412691 11.9197 0.567198C11.7652 0.721705 11.6775 0.930715 11.6756 1.14921C11.6737 1.36771 11.7577 1.57821 11.9095 1.73538L16.3204 6.14621H1.66536C1.44435 6.14621 1.23239 6.23401 1.07611 6.39029C0.919829 6.54657 0.832031 6.75853 0.832031 6.97955C0.832031 7.20056 0.919829 7.41252 1.07611 7.5688C1.23239 7.72508 1.44435 7.81288 1.66536 7.81288H16.3204L11.9095 12.2237C11.8299 12.3006 11.7665 12.3925 11.7228 12.4942C11.6791 12.5959 11.6561 12.7052 11.6552 12.8159C11.6542 12.9265 11.6753 13.0363 11.7172 13.1387C11.7591 13.2411 11.821 13.3341 11.8992 13.4124C11.9774 13.4906 12.0705 13.5525 12.1729 13.5944C12.2753 13.6363 12.385 13.6574 12.4957 13.6564C12.6063 13.6555 12.7157 13.6325 12.8174 13.5888C12.919 13.5451 13.011 13.4816 13.0879 13.402L18.9212 7.56871C19.0774 7.41244 19.1652 7.20052 19.1652 6.97955C19.1652 6.75858 19.0774 6.54665 18.9212 6.39038Z" fill="#2D4B6E"/>
</svg>
