<svg width="16" height="18" viewBox="0 0 16 18" fill="none" xmlns="http://www.w3.org/2000/svg">
<path fill-rule="evenodd" clip-rule="evenodd" d="M4.04955 4.62498H2.94246C2.57366 4.62499 2.21856 4.76474 1.94866 5.01608C1.67876 5.26743 1.51412 5.61169 1.48788 5.97956L0.773715 15.9796C0.759469 16.1793 0.786511 16.3798 0.853156 16.5687C0.919802 16.7575 1.02462 16.9306 1.16109 17.0771C1.29755 17.2237 1.46273 17.3406 1.64634 17.4205C1.82995 17.5004 2.02805 17.5416 2.2283 17.5416H13.7716C13.9718 17.5415 14.1699 17.5002 14.3534 17.4202C14.537 17.3403 14.7021 17.2234 14.8386 17.0769C14.975 16.9303 15.0798 16.7573 15.1465 16.5685C15.2132 16.3798 15.2403 16.1793 15.2262 15.9796L14.512 5.97956C14.4858 5.61169 14.3212 5.26743 14.0513 5.01608C13.7814 4.76474 13.4263 4.62499 13.0575 4.62498H11.9583V4.41665C11.9583 3.36683 11.5413 2.36001 10.7989 1.61768C10.0566 0.875351 9.04978 0.458313 7.99997 0.458313C5.89371 0.458313 3.94705 2.13581 4.04163 4.41665L4.04955 4.62498ZM11.9583 5.87498V8.99998C11.9583 9.16574 11.8925 9.32471 11.7752 9.44192C11.658 9.55913 11.4991 9.62498 11.3333 9.62498C11.1675 9.62498 11.0086 9.55913 10.8914 9.44192C10.7741 9.32471 10.7083 9.16574 10.7083 8.99998V5.87498H5.29163V8.99998C5.29163 9.16574 5.22578 9.32471 5.10857 9.44192C4.99136 9.55913 4.83239 9.62498 4.66663 9.62498C4.50087 9.62498 4.3419 9.55913 4.22469 9.44192C4.10748 9.32471 4.04163 9.16574 4.04163 8.99998C4.04163 8.99998 4.0958 7.53956 4.07788 5.87498H2.94246C2.88986 5.87505 2.83923 5.89503 2.80074 5.93089C2.76225 5.96675 2.73875 6.01584 2.73496 6.06831L2.02038 16.0683C2.01832 16.0969 2.02217 16.1256 2.03168 16.1526C2.0412 16.1796 2.05618 16.2043 2.07569 16.2253C2.0952 16.2462 2.11882 16.2629 2.14508 16.2744C2.17134 16.2858 2.19967 16.2917 2.2283 16.2916H13.7716C13.8002 16.2915 13.8285 16.2856 13.8547 16.2741C13.8809 16.2627 13.9045 16.2459 13.924 16.225C13.9434 16.2041 13.9584 16.1794 13.968 16.1524C13.9776 16.1255 13.9815 16.0968 13.9795 16.0683L13.265 6.06831C13.2612 6.01584 13.2377 5.96675 13.1992 5.93089C13.1607 5.89503 13.1101 5.87505 13.0575 5.87498H11.9583ZM10.7083 4.62498V4.41665C10.7083 3.69835 10.423 3.00948 9.91505 2.50157C9.40713 1.99365 8.71826 1.70831 7.99997 1.70831C7.28167 1.70831 6.5928 1.99365 6.08488 2.50157C5.57697 3.00948 5.29163 3.69835 5.29163 4.41665V4.62498H10.7083Z" fill="#2D4B6E"/>
</svg>
