<svg width="14" height="8" viewBox="0 0 14 8" fill="none" xmlns="http://www.w3.org/2000/svg">
<path d="M1.49386 0.318786L7.00015 5.82505L12.5064 0.318786C12.5875 0.236724 12.684 0.171504 12.7904 0.126875C12.8968 0.0822468 13.0109 0.0590906 13.1262 0.0587406C13.2416 0.0583901 13.3559 0.080853 13.4625 0.124835C13.5692 0.168817 13.6661 0.233451 13.7476 0.315018C13.8292 0.396585 13.8938 0.493476 13.9378 0.600116C13.9818 0.706756 14.0043 0.82104 14.0039 0.936393C14.0036 1.05175 13.9804 1.16589 13.9358 1.27226C13.8911 1.37863 13.8259 1.47513 13.7439 1.5562L7.61886 7.6812C7.45476 7.84529 7.23221 7.93747 7.00015 7.93747C6.76809 7.93747 6.54554 7.84529 6.38144 7.6812L0.256443 1.5562C0.0939946 1.39177 0.00320864 1.16974 0.00391029 0.938593C0.00461193 0.70745 0.0967442 0.485974 0.260188 0.322531C0.423631 0.159087 0.645107 0.0669546 0.87625 0.0662532C1.10739 0.0655518 1.32942 0.156337 1.49386 0.318786Z" fill="#2D4B6E"/>
</svg>
