<svg width="86" height="85" viewBox="0 0 86 85" fill="none" xmlns="http://www.w3.org/2000/svg">
<path d="M85.1038 22.54C89.5781 37.3908 76.7058 57.9478 59.7033 70.677C42.632 83.4794 21.4306 88.3809 10.1415 79.4558C-1.14762 70.6039 -2.52434 47.9253 3.60206 30.6604C9.72845 13.3954 23.4268 1.54404 41.1176 0.154066C58.8773 -1.30907 80.6294 7.76235 85.1038 22.54Z" fill="#BED3CC"/>
<path d="M44.7497 58.6458H70.1872C72.1382 58.6495 74.0273 57.9616 75.5192 56.7044C77.0111 55.4471 78.0091 53.7019 78.3361 51.7785C78.6631 49.8551 78.2978 47.8781 77.3052 46.1985C76.3126 44.5188 74.7569 43.2454 72.9143 42.6041C72.926 42.4478 72.926 42.2907 72.9143 42.1343C72.9054 40.6988 72.523 39.2903 71.8049 38.0472C71.0867 36.8042 70.0575 35.7694 68.8183 35.0446C67.5791 34.3198 66.1726 33.93 64.7372 33.9134C63.3017 33.8968 61.8866 34.254 60.631 34.95C59.5983 33.3398 58.0383 32.1385 56.2177 31.5515C54.3971 30.9646 52.4292 31.0285 50.6505 31.7324C48.8719 32.4363 47.3931 33.7363 46.4672 35.4102C45.5413 37.084 45.2258 39.0275 45.5747 40.9083C44.1966 41.2271 42.9943 42.0645 42.2175 43.2467C41.4408 44.4288 41.1494 45.8648 41.4039 47.2562C40.2806 47.9796 39.4217 49.0471 38.9555 50.2991C38.4893 51.5511 38.4408 52.9204 38.8174 54.2023C39.1939 55.4841 39.9753 56.6096 41.0446 57.4106C42.1139 58.2115 43.4137 58.6449 44.7497 58.6458ZM69.0185 76.9791H63.083V60.9375H60.7914V78.125C60.7914 78.4289 60.9121 78.7203 61.127 78.9352C61.3419 79.1501 61.6333 79.2708 61.9372 79.2708H69.0185C69.2888 80.0353 69.8206 80.6797 70.52 81.09C71.2195 81.5003 72.0414 81.6501 72.8406 81.513C73.6399 81.3758 74.3649 80.9606 74.8875 80.3406C75.4102 79.7206 75.6969 78.9359 75.6969 78.125C75.6969 77.3141 75.4102 76.5293 74.8875 75.9093C74.3649 75.2893 73.6399 74.8741 72.8406 74.737C72.0414 74.5999 71.2195 74.7497 70.52 75.16C69.8206 75.5703 69.2888 76.2146 69.0185 76.9791Z" fill="#2D4B6E"/>
<path d="M75.8937 66.6667H69.9583V60.9375H67.6667V67.8125C67.6667 68.1164 67.7874 68.4078 68.0023 68.6227C68.2172 68.8376 68.5086 68.9583 68.8125 68.9583H75.8937C76.164 69.7228 76.6959 70.3672 77.3953 70.7775C78.0948 71.1878 78.9167 71.3376 79.7159 71.2005C80.5152 71.0634 81.2402 70.6481 81.7628 70.0282C82.2855 69.4082 82.5722 68.6234 82.5722 67.8125C82.5722 67.0016 82.2855 66.2168 81.7628 65.5968C81.2402 64.9769 80.5152 64.5616 79.7159 64.4245C78.9167 64.2874 78.0948 64.4372 77.3953 64.8475C76.6959 65.2578 76.164 65.9022 75.8937 66.6667ZM53.9167 70.1042H48.1875C47.8836 70.1042 47.5922 70.2249 47.3773 70.4398C47.1624 70.6547 47.0417 70.9461 47.0417 71.25V77.1854C46.2771 77.4557 45.6328 77.9876 45.2225 78.687C44.8122 79.3864 44.6624 80.2084 44.7995 81.0076C44.9366 81.8068 45.3519 82.5318 45.9718 83.0545C46.5918 83.5772 47.3766 83.8638 48.1875 83.8638C48.9984 83.8638 49.7832 83.5772 50.4031 83.0545C51.0231 82.5318 51.4384 81.8068 51.5755 81.0076C51.7126 80.2084 51.5628 79.3864 51.1525 78.687C50.7422 77.9876 50.0978 77.4557 49.3333 77.1854V72.3958H55.0625C55.3664 72.3958 55.6578 72.2751 55.8727 72.0602C56.0876 71.8453 56.2083 71.5539 56.2083 71.25V60.9375H53.9167V70.1042ZM48.1875 66.6667C48.4914 66.6667 48.7828 66.5459 48.9977 66.3311C49.2126 66.1162 49.3333 65.8247 49.3333 65.5208V60.9375H47.0417V64.375H41.1062C40.8359 63.6105 40.3041 62.9661 39.6047 62.5558C38.9052 62.1455 38.0833 61.9957 37.2841 62.1328C36.4848 62.27 35.7598 62.6852 35.2372 63.3052C34.7145 63.9252 34.4278 64.7099 34.4278 65.5208C34.4278 66.3317 34.7145 67.1165 35.2372 67.7365C35.7598 68.3565 36.4848 68.7717 37.2841 68.9088C38.0833 69.046 38.9052 68.8961 39.6047 68.4858C40.3041 68.0755 40.8359 67.4312 41.1062 66.6667H48.1875Z" fill="#2D4B6E"/>
</svg>
