<svg width="87" height="87" viewBox="0 0 87 87" fill="none" xmlns="http://www.w3.org/2000/svg">
<path d="M85.1038 22.54C89.5781 37.3908 76.7058 57.9478 59.7033 70.677C42.632 83.4794 21.4306 88.3809 10.1415 79.4558C-1.14762 70.6039 -2.52434 47.9253 3.60206 30.6604C9.72845 13.3954 23.4268 1.54404 41.1176 0.154066C58.8773 -1.30907 80.6294 7.76235 85.1038 22.54Z" fill="#BED3CC" fill-opacity="0.5"/>
<path d="M56.2503 76.4918V82.1001H48.4586V76.4918C48.4586 75.5918 49.1836 74.8751 50.0753 74.8751H54.6336C55.5253 74.8751 56.2503 75.6001 56.2503 76.4918ZM81.8253 62.8001V82.1001H74.0336V62.8001C74.0336 61.9084 74.7586 61.1834 75.6503 61.1834H80.2086C81.1003 61.1834 81.8253 61.9168 81.8253 62.8001ZM69.0419 71.5168V82.1001H61.2503V71.5168C61.2503 70.6251 61.9753 69.9001 62.8669 69.9001H67.4253C68.3169 69.9084 69.0419 70.6334 69.0419 71.5168ZM84.5169 85.3334H45.7669C45.3169 85.3334 44.9586 84.9751 44.9586 84.5251C44.9586 84.0751 45.3169 83.7168 45.7669 83.7168H84.5169C84.9669 83.7168 85.3253 84.0751 85.3253 84.5251C85.3253 84.9751 84.9669 85.3334 84.5169 85.3334ZM62.2336 46.2501C61.9003 44.8251 61.3419 43.4751 60.5669 42.2334C60.5336 42.1834 60.5086 42.1251 60.4836 42.0584C60.4252 41.8911 60.4252 41.709 60.4836 41.5417C60.5003 41.5001 60.5169 41.4584 60.5419 41.4167L61.5669 39.5084L59.0253 36.9667L57.1169 37.9917C57.0753 38.0167 57.0336 38.0334 56.9919 38.0501C56.8253 38.1084 56.6419 38.1084 56.4753 38.0501C56.4169 38.0334 56.3586 38.0001 56.3003 37.9667C55.0586 37.1917 53.7086 36.6334 52.2836 36.3001C52.1492 36.2677 52.0253 36.2018 51.9233 36.1085C51.8213 36.0153 51.7445 35.8977 51.7003 35.7667L51.0669 33.6667H47.4669L46.8419 35.7417C46.7586 36.0251 46.5253 36.2334 46.2419 36.3001C44.8169 36.6334 43.4669 37.1917 42.2253 37.9667C42.0003 38.1167 41.6919 38.1251 41.4419 38.0001L39.5086 36.9667L36.9669 39.5084L38.0003 41.4167C38.0253 41.4584 38.0419 41.5001 38.0586 41.5417C38.1336 41.7751 38.1003 42.0417 37.9669 42.2501C37.2038 43.4822 36.6465 44.8304 36.3169 46.2418C36.2503 46.5084 36.0503 46.7418 35.7836 46.8251L33.6836 47.4584V51.0584L35.7586 51.6834C36.0419 51.7668 36.2503 52.0001 36.3169 52.2834C36.6503 53.7084 37.2086 55.0584 37.9836 56.3001C38.1336 56.5334 38.1503 56.8418 38.0253 57.0918L36.9836 59.0251L39.5253 61.5668L41.4336 60.5418C41.5599 60.4738 41.7019 60.4404 41.8453 60.4448C41.9886 60.4492 42.1283 60.4912 42.2503 60.5668C43.4919 61.3418 44.8419 61.9001 46.2669 62.2334C46.5419 62.3001 46.7669 62.5001 46.8586 62.7668L47.4919 64.8668H51.0919L51.7169 62.7918C51.7836 62.5751 51.9336 62.4001 52.1336 62.3001C52.1919 62.2751 52.2503 62.2501 52.3086 62.2334C53.7336 61.9001 55.0836 61.3418 56.3253 60.5668C56.5336 60.4418 56.7836 60.4084 57.0169 60.4834C57.0586 60.5001 57.1003 60.5168 57.1419 60.5418L59.0503 61.5668L61.5919 59.0251L60.5669 57.1168C60.5061 57.0014 60.4736 56.8732 60.4722 56.7428C60.4707 56.6123 60.5004 56.4835 60.5586 56.3668C61.3669 55.0584 61.9336 53.7084 62.2586 52.2834C62.3253 52.0084 62.5253 51.7834 62.7919 51.6918L64.8919 51.0584V47.4584L62.8169 46.8334C62.6751 46.8 62.5454 46.7277 62.4424 46.6247C62.3393 46.5216 62.267 46.3919 62.2336 46.2501ZM49.2669 58.8584C43.9753 58.8584 39.6669 54.5501 39.6669 49.2584C39.6669 43.9667 43.9753 39.6667 49.2669 39.6667C54.5586 39.6667 58.8669 43.9751 58.8669 49.2668C58.8669 54.5584 54.5586 58.8584 49.2669 58.8584Z" fill="#2D4B6E"/>
<path d="M49.2665 41.2834C44.8665 41.2834 41.2832 44.8668 41.2832 49.2668C41.2832 53.6668 44.8665 57.2501 49.2665 57.2501C53.6665 57.2501 57.2499 53.6668 57.2499 49.2668C57.2499 44.8668 53.6665 41.2834 49.2665 41.2834ZM49.2665 42.3334C49.4811 42.3337 49.6869 42.4191 49.8385 42.571C49.9901 42.7229 50.0751 42.9288 50.0749 43.1434C50.0746 43.3581 49.9892 43.5638 49.8373 43.7154C49.6854 43.867 49.4795 43.952 49.2649 43.9518C49.0503 43.9516 48.8445 43.8661 48.6929 43.7142C48.5414 43.5623 48.4563 43.3564 48.4565 43.1418C48.4568 42.9272 48.5422 42.7214 48.6941 42.5699C48.846 42.4183 49.0519 42.3332 49.2665 42.3334ZM43.1499 50.0668C42.9353 50.0666 42.7295 49.9811 42.5779 49.8292C42.4264 49.6773 42.3413 49.4714 42.3415 49.2568C42.3418 49.0422 42.4272 48.8364 42.5791 48.6849C42.731 48.5333 42.9369 48.4482 43.1515 48.4484C43.3661 48.4487 43.5719 48.5341 43.7235 48.686C43.8751 48.8379 43.9601 49.0438 43.9599 49.2584C43.9596 49.4731 43.8742 49.6788 43.7223 49.8304C43.5704 49.982 43.3645 50.067 43.1499 50.0668ZM45.5165 54.1584C45.1999 54.4751 44.6915 54.4751 44.3749 54.1584C44.0582 53.8418 44.0582 53.3334 44.3749 53.0168C44.6915 52.7001 45.1999 52.7001 45.5165 53.0168C45.8249 53.3334 45.8249 53.8418 45.5165 54.1584ZM45.5165 45.5084C45.1999 45.8251 44.6915 45.8251 44.3749 45.5084C44.0582 45.1918 44.0582 44.6834 44.3749 44.3668C44.6915 44.0501 45.1999 44.0501 45.5165 44.3668C45.8249 44.6834 45.8249 45.1918 45.5165 45.5084ZM49.2665 56.1918C48.8165 56.1918 48.4582 55.8334 48.4582 55.3834C48.4582 54.9334 48.8165 54.5751 49.2665 54.5751C49.4809 54.5751 49.6865 54.6603 49.8381 54.8119C49.9897 54.9635 50.0749 55.1691 50.0749 55.3834C50.0749 55.5978 49.9897 55.8034 49.8381 55.955C49.6865 56.1066 49.4809 56.1918 49.2665 56.1918ZM52.0582 52.0501C51.8999 52.2084 51.6915 52.2834 51.4915 52.2834C51.2915 52.2834 51.0749 52.2084 50.9249 52.0501L48.7082 49.8334C48.5591 49.6825 48.4753 49.479 48.4749 49.2668V46.9084C48.4749 46.4584 48.8332 46.1001 49.2832 46.1001C49.7332 46.1001 50.0915 46.4584 50.0915 46.9084V48.5751L50.4249 49.2668L52.0665 50.9084C52.3749 51.2251 52.3749 51.7334 52.0582 52.0501ZM54.1665 54.1584C53.8499 54.4751 53.3415 54.4751 53.0249 54.1584C52.7082 53.8418 52.7082 53.3334 53.0249 53.0168C53.3415 52.7001 53.8499 52.7001 54.1665 53.0168C54.4832 53.3334 54.4832 53.8418 54.1665 54.1584ZM54.1665 45.5084C53.8499 45.8251 53.3415 45.8251 53.0249 45.5084C52.7082 45.1918 52.7082 44.6834 53.0249 44.3668C53.3415 44.0501 53.8499 44.0501 54.1665 44.3668C54.4832 44.6834 54.4832 45.1918 54.1665 45.5084ZM56.1999 49.2668C56.1999 49.7168 55.8415 50.0751 55.3915 50.0751C54.9415 50.0751 54.5832 49.7168 54.5832 49.2668C54.5832 48.8168 54.9415 48.4584 55.3915 48.4584C55.8332 48.4584 56.1999 48.8168 56.1999 49.2668ZM78.9082 53.1251V53.2001L78.8999 53.2584L78.4249 58.5084C78.3832 58.9251 78.0415 59.2418 77.6249 59.2418C77.5999 59.2418 77.5749 59.2418 77.5415 59.2334C77.4363 59.2242 77.3339 59.1941 77.2403 59.145C77.1467 59.0958 77.0639 59.0286 76.9964 58.9473C76.929 58.8659 76.8784 58.7719 76.8475 58.6709C76.8166 58.5698 76.8061 58.4636 76.8165 58.3584L77.0665 55.6084C70.1499 63.3751 60.5749 69.0168 50.9915 70.8834C50.9415 70.8918 50.8832 70.9001 50.8415 70.9001C50.4582 70.9001 50.1249 70.6334 50.0499 70.2501C50.0286 70.146 50.0284 70.0387 50.0493 69.9345C50.0702 69.8303 50.1118 69.7314 50.1716 69.6436C50.2314 69.5558 50.3083 69.4809 50.3976 69.4233C50.4869 69.3658 50.5869 69.3267 50.6915 69.3084C59.9832 67.5001 69.2832 62.0001 75.9749 54.4251L73.0749 55.0584C72.9714 55.0823 72.8642 55.0851 72.7595 55.0669C72.6549 55.0486 72.555 55.0096 72.4657 54.9521C72.3764 54.8947 72.2995 54.8199 72.2395 54.7323C72.1796 54.6446 72.1377 54.5458 72.1165 54.4418C72.0927 54.3383 72.0898 54.2311 72.1081 54.1264C72.1264 54.0218 72.1654 53.9219 72.2228 53.8326C72.2803 53.7433 72.3551 53.6664 72.4427 53.6064C72.5304 53.5465 72.6291 53.5047 72.7332 53.4834L77.9249 52.3501H77.9415C77.9999 52.3418 78.0582 52.3334 78.1082 52.3334C78.1582 52.3334 78.2082 52.3418 78.2499 52.3501C78.3332 52.3584 78.4165 52.3918 78.4915 52.4334C78.5332 52.4584 78.5749 52.4834 78.6082 52.5168C78.6249 52.5168 78.6332 52.5334 78.6499 52.5418C78.6665 52.5584 78.6749 52.5834 78.6915 52.6001C78.7499 52.6668 78.7999 52.7334 78.8415 52.8084C78.8832 52.8918 78.9082 53.0001 78.9082 53.1251Z" fill="#2D4B6E"/>
</svg>
