<svg width="86" height="85" viewBox="0 0 86 85" fill="none" xmlns="http://www.w3.org/2000/svg">
<path d="M85.1038 22.54C89.5781 37.3908 76.7058 57.9478 59.7033 70.677C42.632 83.4794 21.4306 88.3809 10.1415 79.4558C-1.14762 70.6039 -2.52434 47.9253 3.60206 30.6604C9.72845 13.3954 23.4268 1.54404 41.1176 0.154066C58.8773 -1.30907 80.6294 7.76235 85.1038 22.54Z" fill="#BED3CC"/>
<g clip-path="url(#clip0_2008_392)">
<path d="M67.6004 29.6133H49.1951C46.066 29.6133 43.4073 32.1647 43.4073 35.2929V78.4213C43.4073 81.5495 46.0098 84.0944 49.1389 84.0944L67.5745 84.0745C70.7031 84.0745 73.2627 81.5292 73.2627 78.4005L73.2895 35.2898C73.2891 32.1504 70.742 29.6133 67.6004 29.6133ZM55.7389 33.0184H61.0787C61.5478 33.0184 61.9299 33.3992 61.9299 33.8696C61.9299 34.34 61.5478 34.7208 61.0787 34.7208H55.7389C55.6271 34.7208 55.5164 34.6988 55.4131 34.6561C55.3098 34.6133 55.2159 34.5506 55.1369 34.4716C55.0578 34.3925 54.9951 34.2987 54.9524 34.1954C54.9096 34.0921 54.8876 33.9814 54.8877 33.8696C54.8876 33.7578 54.9096 33.6471 54.9524 33.5438C54.9951 33.4405 55.0578 33.3467 55.1369 33.2676C55.2159 33.1886 55.3098 33.1259 55.4131 33.0831C55.5164 33.0404 55.6271 33.0184 55.7389 33.0184ZM52.5302 33.2893C52.8456 32.9743 53.4199 32.97 53.7349 33.2893C53.8949 33.45 53.9852 33.6671 53.9863 33.8938C53.9863 34.1154 53.8928 34.3361 53.7349 34.494C53.5778 34.652 53.3558 34.745 53.1347 34.745C52.9092 34.745 52.6924 34.652 52.5302 34.494C52.3731 34.3365 52.2835 34.1154 52.2835 33.8938C52.2831 33.668 52.3731 33.4468 52.5302 33.2893ZM58.237 82.4072C56.8324 82.4072 55.69 81.2639 55.69 79.8597C55.69 78.4551 56.8324 77.3122 58.237 77.3122C59.6416 77.3122 60.7841 78.4551 60.7841 79.8597C60.7841 81.2639 59.6412 82.4072 58.237 82.4072ZM70.6473 75.5809H46.3867V37.7006H70.6473V75.5809Z" fill="#2D4B6E"/>
</g>
<defs>
<clipPath id="clip0_2008_392">
<rect width="54.4811" height="54.4811" fill="white" transform="translate(31.1085 29.6133)"/>
</clipPath>
</defs>
</svg>
