<svg width="86" height="85" viewBox="0 0 86 85" fill="none" xmlns="http://www.w3.org/2000/svg">
<path d="M85.1038 22.54C89.5781 37.3908 76.7058 57.9478 59.7033 70.677C42.632 83.4794 21.4306 88.3809 10.1415 79.4558C-1.14762 70.6039 -2.52434 47.9253 3.60206 30.6604C9.72845 13.3954 23.4268 1.54404 41.1176 0.154066C58.8773 -1.30907 80.6294 7.76235 85.1038 22.54Z" fill="#BED3CC"/>
<g clip-path="url(#clip0_2008_389)">
<path d="M85.9992 67.2216C85.9992 60.3966 82.0837 54.3054 76.2195 51.3425C76.0376 64.4287 65.4279 75.0383 52.3418 75.2203C55.3047 81.0844 61.3959 85 68.2209 85C71.421 85 74.5328 84.1477 77.2669 82.5284L85.9216 84.9223L83.5277 76.2677C85.1469 73.5335 85.9992 70.4216 85.9992 67.2216Z" fill="#2D4B6E"/>
<path d="M73.002 51.001C73.002 39.4209 63.5811 30 52.001 30C40.4209 30 31 39.4209 31 51.001C31 54.775 32.0046 58.4496 33.9122 61.6756L31.0771 71.9243L41.3263 69.0899C44.5523 70.9973 48.2269 72.002 52.001 72.002C63.5811 72.002 73.002 62.5811 73.002 51.001ZM48.7783 46.1133H45.5557C45.5557 42.5591 48.4468 39.668 52.001 39.668C55.5551 39.668 58.4463 42.5591 58.4463 46.1133C58.4463 47.9172 57.6825 49.6511 56.3503 50.8696L53.6123 53.3755V55.8887H50.3896V51.9565L54.1746 48.4921C54.851 47.8732 55.2236 47.0285 55.2236 46.1133C55.2236 44.3362 53.7781 42.8906 52.001 42.8906C50.2239 42.8906 48.7783 44.3362 48.7783 46.1133ZM50.3896 59.1113H53.6123V62.334H50.3896V59.1113Z" fill="#2D4B6E"/>
</g>
<defs>
<clipPath id="clip0_2008_389">
<rect width="55" height="55" fill="white" transform="translate(31 30)"/>
</clipPath>
</defs>
</svg>
