<svg width="31" height="40" viewBox="0 0 31 40" fill="none" xmlns="http://www.w3.org/2000/svg">
<path fill-rule="evenodd" clip-rule="evenodd" d="M2.57559 0H28.4244C29.0748 0.00194724 29.698 0.261171 30.1578 0.721057C30.6177 1.18094 30.877 1.80412 30.8789 2.4545V37.5464C30.877 38.1968 30.6177 38.82 30.1578 39.2799C29.698 39.7397 29.0748 39.999 28.4244 40.0009H2.57559C1.92522 39.999 1.30204 39.7397 0.842151 39.2799C0.382265 38.82 0.123041 38.1968 0.121094 37.5464V2.4545C0.123041 1.80412 0.382265 1.18094 0.842151 0.721057C1.30204 0.261171 1.92522 0.00194724 2.57559 0ZM13.4787 37.3342H17.5213V38.2237H13.4787V37.3342ZM14.5076 1.77444C14.3896 1.77444 14.2765 1.82129 14.1931 1.9047C14.1097 1.98811 14.0628 2.10124 14.0628 2.2192C14.0628 2.33716 14.1097 2.45028 14.1931 2.53369C14.2765 2.6171 14.3896 2.66396 14.5076 2.66396C14.6255 2.66396 14.7387 2.6171 14.8221 2.53369C14.9055 2.45028 14.9523 2.33716 14.9523 2.2192C14.9523 2.10124 14.9055 1.98811 14.8221 1.9047C14.7387 1.82129 14.6255 1.77444 14.5076 1.77444ZM16.4924 1.77444C16.3744 1.77444 16.2613 1.82129 16.1779 1.9047C16.0945 1.98811 16.0476 2.10124 16.0476 2.2192C16.0476 2.33716 16.0945 2.45028 16.1779 2.53369C16.2613 2.6171 16.3744 2.66396 16.4924 2.66396C16.6104 2.66396 16.7235 2.6171 16.8069 2.53369C16.8903 2.45028 16.9372 2.33716 16.9372 2.2192C16.9372 2.10124 16.8903 1.98811 16.8069 1.9047C16.7235 1.82129 16.6104 1.77444 16.4924 1.77444ZM2.72046 4.44024H28.2805V35.5598H2.72046V4.44024Z" fill="#7B6767"/>
</svg>
