<svg width="39" height="13" viewBox="0 0 39 13" fill="none" xmlns="http://www.w3.org/2000/svg">
<path d="M29.7194 12.8321H27.6616L30.521 0.698242H32.5788L29.7194 12.8321ZM28.6507 1.07828C28.5101 0.846954 28.2898 0.731289 27.9898 0.731289H16.6835L16.1257 3.11069H26.4101L25.8101 5.64982H17.5835V5.64431H15.5257L13.8194 12.8872H15.8773L17.021 8.02921H26.2694C26.5601 8.02921 26.8319 7.91355 27.0851 7.68222C27.3382 7.45089 27.5069 7.16448 27.5866 6.82299L28.7304 1.96505C28.8194 1.60153 28.7913 1.30962 28.6507 1.07828ZM12.6194 12.072C12.5069 12.5512 12.1319 12.8872 11.7101 12.8872H1.10226C0.811634 12.8872 0.59601 12.7715 0.455385 12.5402C0.31476 12.3088 0.281947 12.0224 0.366322 11.6809L2.95382 0.731289H5.01163L2.7007 10.5133H10.9319L13.2429 0.731289H15.3007L12.6194 12.072Z" fill="#70706E"/>
<path d="M36.1344 0.720215L38.7359 6.8009L33.2656 12.8816L36.1344 0.720215Z" fill="#098041"/>
<path d="M34.3031 0.720215L36.9047 6.8009L31.4297 12.8816L34.3031 0.720215Z" fill="#E97626"/>
</svg>
