<svg width="70" height="70" viewBox="0 0 70 70" fill="none" xmlns="http://www.w3.org/2000/svg">
<rect width="70" height="70" rx="10" fill="#FFDBEC"/>
<path fill-rule="evenodd" clip-rule="evenodd" d="M25.3305 33.7132C24.796 33.5812 24.3139 33.2402 24.0172 32.7263C23.8314 32.405 23.7343 32.0401 23.7358 31.669C23.7372 31.2979 23.8373 30.9338 24.0256 30.614C23.3908 30.2536 22.9623 29.5712 22.9623 28.7896C22.9621 28.4185 23.0604 28.054 23.2473 27.7333C23.4341 27.4127 23.7027 27.1474 24.0257 26.9646C23.6562 26.335 23.6263 25.5298 24.0172 24.8529C24.4091 24.174 25.1245 23.7971 25.8506 23.8042C25.8453 23.0742 26.2221 22.362 26.899 21.9711C27.576 21.5802 28.3813 21.6102 29.011 21.9799C29.2838 21.4992 29.7412 21.1368 30.2866 20.989V16.1765C30.2866 16.0309 30.3444 15.8912 30.4474 15.7882C30.5503 15.6853 30.69 15.6274 30.8356 15.6274H50.7729C50.9185 15.6274 51.0582 15.6853 51.1611 15.7882C51.2641 15.8912 51.3219 16.0309 51.3219 16.1765V36.1139C51.3219 36.2595 51.2641 36.3991 51.1611 36.5021C51.0582 36.605 50.9185 36.6629 50.7729 36.6629H38.0437L38.2589 37.0356C38.3105 37.1249 38.3358 37.227 38.332 37.3301C38.3283 37.4332 38.2955 37.5331 38.2376 37.6185C38.1796 37.7038 38.0988 37.7711 38.0044 37.8126C37.91 37.8541 37.8057 37.8682 37.7037 37.8532L35.5267 37.5336L34.6245 39.6414C34.5843 39.7351 34.5189 39.8157 34.4355 39.8743C34.3521 39.9329 34.2541 39.9672 34.1524 39.9732C34.0506 39.9793 33.9492 39.9569 33.8595 39.9087C33.7698 39.8604 33.6952 39.7881 33.6442 39.6998L31.7655 36.4457C31.4765 36.589 31.1582 36.6633 30.8356 36.6629C30.5016 36.6629 30.1858 36.5846 29.9056 36.446L28.027 39.6998C27.9754 39.7892 27.8997 39.8622 27.8085 39.9105C27.7173 39.9588 27.6144 39.9804 27.5115 39.9729C27.4086 39.9654 27.3099 39.929 27.2267 39.868C27.1435 39.807 27.0792 39.7237 27.0412 39.6278L26.2296 37.5827L23.953 37.8552C23.8518 37.8673 23.7492 37.851 23.6568 37.8081C23.5643 37.7653 23.4856 37.6975 23.4295 37.6124C23.3734 37.5273 23.342 37.4283 23.339 37.3264C23.336 37.2246 23.3613 37.1239 23.4123 37.0356L25.3305 33.7132ZM31.3846 20.9889C31.6522 21.0615 31.9028 21.1865 32.1218 21.3566C32.3408 21.5266 32.5239 21.7385 32.6605 21.9798C33.2902 21.6102 34.0954 21.5803 34.7722 21.9711C35.0937 22.1565 35.3603 22.4239 35.5445 22.746C35.7288 23.0681 35.8242 23.4334 35.821 23.8045C36.551 23.7994 37.2633 24.1761 37.6541 24.8529C37.8398 25.1742 37.9369 25.5391 37.9354 25.9102C37.934 26.2813 37.8339 26.6453 37.6456 26.9651C38.2805 27.3256 38.7089 28.008 38.7089 28.7896C38.7092 29.1607 38.6108 29.5252 38.424 29.8458C38.2371 30.1665 37.9685 30.4318 37.6455 30.6145C38.015 31.2441 38.0448 32.0493 37.6541 32.7263C37.5131 32.9709 37.3242 33.1845 37.0985 33.3543C36.8729 33.524 36.6153 33.6463 36.3412 33.714L37.4098 35.5649H50.2239V16.7255H44.0561V22.9758C44.056 23.069 44.0323 23.1606 43.9872 23.242C43.942 23.3235 43.8768 23.3921 43.7978 23.4414C43.7189 23.4907 43.6286 23.5192 43.5356 23.524C43.4426 23.5289 43.3499 23.51 43.2662 23.4692L40.8043 22.2674L38.3423 23.4692C38.2586 23.51 38.1659 23.5289 38.0729 23.5241C37.9799 23.5192 37.8896 23.4908 37.8106 23.4415C37.7316 23.3921 37.6665 23.3235 37.6213 23.242C37.5762 23.1606 37.5525 23.069 37.5525 22.9758V16.7255H31.3846V20.9889ZM35.6267 34.6725C35.4457 35.0654 35.1471 35.3923 34.7722 35.6081C34.0933 36.0001 33.2853 35.9688 32.6601 35.5996C32.6413 35.6326 32.6216 35.6652 32.6012 35.6971L34.0467 38.2008L34.6836 36.7129C34.7313 36.6016 34.8145 36.5091 34.9202 36.4499C35.0259 36.3908 35.1482 36.3682 35.2681 36.3858L36.7407 36.602L35.6267 34.6725ZM29.0697 35.6976C29.0491 35.6654 29.0294 35.6327 29.0107 35.5994C28.3811 35.969 27.5758 35.9988 26.899 35.6081C26.5242 35.3923 26.2255 35.0657 26.0441 34.6732L24.9117 36.6346L26.5187 36.4423C26.639 36.4279 26.7606 36.4536 26.8648 36.5156C26.9689 36.5776 27.0496 36.6722 27.0943 36.7849L27.6433 38.1683L29.0697 35.6976ZM42.958 16.7255H38.6505V22.0969L40.5634 21.163C40.6385 21.1264 40.7208 21.1073 40.8043 21.1073C40.8878 21.1073 40.9701 21.1264 41.0452 21.163L42.958 22.0969V16.7255ZM28.5116 22.9627C28.2043 22.7531 27.7914 22.7238 27.448 22.922C27.1045 23.1204 26.9235 23.4925 26.9514 23.8635L26.9518 23.871C26.9603 24.0091 26.9394 24.1474 26.8904 24.2768C26.8414 24.4062 26.7654 24.5237 26.6676 24.6216C26.5698 24.7194 26.4523 24.7954 26.3229 24.8444C26.1935 24.8934 26.0551 24.9144 25.917 24.9059L25.9096 24.9053C25.5386 24.8775 25.1664 25.0585 24.9681 25.402C24.7697 25.7455 24.7991 26.1583 25.0087 26.4656L25.0128 26.4718C25.0892 26.5872 25.1403 26.7175 25.1625 26.854C25.1848 26.9906 25.1778 27.1303 25.142 27.264C25.1062 27.3976 25.0424 27.5222 24.9548 27.6293C24.8673 27.7364 24.7579 27.8238 24.6341 27.8855L24.6274 27.8888C24.2921 28.0501 24.0604 28.3929 24.0604 28.7896C24.0604 29.1862 24.2921 29.5291 24.6274 29.6904L24.6341 29.6937C24.758 29.7554 24.8673 29.8427 24.9549 29.9499C25.0424 30.057 25.1062 30.1815 25.142 30.3152C25.1779 30.4488 25.1849 30.5886 25.1626 30.7251C25.1404 30.8617 25.0893 30.992 25.0129 31.1074L25.0087 31.1136C24.7991 31.4209 24.7698 31.8337 24.9681 32.1772C25.1664 32.5207 25.5386 32.7017 25.9096 32.6739L25.917 32.6733C26.0551 32.6648 26.1934 32.6858 26.3228 32.7348C26.4522 32.7838 26.5698 32.8597 26.6676 32.9576C26.7654 33.0554 26.8414 33.1729 26.8904 33.3023C26.9394 33.4317 26.9604 33.57 26.9519 33.7081L26.9514 33.7157C26.9235 34.0867 27.1045 34.4588 27.448 34.6571C27.7915 34.8554 28.2043 34.8261 28.5117 34.6165L28.5179 34.6123C28.6338 34.5356 28.7647 34.4844 28.9019 34.4623C29.0391 34.4402 29.1795 34.4477 29.3136 34.4842C29.4478 34.5206 29.5726 34.5853 29.6797 34.6739C29.7868 34.7625 29.8738 34.8729 29.9348 34.9978C30.0961 35.333 30.439 35.5649 30.8356 35.5649C31.2322 35.5649 31.575 35.333 31.7365 34.9978L31.7398 34.9911C31.8017 34.8667 31.8896 34.757 31.9973 34.6692C32.1051 34.5814 32.2304 34.5177 32.3648 34.4822C32.4992 34.4468 32.6396 34.4404 32.7767 34.4636C32.9138 34.4867 33.0443 34.5388 33.1596 34.6165C33.467 34.8261 33.8798 34.8554 34.2232 34.6571C34.5667 34.4588 34.7477 34.0867 34.7199 33.7157L34.7194 33.7082C34.7109 33.5701 34.7318 33.4318 34.7808 33.3024C34.8298 33.173 34.9057 33.0555 35.0036 32.9576C35.1014 32.8598 35.2189 32.7838 35.3483 32.7348C35.4777 32.6858 35.6161 32.6648 35.7542 32.6733L35.7617 32.6738C36.1327 32.7017 36.5048 32.5207 36.7031 32.1772C36.9015 31.8337 36.8721 31.4209 36.6625 31.1136L36.6583 31.1074C36.5819 30.992 36.5309 30.8617 36.5086 30.7252C36.4864 30.5886 36.4934 30.4489 36.5292 30.3152C36.565 30.1815 36.6288 30.057 36.7164 29.9499C36.8039 29.8427 36.9132 29.7554 37.0371 29.6937L37.0438 29.6904C37.379 29.529 37.6109 29.1862 37.6109 28.7896C37.6109 28.3929 37.379 28.0501 37.0438 27.8888L37.0372 27.8855C36.9133 27.8237 36.8041 27.7364 36.7165 27.6293C36.629 27.5221 36.5652 27.3976 36.5294 27.264C36.4936 27.1303 36.4865 26.9906 36.5088 26.8541C36.531 26.7175 36.582 26.5872 36.6583 26.4718L36.6625 26.4656C36.8721 26.1583 36.9015 25.7455 36.7031 25.402C36.5048 25.0584 36.1327 24.8775 35.7616 24.9053L35.7543 24.9058C35.6161 24.9143 35.4778 24.8933 35.3484 24.8443C35.219 24.7953 35.1015 24.7194 35.0036 24.6216C34.9058 24.5237 34.8299 24.4062 34.7808 24.2768C34.7318 24.1474 34.7109 24.0091 34.7194 23.871L34.7198 23.8635C34.7478 23.4925 34.5667 23.1204 34.2232 22.922C33.8798 22.7238 33.4669 22.7531 33.1596 22.9627L33.1534 22.9668C33.0375 23.0436 32.9066 23.0947 32.7693 23.1168C32.6321 23.1389 32.4918 23.1314 32.3576 23.0949C32.2235 23.0584 32.0987 22.9937 31.9916 22.9052C31.8845 22.8166 31.7975 22.7062 31.7365 22.5813C31.575 22.2461 31.2322 22.0143 30.8356 22.0143C30.439 22.0143 30.0961 22.2462 29.9347 22.5813L29.9315 22.5881C29.8698 22.7119 29.7824 22.8212 29.6753 22.9087C29.5682 22.9963 29.4436 23.06 29.31 23.0959C29.1764 23.1317 29.0366 23.1387 28.9001 23.1165C28.7635 23.0942 28.6332 23.0432 28.5179 22.9669L28.5116 22.9627ZM25.7514 28.8158C25.751 28.8071 25.7508 28.7985 25.7508 28.7899C25.7508 25.9817 28.0275 23.7051 30.8356 23.7051C33.6438 23.7051 35.9204 25.9817 35.9204 28.7899C35.9204 31.598 33.6438 33.8741 30.8356 33.8741C28.0361 33.8741 25.7654 31.612 25.7514 28.8158ZM26.8488 28.7899H26.8494C26.8494 30.9915 28.6339 32.7761 30.8356 32.7761C33.0373 32.7761 34.8223 30.9915 34.8223 28.7899C34.8223 26.5881 33.0373 24.8031 30.8356 24.8031C28.6339 24.8031 26.8488 26.5881 26.8488 28.7899ZM32.8928 27.1752C32.9966 27.0731 33.1367 27.0164 33.2823 27.0175C33.4279 27.0186 33.5671 27.0775 33.6693 27.1812C33.7714 27.285 33.8281 27.425 33.827 27.5706C33.8258 27.7162 33.767 27.8554 33.6633 27.9576L30.7397 30.8365C30.6395 30.9351 30.5054 30.9916 30.3649 30.9943C30.2244 30.9969 30.0882 30.9456 29.9844 30.8509L28.023 29.0614C27.7992 28.8572 27.7833 28.5096 27.9875 28.2858C28.1918 28.062 28.5393 28.046 28.7631 28.2503L30.3401 29.689L32.8928 27.1752ZM41.8489 29.9197H48.2214C48.367 29.9197 48.5067 29.9775 48.6096 30.0805C48.7126 30.1834 48.7704 30.3231 48.7704 30.4687V32.8735C48.7704 33.0191 48.7126 33.1587 48.6096 33.2617C48.5067 33.3647 48.367 33.4225 48.2214 33.4225H41.8489C41.7033 33.4225 41.5637 33.3647 41.4607 33.2617C41.3577 33.1587 41.2999 33.0191 41.2999 32.8735V30.4687C41.2999 30.3231 41.3577 30.1834 41.4607 30.0805C41.5637 29.9775 41.7033 29.9197 41.8489 29.9197ZM42.3979 31.0177V32.3245H47.6724V31.0177H42.3979ZM27.5212 50.7776L27.7476 51.3216L27.7478 51.3222C27.9075 51.7084 27.9078 52.0975 27.7501 52.486L27.7492 52.4883C27.5895 52.8715 27.3143 53.1478 26.9268 53.311L26.9254 53.3115L24.6475 54.2558C23.8748 54.5785 22.9801 54.2083 22.6597 53.4362C21.3746 50.3483 20.0876 47.2603 18.8025 44.1724C18.6395 43.7868 18.639 43.3954 18.7996 43.007C18.9598 42.6196 19.2367 42.3431 19.6215 42.1827L21.9018 41.2363C22.6739 40.9158 23.5658 41.2826 23.8895 42.0553L23.8897 42.0559L24.0823 42.5187C25.1908 41.9945 26.2976 41.4669 27.3995 40.928C28.9136 40.1872 30.1077 39.6972 31.4979 39.8851C32.4041 40.0076 33.4025 40.419 34.6296 41.2774L38.8325 42.4033C39.5485 42.5951 40.114 43.0767 40.4366 43.6883L46.3034 41.9672C48.8555 41.2185 50.2657 41.7697 50.8861 42.6083C51.3009 43.1689 51.4096 43.8949 51.2544 44.6126C51.0365 45.62 50.2924 46.5977 49.2784 46.9889L40.3835 50.4165C38.8843 50.9934 36.881 51.7982 35.2721 51.3311L30.5334 49.9565L30.5325 49.9561C29.9794 49.7947 29.4488 49.8396 28.93 50.0922L27.5212 50.7776ZM26.733 51.7422C26.5919 51.403 23.0134 42.8087 22.8761 42.4788C22.7859 42.2639 22.5379 42.1614 22.3228 42.2507L20.0434 43.1967C19.9362 43.2414 19.8592 43.3187 19.8146 43.4267C19.7706 43.533 19.7697 43.6401 19.8152 43.7474L19.8159 43.7491C21.1012 46.8375 22.3883 49.9259 23.6737 53.0145L23.6738 53.0147C23.7627 53.2289 24.0107 53.3319 24.2258 53.2418L26.503 52.2978L26.5046 52.2971C26.6119 52.2512 26.6894 52.1747 26.735 52.0667C26.7778 51.9588 26.7776 51.8501 26.733 51.7422ZM27.0984 49.762L28.4492 49.1049C29.2231 48.7279 30.015 48.661 30.8394 48.9016L35.5782 50.2764C36.2393 50.4682 36.9789 50.374 37.7078 50.1873C38.5143 49.9806 39.3076 49.6538 39.9888 49.3916L48.883 45.9643C49.555 45.7051 50.0365 45.0479 50.1809 44.3804C50.2673 43.9814 50.2339 43.5732 50.0033 43.2616C49.8067 42.9959 49.473 42.8147 48.9958 42.7413C48.4018 42.65 47.6187 42.7259 46.6126 43.0211L40.7309 44.7465C40.7458 45.0157 40.7177 45.2855 40.6477 45.5458C40.2827 46.9088 38.8674 47.7263 37.5053 47.3591L31.7943 45.8299C31.6536 45.7921 31.5337 45.7001 31.4609 45.574C31.388 45.4479 31.3683 45.298 31.4059 45.1573C31.4436 45.0167 31.5356 44.8968 31.6617 44.824C31.7878 44.7511 31.9377 44.7313 32.0783 44.7689L37.7894 46.2983L37.7903 46.2985C38.5695 46.5085 39.3783 46.0408 39.5869 45.2616C39.7957 44.4822 39.3279 43.6729 38.5485 43.4641L34.2511 42.313C34.1881 42.2961 34.1286 42.2682 34.0754 42.2304C32.999 41.4664 32.1392 41.08 31.3509 40.9735C30.1693 40.8138 29.1689 41.285 27.8822 41.9145C26.7604 42.4632 25.6334 43.0002 24.5048 43.5337C25.3691 45.6096 26.2339 47.6857 27.0984 49.762Z" fill="#DD1173"/>
</svg>
