<svg width="25" height="40" viewBox="0 0 25 40" fill="none" xmlns="http://www.w3.org/2000/svg">
<path fill-rule="evenodd" clip-rule="evenodd" d="M17.9586 33.2105C17.1189 34.8511 17.4723 37.4034 17.3625 39.1206C17.3311 39.6032 16.9657 40 16.4822 40H6.37443C5.89091 40 5.52551 39.6032 5.49413 39.1206C5.3834 37.4062 5.71282 34.852 4.86851 33.2086C5.0669 33.228 5.26898 33.2381 5.47291 33.2381H17.3837C17.5775 33.2381 17.7685 33.2289 17.9586 33.2105ZM4.81869 6.79693C5.6713 5.14706 5.38433 2.58922 5.49413 0.880297C5.52551 0.39678 5.89091 0 6.37443 0H16.4822C16.9666 0 17.3311 0.39678 17.3625 0.880297C17.4796 2.70271 17.1871 5.18028 18.0268 6.796C17.8132 6.7732 17.5985 6.7618 17.3837 6.76186H5.47291C5.25145 6.76186 5.03369 6.77386 4.81776 6.79693H4.81869ZM5.47291 7.65046H17.3837C20.2165 7.65046 22.5354 9.96932 22.5354 12.8021V27.1969C22.5354 30.0316 20.2174 32.3495 17.3837 32.3495H5.47291C2.63917 32.3495 0.320312 30.0316 0.320312 27.1979V12.8031C0.320312 9.9684 2.63917 7.65046 5.47291 7.65046ZM5.46368 10.2138H17.3929C18.0921 10.2158 18.7621 10.4943 19.2565 10.9886C19.751 11.4829 20.0298 12.1528 20.032 12.852V27.148C20.03 27.8473 19.7513 28.5175 19.2568 29.012C18.7624 29.5065 18.0922 29.7851 17.3929 29.7871H5.46276C4.76344 29.7851 4.09332 29.5065 3.59883 29.012C3.10433 28.5175 2.82566 27.8473 2.82371 27.148V12.852C2.82566 12.1526 3.10433 11.4825 3.59883 10.988C4.09332 10.4935 4.76344 10.2149 5.46276 10.2129L5.46368 10.2138Z" fill="#7B6767"/>
<path fill-rule="evenodd" clip-rule="evenodd" d="M22.3145 18.7835V13.6687H23.717C24.2467 13.6687 24.6804 14.1024 24.6804 14.632V17.8201C24.6804 18.3498 24.2467 18.7835 23.717 18.7835H22.3145ZM22.3145 26.3324V21.2167H23.717C24.2467 21.2167 24.6804 21.6504 24.6804 22.1801V25.3691C24.6804 25.8987 24.2467 26.3324 23.717 26.3324H22.3145Z" fill="#7B6767"/>
</svg>
